<svg xmlns="http://www.w3.org/2000/svg" width="1400" height="520">
<rect width="100%" height="100%" fill="#f7f7f4"/>
<text x="60" y="24" font-family="Helvetica" font-size="16" fill="#222">Window 05 AI-assisted draft pivots</text>
<line x1="60.00" y1="212.67" x2="60.00" y2="233.42" stroke="#999" stroke-width="1"/>
<line x1="60.00" y1="218.80" x2="60.00" y2="222.35" stroke="#2a6" stroke-width="2"/>
<line x1="66.91" y1="208.98" x2="66.91" y2="223.81" stroke="#999" stroke-width="1"/>
<line x1="66.91" y1="214.76" x2="66.91" y2="218.93" stroke="#2a6" stroke-width="2"/>
<line x1="73.82" y1="214.34" x2="73.82" y2="234.46" stroke="#999" stroke-width="1"/>
<line x1="73.82" y1="214.90" x2="73.82" y2="233.97" stroke="#c33" stroke-width="2"/>
<line x1="80.73" y1="233.97" x2="80.73" y2="275.33" stroke="#999" stroke-width="1"/>
<line x1="80.73" y1="233.97" x2="80.73" y2="257.92" stroke="#c33" stroke-width="2"/>
<line x1="87.64" y1="237.39" x2="87.64" y2="260.01" stroke="#999" stroke-width="1"/>
<line x1="87.64" y1="240.94" x2="87.64" y2="258.41" stroke="#2a6" stroke-width="2"/>
<line x1="94.55" y1="240.45" x2="94.55" y2="258.62" stroke="#999" stroke-width="1"/>
<line x1="94.55" y1="240.94" x2="94.55" y2="252.56" stroke="#c33" stroke-width="2"/>
<line x1="101.47" y1="225.55" x2="101.47" y2="252.70" stroke="#999" stroke-width="1"/>
<line x1="101.47" y1="238.50" x2="101.47" y2="252.49" stroke="#2a6" stroke-width="2"/>
<line x1="108.38" y1="227.78" x2="108.38" y2="273.03" stroke="#999" stroke-width="1"/>
<line x1="108.38" y1="238.43" x2="108.38" y2="270.60" stroke="#c33" stroke-width="2"/>
<line x1="115.29" y1="267.88" x2="115.29" y2="335.14" stroke="#999" stroke-width="1"/>
<line x1="115.29" y1="270.80" x2="115.29" y2="304.22" stroke="#c33" stroke-width="2"/>
<line x1="122.20" y1="286.26" x2="122.20" y2="326.23" stroke="#999" stroke-width="1"/>
<line x1="122.20" y1="304.09" x2="122.20" y2="308.05" stroke="#c33" stroke-width="2"/>
<line x1="129.11" y1="295.17" x2="129.11" y2="328.04" stroke="#999" stroke-width="1"/>
<line x1="129.11" y1="307.78" x2="129.11" y2="315.85" stroke="#c33" stroke-width="2"/>
<line x1="136.02" y1="308.82" x2="136.02" y2="335.28" stroke="#999" stroke-width="1"/>
<line x1="136.02" y1="315.78" x2="136.02" y2="328.04" stroke="#c33" stroke-width="2"/>
<line x1="142.93" y1="327.69" x2="142.93" y2="358.95" stroke="#999" stroke-width="1"/>
<line x1="142.93" y1="328.04" x2="142.93" y2="354.49" stroke="#c33" stroke-width="2"/>
<line x1="149.84" y1="340.01" x2="149.84" y2="359.72" stroke="#999" stroke-width="1"/>
<line x1="149.84" y1="344.19" x2="149.84" y2="354.42" stroke="#2a6" stroke-width="2"/>
<line x1="156.75" y1="340.08" x2="156.75" y2="346.07" stroke="#999" stroke-width="1"/>
<line x1="156.75" y1="340.15" x2="156.75" y2="344.26" stroke="#2a6" stroke-width="2"/>
<line x1="163.66" y1="328.38" x2="163.66" y2="345.02" stroke="#999" stroke-width="1"/>
<line x1="163.66" y1="336.18" x2="163.66" y2="342.87" stroke="#2a6" stroke-width="2"/>
<line x1="170.58" y1="327.55" x2="170.58" y2="349.48" stroke="#999" stroke-width="1"/>
<line x1="170.58" y1="327.69" x2="170.58" y2="336.18" stroke="#2a6" stroke-width="2"/>
<line x1="177.49" y1="309.86" x2="177.49" y2="331.80" stroke="#999" stroke-width="1"/>
<line x1="177.49" y1="318.29" x2="177.49" y2="327.69" stroke="#2a6" stroke-width="2"/>
<line x1="184.40" y1="318.08" x2="184.40" y2="349.20" stroke="#999" stroke-width="1"/>
<line x1="184.40" y1="318.08" x2="184.40" y2="341.47" stroke="#c33" stroke-width="2"/>
<line x1="191.31" y1="338.55" x2="191.31" y2="357.90" stroke="#999" stroke-width="1"/>
<line x1="191.31" y1="341.68" x2="191.31" y2="346.83" stroke="#c33" stroke-width="2"/>
<line x1="198.22" y1="342.87" x2="198.22" y2="352.96" stroke="#999" stroke-width="1"/>
<line x1="198.22" y1="345.37" x2="198.22" y2="347.04" stroke="#2a6" stroke-width="2"/>
<line x1="205.13" y1="340.36" x2="205.13" y2="355.75" stroke="#999" stroke-width="1"/>
<line x1="205.13" y1="340.71" x2="205.13" y2="345.23" stroke="#2a6" stroke-width="2"/>
<line x1="212.04" y1="339.11" x2="212.04" y2="348.71" stroke="#999" stroke-width="1"/>
<line x1="212.04" y1="340.71" x2="212.04" y2="346.63" stroke="#c33" stroke-width="2"/>
<line x1="218.95" y1="338.34" x2="218.95" y2="350.87" stroke="#999" stroke-width="1"/>
<line x1="218.95" y1="346.21" x2="218.95" y2="346.63" stroke="#2a6" stroke-width="2"/>
<line x1="225.86" y1="343.91" x2="225.86" y2="380.11" stroke="#999" stroke-width="1"/>
<line x1="225.86" y1="346.21" x2="225.86" y2="352.75" stroke="#c33" stroke-width="2"/>
<line x1="232.77" y1="343.77" x2="232.77" y2="366.82" stroke="#999" stroke-width="1"/>
<line x1="232.77" y1="352.75" x2="232.77" y2="363.75" stroke="#c33" stroke-width="2"/>
<line x1="239.69" y1="352.47" x2="239.69" y2="374.75" stroke="#999" stroke-width="1"/>
<line x1="239.69" y1="362.36" x2="239.69" y2="363.68" stroke="#2a6" stroke-width="2"/>
<line x1="246.60" y1="346.76" x2="246.60" y2="369.25" stroke="#999" stroke-width="1"/>
<line x1="246.60" y1="350.25" x2="246.60" y2="362.43" stroke="#2a6" stroke-width="2"/>
<line x1="253.51" y1="349.13" x2="253.51" y2="376.42" stroke="#999" stroke-width="1"/>
<line x1="253.51" y1="350.32" x2="253.51" y2="371.13" stroke="#c33" stroke-width="2"/>
<line x1="260.42" y1="332.21" x2="260.42" y2="377.82" stroke="#999" stroke-width="1"/>
<line x1="260.42" y1="338.41" x2="260.42" y2="371.20" stroke="#2a6" stroke-width="2"/>
<line x1="267.33" y1="280.00" x2="267.33" y2="351.71" stroke="#999" stroke-width="1"/>
<line x1="267.33" y1="285.08" x2="267.33" y2="337.57" stroke="#2a6" stroke-width="2"/>
<line x1="274.24" y1="238.08" x2="274.24" y2="303.81" stroke="#999" stroke-width="1"/>
<line x1="274.24" y1="251.38" x2="274.24" y2="284.94" stroke="#2a6" stroke-width="2"/>
<line x1="281.15" y1="246.23" x2="281.15" y2="273.73" stroke="#999" stroke-width="1"/>
<line x1="281.15" y1="251.45" x2="281.15" y2="267.81" stroke="#c33" stroke-width="2"/>
<line x1="288.06" y1="243.16" x2="288.06" y2="271.22" stroke="#999" stroke-width="1"/>
<line x1="288.06" y1="258.97" x2="288.06" y2="268.44" stroke="#2a6" stroke-width="2"/>
<line x1="294.97" y1="233.00" x2="294.97" y2="283.96" stroke="#999" stroke-width="1"/>
<line x1="294.97" y1="250.89" x2="294.97" y2="258.90" stroke="#2a6" stroke-width="2"/>
<line x1="301.88" y1="250.54" x2="301.88" y2="298.93" stroke="#999" stroke-width="1"/>
<line x1="301.88" y1="250.75" x2="301.88" y2="283.13" stroke="#c33" stroke-width="2"/>
<line x1="308.80" y1="271.15" x2="308.80" y2="292.88" stroke="#999" stroke-width="1"/>
<line x1="308.80" y1="282.78" x2="308.80" y2="290.93" stroke="#c33" stroke-width="2"/>
<line x1="315.71" y1="282.15" x2="315.71" y2="293.78" stroke="#999" stroke-width="1"/>
<line x1="315.71" y1="282.71" x2="315.71" y2="291.41" stroke="#2a6" stroke-width="2"/>
<line x1="322.62" y1="273.80" x2="322.62" y2="287.72" stroke="#999" stroke-width="1"/>
<line x1="322.62" y1="278.46" x2="322.62" y2="286.12" stroke="#2a6" stroke-width="2"/>
<line x1="329.53" y1="267.81" x2="329.53" y2="282.71" stroke="#999" stroke-width="1"/>
<line x1="329.53" y1="268.58" x2="329.53" y2="278.88" stroke="#2a6" stroke-width="2"/>
<line x1="336.44" y1="266.63" x2="336.44" y2="280.55" stroke="#999" stroke-width="1"/>
<line x1="336.44" y1="268.86" x2="336.44" y2="278.46" stroke="#c33" stroke-width="2"/>
<line x1="343.35" y1="272.13" x2="343.35" y2="297.54" stroke="#999" stroke-width="1"/>
<line x1="343.35" y1="278.53" x2="343.35" y2="284.38" stroke="#c33" stroke-width="2"/>
<line x1="350.26" y1="268.86" x2="350.26" y2="288.49" stroke="#999" stroke-width="1"/>
<line x1="350.26" y1="275.82" x2="350.26" y2="284.66" stroke="#2a6" stroke-width="2"/>
<line x1="357.17" y1="275.40" x2="357.17" y2="289.88" stroke="#999" stroke-width="1"/>
<line x1="357.17" y1="275.82" x2="357.17" y2="287.72" stroke="#c33" stroke-width="2"/>
<line x1="364.08" y1="287.38" x2="364.08" y2="297.26" stroke="#999" stroke-width="1"/>
<line x1="364.08" y1="287.65" x2="364.08" y2="291.07" stroke="#c33" stroke-width="2"/>
<line x1="370.99" y1="284.52" x2="370.99" y2="302.90" stroke="#999" stroke-width="1"/>
<line x1="370.99" y1="291.20" x2="370.99" y2="293.01" stroke="#c33" stroke-width="2"/>
<line x1="377.91" y1="292.04" x2="377.91" y2="315.85" stroke="#999" stroke-width="1"/>
<line x1="377.91" y1="293.15" x2="377.91" y2="304.36" stroke="#c33" stroke-width="2"/>
<line x1="384.82" y1="291.48" x2="384.82" y2="309.24" stroke="#999" stroke-width="1"/>
<line x1="384.82" y1="304.29" x2="384.82" y2="307.15" stroke="#c33" stroke-width="2"/>
<line x1="391.73" y1="304.50" x2="391.73" y2="317.17" stroke="#999" stroke-width="1"/>
<line x1="391.73" y1="307.15" x2="391.73" y2="314.39" stroke="#c33" stroke-width="2"/>
<line x1="398.64" y1="311.26" x2="398.64" y2="331.66" stroke="#999" stroke-width="1"/>
<line x1="398.64" y1="313.35" x2="398.64" y2="314.39" stroke="#2a6" stroke-width="2"/>
<line x1="405.55" y1="313.35" x2="405.55" y2="361.94" stroke="#999" stroke-width="1"/>
<line x1="405.55" y1="313.41" x2="405.55" y2="353.94" stroke="#c33" stroke-width="2"/>
<line x1="412.46" y1="347.11" x2="412.46" y2="387.43" stroke="#999" stroke-width="1"/>
<line x1="412.46" y1="354.01" x2="412.46" y2="360.06" stroke="#c33" stroke-width="2"/>
<line x1="419.37" y1="351.08" x2="419.37" y2="389.86" stroke="#999" stroke-width="1"/>
<line x1="419.37" y1="360.20" x2="419.37" y2="368.84" stroke="#c33" stroke-width="2"/>
<line x1="426.28" y1="358.25" x2="426.28" y2="403.09" stroke="#999" stroke-width="1"/>
<line x1="426.28" y1="368.70" x2="426.28" y2="393.07" stroke="#c33" stroke-width="2"/>
<line x1="433.19" y1="363.61" x2="433.19" y2="413.88" stroke="#999" stroke-width="1"/>
<line x1="433.19" y1="393.27" x2="433.19" y2="397.10" stroke="#c33" stroke-width="2"/>
<line x1="440.10" y1="387.29" x2="440.10" y2="430.94" stroke="#999" stroke-width="1"/>
<line x1="440.10" y1="397.03" x2="440.10" y2="414.79" stroke="#c33" stroke-width="2"/>
<line x1="447.02" y1="410.82" x2="447.02" y2="435.54" stroke="#999" stroke-width="1"/>
<line x1="447.02" y1="414.86" x2="447.02" y2="434.00" stroke="#c33" stroke-width="2"/>
<line x1="453.93" y1="427.60" x2="453.93" y2="459.83" stroke="#999" stroke-width="1"/>
<line x1="453.93" y1="433.93" x2="453.93" y2="439.64" stroke="#c33" stroke-width="2"/>
<line x1="460.84" y1="430.24" x2="460.84" y2="446.19" stroke="#999" stroke-width="1"/>
<line x1="460.84" y1="439.43" x2="460.84" y2="443.19" stroke="#c33" stroke-width="2"/>
<line x1="467.75" y1="435.12" x2="467.75" y2="449.60" stroke="#999" stroke-width="1"/>
<line x1="467.75" y1="438.74" x2="467.75" y2="443.33" stroke="#2a6" stroke-width="2"/>
<line x1="474.66" y1="425.65" x2="474.66" y2="441.66" stroke="#999" stroke-width="1"/>
<line x1="474.66" y1="426.97" x2="474.66" y2="438.88" stroke="#2a6" stroke-width="2"/>
<line x1="481.57" y1="403.79" x2="481.57" y2="455.17" stroke="#999" stroke-width="1"/>
<line x1="481.57" y1="409.50" x2="481.57" y2="423.91" stroke="#2a6" stroke-width="2"/>
<line x1="488.48" y1="397.87" x2="488.48" y2="415.90" stroke="#999" stroke-width="1"/>
<line x1="488.48" y1="409.77" x2="488.48" y2="415.90" stroke="#c33" stroke-width="2"/>
<line x1="495.39" y1="405.88" x2="495.39" y2="425.16" stroke="#999" stroke-width="1"/>
<line x1="495.39" y1="409.08" x2="495.39" y2="415.83" stroke="#2a6" stroke-width="2"/>
<line x1="502.30" y1="402.39" x2="502.30" y2="428.57" stroke="#999" stroke-width="1"/>
<line x1="502.30" y1="409.08" x2="502.30" y2="428.23" stroke="#c33" stroke-width="2"/>
<line x1="509.21" y1="425.65" x2="509.21" y2="452.87" stroke="#999" stroke-width="1"/>
<line x1="509.21" y1="427.95" x2="509.21" y2="443.75" stroke="#c33" stroke-width="2"/>
<line x1="516.13" y1="439.92" x2="516.13" y2="451.76" stroke="#999" stroke-width="1"/>
<line x1="516.13" y1="440.97" x2="516.13" y2="443.96" stroke="#2a6" stroke-width="2"/>
<line x1="523.04" y1="413.19" x2="523.04" y2="441.18" stroke="#999" stroke-width="1"/>
<line x1="523.04" y1="417.22" x2="523.04" y2="441.18" stroke="#2a6" stroke-width="2"/>
<line x1="529.95" y1="410.89" x2="529.95" y2="421.61" stroke="#999" stroke-width="1"/>
<line x1="529.95" y1="417.09" x2="529.95" y2="420.43" stroke="#c33" stroke-width="2"/>
<line x1="536.86" y1="402.81" x2="536.86" y2="427.32" stroke="#999" stroke-width="1"/>
<line x1="536.86" y1="419.80" x2="536.86" y2="420.43" stroke="#2a6" stroke-width="2"/>
<line x1="543.77" y1="416.11" x2="543.77" y2="439.64" stroke="#999" stroke-width="1"/>
<line x1="543.77" y1="419.87" x2="543.77" y2="435.12" stroke="#c33" stroke-width="2"/>
<line x1="550.68" y1="407.96" x2="550.68" y2="438.67" stroke="#999" stroke-width="1"/>
<line x1="550.68" y1="424.05" x2="550.68" y2="435.05" stroke="#2a6" stroke-width="2"/>
<line x1="557.59" y1="414.09" x2="557.59" y2="431.85" stroke="#999" stroke-width="1"/>
<line x1="557.59" y1="414.65" x2="557.59" y2="424.12" stroke="#2a6" stroke-width="2"/>
<line x1="564.50" y1="413.53" x2="564.50" y2="431.22" stroke="#999" stroke-width="1"/>
<line x1="564.50" y1="414.65" x2="564.50" y2="425.37" stroke="#c33" stroke-width="2"/>
<line x1="571.41" y1="422.38" x2="571.41" y2="443.54" stroke="#999" stroke-width="1"/>
<line x1="571.41" y1="425.37" x2="571.41" y2="437.69" stroke="#c33" stroke-width="2"/>
<line x1="578.32" y1="424.81" x2="578.32" y2="453.29" stroke="#999" stroke-width="1"/>
<line x1="578.32" y1="437.83" x2="578.32" y2="439.30" stroke="#c33" stroke-width="2"/>
<line x1="585.24" y1="438.25" x2="585.24" y2="463.87" stroke="#999" stroke-width="1"/>
<line x1="585.24" y1="439.23" x2="585.24" y2="462.48" stroke="#c33" stroke-width="2"/>
<line x1="592.15" y1="419.17" x2="592.15" y2="470.00" stroke="#999" stroke-width="1"/>
<line x1="592.15" y1="422.31" x2="592.15" y2="462.55" stroke="#2a6" stroke-width="2"/>
<line x1="599.06" y1="365.70" x2="599.06" y2="424.47" stroke="#999" stroke-width="1"/>
<line x1="599.06" y1="370.99" x2="599.06" y2="422.31" stroke="#2a6" stroke-width="2"/>
<line x1="605.97" y1="347.32" x2="605.97" y2="377.75" stroke="#999" stroke-width="1"/>
<line x1="605.97" y1="370.99" x2="605.97" y2="371.41" stroke="#c33" stroke-width="2"/>
<line x1="612.88" y1="356.79" x2="612.88" y2="378.44" stroke="#999" stroke-width="1"/>
<line x1="612.88" y1="356.79" x2="612.88" y2="371.41" stroke="#2a6" stroke-width="2"/>
<line x1="619.79" y1="355.26" x2="619.79" y2="371.48" stroke="#999" stroke-width="1"/>
<line x1="619.79" y1="356.44" x2="619.79" y2="368.21" stroke="#c33" stroke-width="2"/>
<line x1="626.70" y1="364.31" x2="626.70" y2="375.17" stroke="#999" stroke-width="1"/>
<line x1="626.70" y1="365.28" x2="626.70" y2="368.28" stroke="#2a6" stroke-width="2"/>
<line x1="633.61" y1="365.28" x2="633.61" y2="371.20" stroke="#999" stroke-width="1"/>
<line x1="633.61" y1="365.28" x2="633.61" y2="369.53" stroke="#c33" stroke-width="2"/>
<line x1="640.52" y1="366.19" x2="640.52" y2="373.01" stroke="#999" stroke-width="1"/>
<line x1="640.52" y1="366.96" x2="640.52" y2="370.02" stroke="#2a6" stroke-width="2"/>
<line x1="647.43" y1="361.39" x2="647.43" y2="370.99" stroke="#999" stroke-width="1"/>
<line x1="647.43" y1="364.38" x2="647.43" y2="366.75" stroke="#2a6" stroke-width="2"/>
<line x1="654.35" y1="353.10" x2="654.35" y2="373.99" stroke="#999" stroke-width="1"/>
<line x1="654.35" y1="364.10" x2="654.35" y2="372.04" stroke="#c33" stroke-width="2"/>
<line x1="661.26" y1="365.01" x2="661.26" y2="381.16" stroke="#999" stroke-width="1"/>
<line x1="661.26" y1="371.34" x2="661.26" y2="372.04" stroke="#2a6" stroke-width="2"/>
<line x1="668.17" y1="369.88" x2="668.17" y2="379.07" stroke="#999" stroke-width="1"/>
<line x1="668.17" y1="371.41" x2="668.17" y2="378.30" stroke="#c33" stroke-width="2"/>
<line x1="675.08" y1="373.36" x2="675.08" y2="385.13" stroke="#999" stroke-width="1"/>
<line x1="675.08" y1="378.30" x2="675.08" y2="378.65" stroke="#c33" stroke-width="2"/>
<line x1="681.99" y1="375.10" x2="681.99" y2="385.68" stroke="#999" stroke-width="1"/>
<line x1="681.99" y1="378.86" x2="681.99" y2="380.74" stroke="#c33" stroke-width="2"/>
<line x1="688.90" y1="370.16" x2="688.90" y2="382.62" stroke="#999" stroke-width="1"/>
<line x1="688.90" y1="379.42" x2="688.90" y2="380.74" stroke="#2a6" stroke-width="2"/>
<line x1="695.81" y1="366.40" x2="695.81" y2="381.58" stroke="#999" stroke-width="1"/>
<line x1="695.81" y1="372.53" x2="695.81" y2="379.42" stroke="#2a6" stroke-width="2"/>
<line x1="702.72" y1="369.46" x2="702.72" y2="381.65" stroke="#999" stroke-width="1"/>
<line x1="702.72" y1="372.60" x2="702.72" y2="374.06" stroke="#c33" stroke-width="2"/>
<line x1="709.63" y1="355.68" x2="709.63" y2="374.82" stroke="#999" stroke-width="1"/>
<line x1="709.63" y1="361.39" x2="709.63" y2="373.99" stroke="#2a6" stroke-width="2"/>
<line x1="716.54" y1="354.77" x2="716.54" y2="368.42" stroke="#999" stroke-width="1"/>
<line x1="716.54" y1="361.18" x2="716.54" y2="363.68" stroke="#c33" stroke-width="2"/>
<line x1="723.46" y1="361.39" x2="723.46" y2="375.38" stroke="#999" stroke-width="1"/>
<line x1="723.46" y1="363.68" x2="723.46" y2="370.16" stroke="#c33" stroke-width="2"/>
<line x1="730.37" y1="365.28" x2="730.37" y2="378.37" stroke="#999" stroke-width="1"/>
<line x1="730.37" y1="370.02" x2="730.37" y2="375.80" stroke="#c33" stroke-width="2"/>
<line x1="737.28" y1="277.91" x2="737.28" y2="381.99" stroke="#999" stroke-width="1"/>
<line x1="737.28" y1="311.53" x2="737.28" y2="375.73" stroke="#2a6" stroke-width="2"/>
<line x1="744.19" y1="196.59" x2="744.19" y2="317.04" stroke="#999" stroke-width="1"/>
<line x1="744.19" y1="218.17" x2="744.19" y2="311.33" stroke="#2a6" stroke-width="2"/>
<line x1="751.10" y1="208.56" x2="751.10" y2="256.60" stroke="#999" stroke-width="1"/>
<line x1="751.10" y1="218.31" x2="751.10" y2="241.91" stroke="#c33" stroke-width="2"/>
<line x1="758.01" y1="226.66" x2="758.01" y2="250.06" stroke="#999" stroke-width="1"/>
<line x1="758.01" y1="241.91" x2="758.01" y2="243.51" stroke="#c33" stroke-width="2"/>
<line x1="764.92" y1="237.11" x2="764.92" y2="259.66" stroke="#999" stroke-width="1"/>
<line x1="764.92" y1="243.44" x2="764.92" y2="257.09" stroke="#c33" stroke-width="2"/>
<line x1="771.83" y1="242.19" x2="771.83" y2="261.06" stroke="#999" stroke-width="1"/>
<line x1="771.83" y1="253.54" x2="771.83" y2="257.16" stroke="#2a6" stroke-width="2"/>
<line x1="778.74" y1="245.95" x2="778.74" y2="256.67" stroke="#999" stroke-width="1"/>
<line x1="778.74" y1="246.78" x2="778.74" y2="253.54" stroke="#2a6" stroke-width="2"/>
<line x1="785.65" y1="241.35" x2="785.65" y2="251.94" stroke="#999" stroke-width="1"/>
<line x1="785.65" y1="246.30" x2="785.65" y2="246.58" stroke="#2a6" stroke-width="2"/>
<line x1="792.57" y1="245.60" x2="792.57" y2="254.72" stroke="#999" stroke-width="1"/>
<line x1="792.57" y1="246.37" x2="792.57" y2="250.82" stroke="#c33" stroke-width="2"/>
<line x1="799.48" y1="250.82" x2="799.48" y2="257.65" stroke="#999" stroke-width="1"/>
<line x1="799.48" y1="254.16" x2="799.48" y2="255.56" stroke="#c33" stroke-width="2"/>
<line x1="806.39" y1="246.02" x2="806.39" y2="261.68" stroke="#999" stroke-width="1"/>
<line x1="806.39" y1="247.48" x2="806.39" y2="255.35" stroke="#2a6" stroke-width="2"/>
<line x1="813.30" y1="244.83" x2="813.30" y2="261.61" stroke="#999" stroke-width="1"/>
<line x1="813.30" y1="247.41" x2="813.30" y2="254.03" stroke="#c33" stroke-width="2"/>
<line x1="820.21" y1="240.31" x2="820.21" y2="255.14" stroke="#999" stroke-width="1"/>
<line x1="820.21" y1="241.77" x2="820.21" y2="253.89" stroke="#2a6" stroke-width="2"/>
<line x1="827.12" y1="223.67" x2="827.12" y2="241.84" stroke="#999" stroke-width="1"/>
<line x1="827.12" y1="224.57" x2="827.12" y2="241.77" stroke="#2a6" stroke-width="2"/>
<line x1="834.03" y1="216.99" x2="834.03" y2="227.50" stroke="#999" stroke-width="1"/>
<line x1="834.03" y1="220.12" x2="834.03" y2="224.37" stroke="#2a6" stroke-width="2"/>
<line x1="840.94" y1="219.28" x2="840.94" y2="231.54" stroke="#999" stroke-width="1"/>
<line x1="840.94" y1="220.12" x2="840.94" y2="224.23" stroke="#c33" stroke-width="2"/>
<line x1="847.85" y1="199.30" x2="847.85" y2="225.20" stroke="#999" stroke-width="1"/>
<line x1="847.85" y1="205.64" x2="847.85" y2="224.09" stroke="#2a6" stroke-width="2"/>
<line x1="854.76" y1="195.68" x2="854.76" y2="221.86" stroke="#999" stroke-width="1"/>
<line x1="854.76" y1="200.55" x2="854.76" y2="205.64" stroke="#2a6" stroke-width="2"/>
<line x1="861.68" y1="184.75" x2="861.68" y2="204.45" stroke="#999" stroke-width="1"/>
<line x1="861.68" y1="192.13" x2="861.68" y2="200.55" stroke="#2a6" stroke-width="2"/>
<line x1="868.59" y1="187.60" x2="868.59" y2="203.27" stroke="#999" stroke-width="1"/>
<line x1="868.59" y1="191.78" x2="868.59" y2="192.34" stroke="#c33" stroke-width="2"/>
<line x1="875.50" y1="172.63" x2="875.50" y2="193.94" stroke="#999" stroke-width="1"/>
<line x1="875.50" y1="181.13" x2="875.50" y2="192.27" stroke="#2a6" stroke-width="2"/>
<line x1="882.41" y1="178.20" x2="882.41" y2="189.69" stroke="#999" stroke-width="1"/>
<line x1="882.41" y1="181.06" x2="882.41" y2="182.31" stroke="#c33" stroke-width="2"/>
<line x1="889.32" y1="179.25" x2="889.32" y2="200.76" stroke="#999" stroke-width="1"/>
<line x1="889.32" y1="182.24" x2="889.32" y2="191.78" stroke="#c33" stroke-width="2"/>
<line x1="896.23" y1="165.46" x2="896.23" y2="248.39" stroke="#999" stroke-width="1"/>
<line x1="896.23" y1="191.78" x2="896.23" y2="233.83" stroke="#c33" stroke-width="2"/>
<line x1="903.14" y1="226.04" x2="903.14" y2="304.50" stroke="#999" stroke-width="1"/>
<line x1="903.14" y1="233.56" x2="903.14" y2="289.81" stroke="#c33" stroke-width="2"/>
<line x1="910.05" y1="241.56" x2="910.05" y2="292.18" stroke="#999" stroke-width="1"/>
<line x1="910.05" y1="250.82" x2="910.05" y2="290.30" stroke="#2a6" stroke-width="2"/>
<line x1="916.96" y1="246.71" x2="916.96" y2="278.25" stroke="#999" stroke-width="1"/>
<line x1="916.96" y1="250.68" x2="916.96" y2="256.46" stroke="#c33" stroke-width="2"/>
<line x1="923.87" y1="250.54" x2="923.87" y2="269.48" stroke="#999" stroke-width="1"/>
<line x1="923.87" y1="256.39" x2="923.87" y2="262.52" stroke="#c33" stroke-width="2"/>
<line x1="930.79" y1="257.99" x2="930.79" y2="278.39" stroke="#999" stroke-width="1"/>
<line x1="930.79" y1="262.52" x2="930.79" y2="269.20" stroke="#c33" stroke-width="2"/>
<line x1="937.70" y1="257.37" x2="937.70" y2="269.97" stroke="#999" stroke-width="1"/>
<line x1="937.70" y1="260.08" x2="937.70" y2="269.20" stroke="#2a6" stroke-width="2"/>
<line x1="944.61" y1="257.02" x2="944.61" y2="279.51" stroke="#999" stroke-width="1"/>
<line x1="944.61" y1="260.08" x2="944.61" y2="276.37" stroke="#c33" stroke-width="2"/>
<line x1="951.52" y1="269.62" x2="951.52" y2="280.62" stroke="#999" stroke-width="1"/>
<line x1="951.52" y1="276.51" x2="951.52" y2="276.86" stroke="#c33" stroke-width="2"/>
<line x1="958.43" y1="265.93" x2="958.43" y2="276.03" stroke="#999" stroke-width="1"/>
<line x1="958.43" y1="270.53" x2="958.43" y2="273.31" stroke="#2a6" stroke-width="2"/>
<line x1="965.34" y1="262.94" x2="965.34" y2="281.11" stroke="#999" stroke-width="1"/>
<line x1="965.34" y1="270.67" x2="965.34" y2="275.54" stroke="#c33" stroke-width="2"/>
<line x1="972.25" y1="273.80" x2="972.25" y2="289.05" stroke="#999" stroke-width="1"/>
<line x1="972.25" y1="275.61" x2="972.25" y2="283.82" stroke="#c33" stroke-width="2"/>
<line x1="979.16" y1="265.23" x2="979.16" y2="297.26" stroke="#999" stroke-width="1"/>
<line x1="979.16" y1="267.11" x2="979.16" y2="284.10" stroke="#2a6" stroke-width="2"/>
<line x1="986.07" y1="257.58" x2="986.07" y2="270.04" stroke="#999" stroke-width="1"/>
<line x1="986.07" y1="262.80" x2="986.07" y2="267.11" stroke="#2a6" stroke-width="2"/>
<line x1="992.98" y1="254.51" x2="992.98" y2="266.84" stroke="#999" stroke-width="1"/>
<line x1="992.98" y1="254.51" x2="992.98" y2="263.01" stroke="#2a6" stroke-width="2"/>
<line x1="999.90" y1="245.53" x2="999.90" y2="257.78" stroke="#999" stroke-width="1"/>
<line x1="999.90" y1="252.35" x2="999.90" y2="254.65" stroke="#2a6" stroke-width="2"/>
<line x1="1006.81" y1="221.72" x2="1006.81" y2="253.05" stroke="#999" stroke-width="1"/>
<line x1="1006.81" y1="223.95" x2="1006.81" y2="252.28" stroke="#2a6" stroke-width="2"/>
<line x1="1013.72" y1="217.68" x2="1013.72" y2="232.86" stroke="#999" stroke-width="1"/>
<line x1="1013.72" y1="224.23" x2="1013.72" y2="226.94" stroke="#c33" stroke-width="2"/>
<line x1="1020.63" y1="220.05" x2="1020.63" y2="238.99" stroke="#999" stroke-width="1"/>
<line x1="1020.63" y1="220.33" x2="1020.63" y2="227.01" stroke="#2a6" stroke-width="2"/>
<line x1="1027.54" y1="212.81" x2="1027.54" y2="231.61" stroke="#999" stroke-width="1"/>
<line x1="1027.54" y1="220.47" x2="1027.54" y2="229.10" stroke="#c33" stroke-width="2"/>
<line x1="1034.45" y1="225.76" x2="1034.45" y2="240.24" stroke="#999" stroke-width="1"/>
<line x1="1034.45" y1="229.38" x2="1034.45" y2="237.11" stroke="#c33" stroke-width="2"/>
<line x1="1041.36" y1="227.78" x2="1041.36" y2="239.68" stroke="#999" stroke-width="1"/>
<line x1="1041.36" y1="233.83" x2="1041.36" y2="237.11" stroke="#2a6" stroke-width="2"/>
<line x1="1048.27" y1="233.21" x2="1048.27" y2="257.99" stroke="#999" stroke-width="1"/>
<line x1="1048.27" y1="233.83" x2="1048.27" y2="242.19" stroke="#c33" stroke-width="2"/>
<line x1="1055.18" y1="182.17" x2="1055.18" y2="243.09" stroke="#999" stroke-width="1"/>
<line x1="1055.18" y1="188.51" x2="1055.18" y2="242.05" stroke="#2a6" stroke-width="2"/>
<line x1="1062.09" y1="114.36" x2="1062.09" y2="192.34" stroke="#999" stroke-width="1"/>
<line x1="1062.09" y1="134.83" x2="1062.09" y2="188.51" stroke="#2a6" stroke-width="2"/>
<line x1="1069.01" y1="87.83" x2="1069.01" y2="138.94" stroke="#999" stroke-width="1"/>
<line x1="1069.01" y1="98.83" x2="1069.01" y2="134.97" stroke="#2a6" stroke-width="2"/>
<line x1="1075.92" y1="77.95" x2="1075.92" y2="132.39" stroke="#999" stroke-width="1"/>
<line x1="1075.92" y1="98.83" x2="1075.92" y2="119.23" stroke="#c33" stroke-width="2"/>
<line x1="1082.83" y1="107.88" x2="1082.83" y2="127.59" stroke="#999" stroke-width="1"/>
<line x1="1082.83" y1="109.97" x2="1082.83" y2="119.23" stroke="#2a6" stroke-width="2"/>
<line x1="1089.74" y1="96.95" x2="1089.74" y2="111.23" stroke="#999" stroke-width="1"/>
<line x1="1089.74" y1="104.05" x2="1089.74" y2="109.55" stroke="#2a6" stroke-width="2"/>
<line x1="1096.65" y1="102.59" x2="1096.65" y2="112.48" stroke="#999" stroke-width="1"/>
<line x1="1096.65" y1="103.92" x2="1096.65" y2="110.18" stroke="#c33" stroke-width="2"/>
<line x1="1103.56" y1="104.75" x2="1103.56" y2="127.87" stroke="#999" stroke-width="1"/>
<line x1="1103.56" y1="110.18" x2="1103.56" y2="127.31" stroke="#c33" stroke-width="2"/>
<line x1="1110.47" y1="123.83" x2="1110.47" y2="129.26" stroke="#999" stroke-width="1"/>
<line x1="1110.47" y1="124.73" x2="1110.47" y2="127.17" stroke="#2a6" stroke-width="2"/>
<line x1="1117.38" y1="113.11" x2="1117.38" y2="131.07" stroke="#999" stroke-width="1"/>
<line x1="1117.38" y1="115.82" x2="1117.38" y2="129.89" stroke="#2a6" stroke-width="2"/>
<line x1="1124.29" y1="99.32" x2="1124.29" y2="121.32" stroke="#999" stroke-width="1"/>
<line x1="1124.29" y1="99.32" x2="1124.29" y2="115.82" stroke="#2a6" stroke-width="2"/>
<line x1="1131.20" y1="84.84" x2="1131.20" y2="114.43" stroke="#999" stroke-width="1"/>
<line x1="1131.20" y1="99.46" x2="1131.20" y2="109.21" stroke="#c33" stroke-width="2"/>
<line x1="1138.12" y1="93.19" x2="1138.12" y2="110.95" stroke="#999" stroke-width="1"/>
<line x1="1138.12" y1="95.91" x2="1138.12" y2="109.69" stroke="#2a6" stroke-width="2"/>
<line x1="1145.03" y1="85.74" x2="1145.03" y2="97.37" stroke="#999" stroke-width="1"/>
<line x1="1145.03" y1="86.23" x2="1145.03" y2="95.98" stroke="#2a6" stroke-width="2"/>
<line x1="1151.94" y1="84.21" x2="1151.94" y2="96.47" stroke="#999" stroke-width="1"/>
<line x1="1151.94" y1="86.58" x2="1151.94" y2="90.90" stroke="#c33" stroke-width="2"/>
<line x1="1158.85" y1="90.76" x2="1158.85" y2="103.29" stroke="#999" stroke-width="1"/>
<line x1="1158.85" y1="90.90" x2="1158.85" y2="102.59" stroke="#c33" stroke-width="2"/>
<line x1="1165.76" y1="100.50" x2="1165.76" y2="114.57" stroke="#999" stroke-width="1"/>
<line x1="1165.76" y1="102.59" x2="1165.76" y2="108.30" stroke="#c33" stroke-width="2"/>
<line x1="1172.67" y1="80.17" x2="1172.67" y2="113.18" stroke="#999" stroke-width="1"/>
<line x1="1172.67" y1="80.17" x2="1172.67" y2="108.30" stroke="#2a6" stroke-width="2"/>
<line x1="1179.58" y1="69.80" x2="1179.58" y2="101.20" stroke="#999" stroke-width="1"/>
<line x1="1179.58" y1="72.79" x2="1179.58" y2="80.17" stroke="#2a6" stroke-width="2"/>
<line x1="1186.49" y1="46.96" x2="1186.49" y2="76.07" stroke="#999" stroke-width="1"/>
<line x1="1186.49" y1="54.69" x2="1186.49" y2="72.65" stroke="#2a6" stroke-width="2"/>
<line x1="1193.40" y1="40.00" x2="1193.40" y2="59.56" stroke="#999" stroke-width="1"/>
<line x1="1193.40" y1="51.07" x2="1193.40" y2="54.55" stroke="#2a6" stroke-width="2"/>
<line x1="1200.31" y1="51.07" x2="1200.31" y2="81.98" stroke="#999" stroke-width="1"/>
<line x1="1200.31" y1="51.07" x2="1200.31" y2="71.33" stroke="#c33" stroke-width="2"/>
<line x1="1207.23" y1="58.10" x2="1207.23" y2="79.89" stroke="#999" stroke-width="1"/>
<line x1="1207.23" y1="71.33" x2="1207.23" y2="72.86" stroke="#c33" stroke-width="2"/>
<line x1="1214.14" y1="52.25" x2="1214.14" y2="108.44" stroke="#999" stroke-width="1"/>
<line x1="1214.14" y1="72.79" x2="1214.14" y2="100.09" stroke="#c33" stroke-width="2"/>
<line x1="1221.05" y1="86.58" x2="1221.05" y2="137.13" stroke="#999" stroke-width="1"/>
<line x1="1221.05" y1="100.02" x2="1221.05" y2="130.37" stroke="#c33" stroke-width="2"/>
<line x1="1227.96" y1="103.29" x2="1227.96" y2="133.44" stroke="#999" stroke-width="1"/>
<line x1="1227.96" y1="109.28" x2="1227.96" y2="130.44" stroke="#2a6" stroke-width="2"/>
<line x1="1234.87" y1="96.47" x2="1234.87" y2="137.20" stroke="#999" stroke-width="1"/>
<line x1="1234.87" y1="108.93" x2="1234.87" y2="125.29" stroke="#c33" stroke-width="2"/>
<line x1="1241.78" y1="125.22" x2="1241.78" y2="143.25" stroke="#999" stroke-width="1"/>
<line x1="1241.78" y1="125.29" x2="1241.78" y2="125.71" stroke="#c33" stroke-width="2"/>
<line x1="1248.69" y1="114.01" x2="1248.69" y2="129.40" stroke="#999" stroke-width="1"/>
<line x1="1248.69" y1="119.51" x2="1248.69" y2="125.57" stroke="#2a6" stroke-width="2"/>
<line x1="1255.60" y1="119.30" x2="1255.60" y2="135.11" stroke="#999" stroke-width="1"/>
<line x1="1255.60" y1="119.30" x2="1255.60" y2="130.58" stroke="#c33" stroke-width="2"/>
<line x1="1262.51" y1="125.08" x2="1262.51" y2="140.05" stroke="#999" stroke-width="1"/>
<line x1="1262.51" y1="127.87" x2="1262.51" y2="130.51" stroke="#2a6" stroke-width="2"/>
<line x1="1269.42" y1="127.73" x2="1269.42" y2="134.13" stroke="#999" stroke-width="1"/>
<line x1="1269.42" y1="128.63" x2="1269.42" y2="131.90" stroke="#c33" stroke-width="2"/>
<line x1="1276.34" y1="142.28" x2="1276.34" y2="174.10" stroke="#999" stroke-width="1"/>
<line x1="1276.34" y1="148.96" x2="1276.34" y2="171.38" stroke="#c33" stroke-width="2"/>
<line x1="1283.25" y1="149.94" x2="1283.25" y2="179.88" stroke="#999" stroke-width="1"/>
<line x1="1283.25" y1="150.91" x2="1283.25" y2="171.24" stroke="#2a6" stroke-width="2"/>
<line x1="1290.16" y1="111.99" x2="1290.16" y2="151.68" stroke="#999" stroke-width="1"/>
<line x1="1290.16" y1="125.50" x2="1290.16" y2="150.91" stroke="#2a6" stroke-width="2"/>
<line x1="1297.07" y1="97.16" x2="1297.07" y2="135.45" stroke="#999" stroke-width="1"/>
<line x1="1297.07" y1="113.52" x2="1297.07" y2="125.64" stroke="#2a6" stroke-width="2"/>
<line x1="1303.98" y1="111.30" x2="1303.98" y2="131.70" stroke="#999" stroke-width="1"/>
<line x1="1303.98" y1="113.45" x2="1303.98" y2="117.00" stroke="#c33" stroke-width="2"/>
<line x1="1310.89" y1="109.28" x2="1310.89" y2="126.75" stroke="#999" stroke-width="1"/>
<line x1="1310.89" y1="117.07" x2="1310.89" y2="123.69" stroke="#c33" stroke-width="2"/>
<line x1="1317.80" y1="109.35" x2="1317.80" y2="136.01" stroke="#999" stroke-width="1"/>
<line x1="1317.80" y1="123.55" x2="1317.80" y2="128.77" stroke="#c33" stroke-width="2"/>
<line x1="1324.71" y1="120.21" x2="1324.71" y2="141.30" stroke="#999" stroke-width="1"/>
<line x1="1324.71" y1="128.77" x2="1324.71" y2="132.11" stroke="#c33" stroke-width="2"/>
<line x1="1331.62" y1="125.92" x2="1331.62" y2="146.11" stroke="#999" stroke-width="1"/>
<line x1="1331.62" y1="131.83" x2="1331.62" y2="142.90" stroke="#c33" stroke-width="2"/>
<line x1="1338.53" y1="132.95" x2="1338.53" y2="161.98" stroke="#999" stroke-width="1"/>
<line x1="1338.53" y1="142.77" x2="1338.53" y2="154.46" stroke="#c33" stroke-width="2"/>
<line x1="1345.45" y1="129.82" x2="1345.45" y2="159.48" stroke="#999" stroke-width="1"/>
<line x1="1345.45" y1="137.75" x2="1345.45" y2="154.46" stroke="#2a6" stroke-width="2"/>
<line x1="1352.36" y1="136.64" x2="1352.36" y2="167.83" stroke="#999" stroke-width="1"/>
<line x1="1352.36" y1="137.75" x2="1352.36" y2="161.91" stroke="#c33" stroke-width="2"/>
<line x1="1359.27" y1="159.20" x2="1359.27" y2="186.98" stroke="#999" stroke-width="1"/>
<line x1="1359.27" y1="161.91" x2="1359.27" y2="179.25" stroke="#c33" stroke-width="2"/>
<line x1="1366.18" y1="179.25" x2="1366.18" y2="199.02" stroke="#999" stroke-width="1"/>
<line x1="1366.18" y1="179.32" x2="1366.18" y2="185.65" stroke="#c33" stroke-width="2"/>
<line x1="1373.09" y1="179.81" x2="1373.09" y2="233.35" stroke="#999" stroke-width="1"/>
<line x1="1373.09" y1="185.86" x2="1373.09" y2="215.11" stroke="#c33" stroke-width="2"/>
<line x1="1380.00" y1="182.24" x2="1380.00" y2="234.67" stroke="#999" stroke-width="1"/>
<line x1="1380.00" y1="202.09" x2="1380.00" y2="215.11" stroke="#2a6" stroke-width="2"/>
<polygon points="225.9,388.1 218.9,374.1 232.9,374.1" fill="#0a5" stroke="#000" stroke-width="0.5"/>
<line x1="225.9" y1="380.1" x2="232.8" y2="363.8" stroke="#0a5" stroke-dasharray="3,2" stroke-width="1"/>
<text x="225.9" y="398.1" font-family="Helvetica" font-size="10" fill="#0a5" text-anchor="middle">24 L M/E c25</text>
<polygon points="295.0,225.0 288.0,239.0 302.0,239.0" fill="#a20" stroke="#000" stroke-width="0.5"/>
<line x1="295.0" y1="233.0" x2="301.9" y2="283.1" stroke="#a20" stroke-dasharray="3,2" stroke-width="1"/>
<text x="295.0" y="221.0" font-family="Helvetica" font-size="10" fill="#a20" text-anchor="middle">34 H M/E c35</text>
<polygon points="453.9,467.8 446.9,453.8 460.9,453.8" fill="#0a5" stroke="#000" stroke-width="0.5"/>
<line x1="453.9" y1="459.8" x2="481.6" y2="409.5" stroke="#0a5" stroke-dasharray="3,2" stroke-width="1"/>
<text x="453.9" y="477.8" font-family="Helvetica" font-size="10" fill="#0a5" text-anchor="middle">57 L M/I c61</text>
<polygon points="488.5,389.9 481.5,403.9 495.5,403.9" fill="#a20" stroke="#000" stroke-width="0.5"/>
<line x1="488.5" y1="397.9" x2="509.2" y2="443.8" stroke="#a20" stroke-dasharray="3,2" stroke-width="1"/>
<text x="488.5" y="385.9" font-family="Helvetica" font-size="10" fill="#a20" text-anchor="middle">62 H M/I c65</text>
<polygon points="592.1,478.0 585.1,464.0 599.1,464.0" fill="#0a5" stroke="#000" stroke-width="0.5"/>
<line x1="592.1" y1="470.0" x2="599.1" y2="371.0" stroke="#0a5" stroke-dasharray="3,2" stroke-width="1"/>
<text x="592.1" y="488.0" font-family="Helvetica" font-size="10" fill="#0a5" text-anchor="middle">77 L M/I c78</text>
<polygon points="744.2,188.6 737.2,202.6 751.2,202.6" fill="#a20" stroke="#000" stroke-width="0.5"/>
<line x1="744.2" y1="196.6" x2="751.1" y2="241.9" stroke="#a20" stroke-dasharray="3,2" stroke-width="1"/>
<text x="744.2" y="184.6" font-family="Helvetica" font-size="10" fill="#a20" text-anchor="middle">99 H M/E c100</text>
</svg>
