<svg xmlns="http://www.w3.org/2000/svg" width="1400" height="520">
<rect width="100%" height="100%" fill="#f7f7f4"/>
<text x="60" y="24" font-family="Helvetica" font-size="16" fill="#222">Window 04 AI-assisted draft pivots</text>
<line x1="60.00" y1="159.01" x2="60.00" y2="198.31" stroke="#999" stroke-width="1"/>
<line x1="60.00" y1="163.24" x2="60.00" y2="179.02" stroke="#2a6" stroke-width="2"/>
<line x1="66.91" y1="130.66" x2="66.91" y2="166.09" stroke="#999" stroke-width="1"/>
<line x1="66.91" y1="154.70" x2="66.91" y2="163.32" stroke="#2a6" stroke-width="2"/>
<line x1="73.82" y1="148.71" x2="73.82" y2="171.72" stroke="#999" stroke-width="1"/>
<line x1="73.82" y1="154.70" x2="73.82" y2="163.75" stroke="#c33" stroke-width="2"/>
<line x1="80.73" y1="144.91" x2="80.73" y2="170.84" stroke="#999" stroke-width="1"/>
<line x1="80.73" y1="151.48" x2="80.73" y2="163.75" stroke="#2a6" stroke-width="2"/>
<line x1="87.64" y1="136.29" x2="87.64" y2="151.55" stroke="#999" stroke-width="1"/>
<line x1="87.64" y1="145.78" x2="87.64" y2="151.48" stroke="#2a6" stroke-width="2"/>
<line x1="94.55" y1="130.51" x2="94.55" y2="151.99" stroke="#999" stroke-width="1"/>
<line x1="94.55" y1="136.14" x2="94.55" y2="145.13" stroke="#2a6" stroke-width="2"/>
<line x1="101.47" y1="131.25" x2="101.47" y2="145.20" stroke="#999" stroke-width="1"/>
<line x1="101.47" y1="134.68" x2="101.47" y2="143.74" stroke="#c33" stroke-width="2"/>
<line x1="108.38" y1="43.94" x2="108.38" y2="268.00" stroke="#999" stroke-width="1"/>
<line x1="108.38" y1="143.74" x2="108.38" y2="241.78" stroke="#c33" stroke-width="2"/>
<line x1="115.29" y1="133.44" x2="115.29" y2="144.83" stroke="#999" stroke-width="1"/>
<line x1="115.29" y1="134.17" x2="115.29" y2="142.64" stroke="#2a6" stroke-width="2"/>
<line x1="122.20" y1="117.15" x2="122.20" y2="134.31" stroke="#999" stroke-width="1"/>
<line x1="122.20" y1="121.68" x2="122.20" y2="134.31" stroke="#2a6" stroke-width="2"/>
<line x1="129.11" y1="114.22" x2="129.11" y2="137.31" stroke="#999" stroke-width="1"/>
<line x1="129.11" y1="122.04" x2="129.11" y2="136.21" stroke="#c33" stroke-width="2"/>
<line x1="136.02" y1="122.62" x2="136.02" y2="149.51" stroke="#999" stroke-width="1"/>
<line x1="136.02" y1="136.21" x2="136.02" y2="144.03" stroke="#c33" stroke-width="2"/>
<line x1="142.93" y1="125.77" x2="142.93" y2="150.68" stroke="#999" stroke-width="1"/>
<line x1="142.93" y1="128.47" x2="142.93" y2="144.03" stroke="#2a6" stroke-width="2"/>
<line x1="149.84" y1="105.90" x2="149.84" y2="133.14" stroke="#999" stroke-width="1"/>
<line x1="149.84" y1="106.77" x2="149.84" y2="128.47" stroke="#2a6" stroke-width="2"/>
<line x1="156.75" y1="105.09" x2="156.75" y2="117.88" stroke="#999" stroke-width="1"/>
<line x1="156.75" y1="106.55" x2="156.75" y2="114.44" stroke="#c33" stroke-width="2"/>
<line x1="163.66" y1="110.28" x2="163.66" y2="134.09" stroke="#999" stroke-width="1"/>
<line x1="163.66" y1="114.44" x2="163.66" y2="132.56" stroke="#c33" stroke-width="2"/>
<line x1="170.58" y1="96.18" x2="170.58" y2="133.58" stroke="#999" stroke-width="1"/>
<line x1="170.58" y1="103.85" x2="170.58" y2="132.56" stroke="#2a6" stroke-width="2"/>
<line x1="177.49" y1="81.86" x2="177.49" y2="105.31" stroke="#999" stroke-width="1"/>
<line x1="177.49" y1="103.92" x2="177.49" y2="104.51" stroke="#c33" stroke-width="2"/>
<line x1="184.40" y1="86.54" x2="184.40" y2="110.42" stroke="#999" stroke-width="1"/>
<line x1="184.40" y1="90.48" x2="184.40" y2="104.43" stroke="#2a6" stroke-width="2"/>
<line x1="191.31" y1="87.70" x2="191.31" y2="101.73" stroke="#999" stroke-width="1"/>
<line x1="191.31" y1="90.04" x2="191.31" y2="97.42" stroke="#c33" stroke-width="2"/>
<line x1="198.22" y1="77.26" x2="198.22" y2="106.92" stroke="#999" stroke-width="1"/>
<line x1="198.22" y1="78.21" x2="198.22" y2="97.42" stroke="#2a6" stroke-width="2"/>
<line x1="205.13" y1="75.87" x2="205.13" y2="95.74" stroke="#999" stroke-width="1"/>
<line x1="205.13" y1="77.62" x2="205.13" y2="93.40" stroke="#c33" stroke-width="2"/>
<line x1="212.04" y1="40.00" x2="212.04" y2="174.86" stroke="#999" stroke-width="1"/>
<line x1="212.04" y1="93.55" x2="212.04" y2="111.08" stroke="#c33" stroke-width="2"/>
<line x1="218.95" y1="77.70" x2="218.95" y2="167.33" stroke="#999" stroke-width="1"/>
<line x1="218.95" y1="111.08" x2="218.95" y2="164.05" stroke="#c33" stroke-width="2"/>
<line x1="225.86" y1="151.77" x2="225.86" y2="187.79" stroke="#999" stroke-width="1"/>
<line x1="225.86" y1="164.27" x2="225.86" y2="175.30" stroke="#c33" stroke-width="2"/>
<line x1="232.77" y1="171.50" x2="232.77" y2="252.30" stroke="#999" stroke-width="1"/>
<line x1="232.77" y1="175.44" x2="232.77" y2="244.26" stroke="#c33" stroke-width="2"/>
<line x1="239.69" y1="215.55" x2="239.69" y2="248.50" stroke="#999" stroke-width="1"/>
<line x1="239.69" y1="230.67" x2="239.69" y2="244.04" stroke="#2a6" stroke-width="2"/>
<line x1="246.60" y1="218.62" x2="246.60" y2="258.51" stroke="#999" stroke-width="1"/>
<line x1="246.60" y1="230.97" x2="246.60" y2="248.28" stroke="#c33" stroke-width="2"/>
<line x1="253.51" y1="239.95" x2="253.51" y2="264.94" stroke="#999" stroke-width="1"/>
<line x1="253.51" y1="248.43" x2="253.51" y2="263.18" stroke="#c33" stroke-width="2"/>
<line x1="260.42" y1="239.07" x2="260.42" y2="267.05" stroke="#999" stroke-width="1"/>
<line x1="260.42" y1="241.56" x2="260.42" y2="263.26" stroke="#2a6" stroke-width="2"/>
<line x1="267.33" y1="234.33" x2="267.33" y2="252.15" stroke="#999" stroke-width="1"/>
<line x1="267.33" y1="242.14" x2="267.33" y2="245.50" stroke="#c33" stroke-width="2"/>
<line x1="274.24" y1="120.80" x2="274.24" y2="271.88" stroke="#999" stroke-width="1"/>
<line x1="274.24" y1="245.87" x2="274.24" y2="251.79" stroke="#c33" stroke-width="2"/>
<line x1="281.15" y1="229.87" x2="281.15" y2="242.14" stroke="#999" stroke-width="1"/>
<line x1="281.15" y1="237.69" x2="281.15" y2="241.70" stroke="#2a6" stroke-width="2"/>
<line x1="288.06" y1="237.61" x2="288.06" y2="251.42" stroke="#999" stroke-width="1"/>
<line x1="288.06" y1="237.69" x2="288.06" y2="238.78" stroke="#c33" stroke-width="2"/>
<line x1="294.97" y1="226.22" x2="294.97" y2="246.67" stroke="#999" stroke-width="1"/>
<line x1="294.97" y1="234.98" x2="294.97" y2="238.34" stroke="#2a6" stroke-width="2"/>
<line x1="301.88" y1="211.24" x2="301.88" y2="238.12" stroke="#999" stroke-width="1"/>
<line x1="301.88" y1="216.94" x2="301.88" y2="234.91" stroke="#2a6" stroke-width="2"/>
<line x1="308.80" y1="209.34" x2="308.80" y2="221.91" stroke="#999" stroke-width="1"/>
<line x1="308.80" y1="212.26" x2="308.80" y2="216.94" stroke="#2a6" stroke-width="2"/>
<line x1="315.71" y1="198.75" x2="315.71" y2="217.30" stroke="#999" stroke-width="1"/>
<line x1="315.71" y1="199.55" x2="315.71" y2="212.34" stroke="#2a6" stroke-width="2"/>
<line x1="322.62" y1="197.87" x2="322.62" y2="210.22" stroke="#999" stroke-width="1"/>
<line x1="322.62" y1="199.62" x2="322.62" y2="202.77" stroke="#c33" stroke-width="2"/>
<line x1="329.53" y1="199.84" x2="329.53" y2="222.93" stroke="#999" stroke-width="1"/>
<line x1="329.53" y1="202.91" x2="329.53" y2="220.52" stroke="#c33" stroke-width="2"/>
<line x1="336.44" y1="210.14" x2="336.44" y2="227.97" stroke="#999" stroke-width="1"/>
<line x1="336.44" y1="220.52" x2="336.44" y2="221.18" stroke="#c33" stroke-width="2"/>
<line x1="343.35" y1="183.19" x2="343.35" y2="229.28" stroke="#999" stroke-width="1"/>
<line x1="343.35" y1="196.85" x2="343.35" y2="221.25" stroke="#2a6" stroke-width="2"/>
<line x1="350.26" y1="187.21" x2="350.26" y2="205.91" stroke="#999" stroke-width="1"/>
<line x1="350.26" y1="195.61" x2="350.26" y2="196.85" stroke="#2a6" stroke-width="2"/>
<line x1="357.17" y1="173.32" x2="357.17" y2="195.61" stroke="#999" stroke-width="1"/>
<line x1="357.17" y1="184.79" x2="357.17" y2="195.53" stroke="#2a6" stroke-width="2"/>
<line x1="364.08" y1="183.84" x2="364.08" y2="210.44" stroke="#999" stroke-width="1"/>
<line x1="364.08" y1="185.16" x2="364.08" y2="210.22" stroke="#c33" stroke-width="2"/>
<line x1="370.99" y1="208.17" x2="370.99" y2="224.97" stroke="#999" stroke-width="1"/>
<line x1="370.99" y1="210.44" x2="370.99" y2="215.84" stroke="#c33" stroke-width="2"/>
<line x1="377.91" y1="119.34" x2="377.91" y2="218.98" stroke="#999" stroke-width="1"/>
<line x1="377.91" y1="141.91" x2="377.91" y2="215.84" stroke="#2a6" stroke-width="2"/>
<line x1="384.82" y1="128.98" x2="384.82" y2="157.76" stroke="#999" stroke-width="1"/>
<line x1="384.82" y1="142.86" x2="384.82" y2="150.24" stroke="#c33" stroke-width="2"/>
<line x1="391.73" y1="126.35" x2="391.73" y2="157.76" stroke="#999" stroke-width="1"/>
<line x1="391.73" y1="136.43" x2="391.73" y2="150.46" stroke="#2a6" stroke-width="2"/>
<line x1="398.64" y1="126.86" x2="398.64" y2="154.33" stroke="#999" stroke-width="1"/>
<line x1="398.64" y1="136.36" x2="398.64" y2="150.46" stroke="#c33" stroke-width="2"/>
<line x1="405.55" y1="139.94" x2="405.55" y2="158.42" stroke="#999" stroke-width="1"/>
<line x1="405.55" y1="150.39" x2="405.55" y2="156.96" stroke="#c33" stroke-width="2"/>
<line x1="412.46" y1="152.07" x2="412.46" y2="170.55" stroke="#999" stroke-width="1"/>
<line x1="412.46" y1="157.03" x2="412.46" y2="168.14" stroke="#c33" stroke-width="2"/>
<line x1="419.37" y1="166.09" x2="419.37" y2="267.57" stroke="#999" stroke-width="1"/>
<line x1="419.37" y1="167.26" x2="419.37" y2="194.36" stroke="#c33" stroke-width="2"/>
<line x1="426.28" y1="183.41" x2="426.28" y2="241.56" stroke="#999" stroke-width="1"/>
<line x1="426.28" y1="194.00" x2="426.28" y2="231.33" stroke="#c33" stroke-width="2"/>
<line x1="433.19" y1="222.64" x2="433.19" y2="267.42" stroke="#999" stroke-width="1"/>
<line x1="433.19" y1="231.62" x2="433.19" y2="266.98" stroke="#c33" stroke-width="2"/>
<line x1="440.10" y1="120.58" x2="440.10" y2="378.39" stroke="#999" stroke-width="1"/>
<line x1="440.10" y1="136.94" x2="440.10" y2="258.94" stroke="#2a6" stroke-width="2"/>
<line x1="447.02" y1="229.21" x2="447.02" y2="248.28" stroke="#999" stroke-width="1"/>
<line x1="447.02" y1="238.34" x2="447.02" y2="242.07" stroke="#2a6" stroke-width="2"/>
<line x1="453.93" y1="229.21" x2="453.93" y2="247.26" stroke="#999" stroke-width="1"/>
<line x1="453.93" y1="229.50" x2="453.93" y2="238.42" stroke="#2a6" stroke-width="2"/>
<line x1="460.84" y1="228.92" x2="460.84" y2="295.18" stroke="#999" stroke-width="1"/>
<line x1="460.84" y1="229.58" x2="460.84" y2="273.12" stroke="#c33" stroke-width="2"/>
<line x1="467.75" y1="272.83" x2="467.75" y2="319.51" stroke="#999" stroke-width="1"/>
<line x1="467.75" y1="273.34" x2="467.75" y2="316.22" stroke="#c33" stroke-width="2"/>
<line x1="474.66" y1="295.18" x2="474.66" y2="323.23" stroke="#999" stroke-width="1"/>
<line x1="474.66" y1="301.97" x2="474.66" y2="316.15" stroke="#2a6" stroke-width="2"/>
<line x1="481.57" y1="293.06" x2="481.57" y2="309.43" stroke="#999" stroke-width="1"/>
<line x1="481.57" y1="302.12" x2="481.57" y2="305.26" stroke="#c33" stroke-width="2"/>
<line x1="488.48" y1="299.86" x2="488.48" y2="317.02" stroke="#999" stroke-width="1"/>
<line x1="488.48" y1="304.97" x2="488.48" y2="307.82" stroke="#c33" stroke-width="2"/>
<line x1="495.39" y1="269.17" x2="495.39" y2="334.56" stroke="#999" stroke-width="1"/>
<line x1="495.39" y1="283.27" x2="495.39" y2="307.82" stroke="#2a6" stroke-width="2"/>
<line x1="502.30" y1="284.00" x2="502.30" y2="326.45" stroke="#999" stroke-width="1"/>
<line x1="502.30" y1="284.00" x2="502.30" y2="321.48" stroke="#c33" stroke-width="2"/>
<line x1="509.21" y1="307.89" x2="509.21" y2="348.07" stroke="#999" stroke-width="1"/>
<line x1="509.21" y1="314.17" x2="509.21" y2="321.48" stroke="#2a6" stroke-width="2"/>
<line x1="516.13" y1="306.80" x2="516.13" y2="334.85" stroke="#999" stroke-width="1"/>
<line x1="516.13" y1="314.76" x2="516.13" y2="328.05" stroke="#c33" stroke-width="2"/>
<line x1="523.04" y1="295.55" x2="523.04" y2="332.88" stroke="#999" stroke-width="1"/>
<line x1="523.04" y1="298.39" x2="523.04" y2="328.05" stroke="#2a6" stroke-width="2"/>
<line x1="529.95" y1="290.94" x2="529.95" y2="316.22" stroke="#999" stroke-width="1"/>
<line x1="529.95" y1="298.39" x2="529.95" y2="312.93" stroke="#c33" stroke-width="2"/>
<line x1="536.86" y1="311.62" x2="536.86" y2="355.96" stroke="#999" stroke-width="1"/>
<line x1="536.86" y1="312.93" x2="536.86" y2="350.77" stroke="#c33" stroke-width="2"/>
<line x1="543.77" y1="312.79" x2="543.77" y2="370.50" stroke="#999" stroke-width="1"/>
<line x1="543.77" y1="314.98" x2="543.77" y2="350.99" stroke="#2a6" stroke-width="2"/>
<line x1="550.68" y1="168.28" x2="550.68" y2="315.71" stroke="#999" stroke-width="1"/>
<line x1="550.68" y1="173.47" x2="550.68" y2="315.56" stroke="#2a6" stroke-width="2"/>
<line x1="557.59" y1="123.14" x2="557.59" y2="183.99" stroke="#999" stroke-width="1"/>
<line x1="557.59" y1="171.57" x2="557.59" y2="173.47" stroke="#2a6" stroke-width="2"/>
<line x1="564.50" y1="137.24" x2="564.50" y2="180.19" stroke="#999" stroke-width="1"/>
<line x1="564.50" y1="146.73" x2="564.50" y2="171.43" stroke="#2a6" stroke-width="2"/>
<line x1="571.41" y1="119.78" x2="571.41" y2="146.66" stroke="#999" stroke-width="1"/>
<line x1="571.41" y1="124.96" x2="571.41" y2="146.37" stroke="#2a6" stroke-width="2"/>
<line x1="578.32" y1="119.41" x2="578.32" y2="138.26" stroke="#999" stroke-width="1"/>
<line x1="578.32" y1="124.96" x2="578.32" y2="130.37" stroke="#c33" stroke-width="2"/>
<line x1="585.24" y1="125.11" x2="585.24" y2="143.88" stroke="#999" stroke-width="1"/>
<line x1="585.24" y1="130.30" x2="585.24" y2="139.50" stroke="#c33" stroke-width="2"/>
<line x1="592.15" y1="124.01" x2="592.15" y2="139.43" stroke="#999" stroke-width="1"/>
<line x1="592.15" y1="130.95" x2="592.15" y2="139.43" stroke="#2a6" stroke-width="2"/>
<line x1="599.06" y1="129.57" x2="599.06" y2="138.19" stroke="#999" stroke-width="1"/>
<line x1="599.06" y1="130.66" x2="599.06" y2="135.92" stroke="#c33" stroke-width="2"/>
<line x1="605.97" y1="65.06" x2="605.97" y2="171.21" stroke="#999" stroke-width="1"/>
<line x1="605.97" y1="138.99" x2="605.97" y2="143.37" stroke="#2a6" stroke-width="2"/>
<line x1="612.88" y1="131.25" x2="612.88" y2="140.52" stroke="#999" stroke-width="1"/>
<line x1="612.88" y1="132.41" x2="612.88" y2="140.52" stroke="#2a6" stroke-width="2"/>
<line x1="619.79" y1="126.94" x2="619.79" y2="135.56" stroke="#999" stroke-width="1"/>
<line x1="619.79" y1="132.41" x2="619.79" y2="134.53" stroke="#c33" stroke-width="2"/>
<line x1="626.70" y1="125.84" x2="626.70" y2="146.66" stroke="#999" stroke-width="1"/>
<line x1="626.70" y1="134.46" x2="626.70" y2="144.47" stroke="#c33" stroke-width="2"/>
<line x1="633.61" y1="106.92" x2="633.61" y2="147.10" stroke="#999" stroke-width="1"/>
<line x1="633.61" y1="126.06" x2="633.61" y2="144.25" stroke="#2a6" stroke-width="2"/>
<line x1="640.52" y1="125.33" x2="640.52" y2="155.94" stroke="#999" stroke-width="1"/>
<line x1="640.52" y1="125.84" x2="640.52" y2="154.40" stroke="#c33" stroke-width="2"/>
<line x1="647.43" y1="135.56" x2="647.43" y2="154.84" stroke="#999" stroke-width="1"/>
<line x1="647.43" y1="145.56" x2="647.43" y2="154.55" stroke="#2a6" stroke-width="2"/>
<line x1="654.35" y1="145.42" x2="654.35" y2="158.35" stroke="#999" stroke-width="1"/>
<line x1="654.35" y1="145.42" x2="654.35" y2="154.84" stroke="#c33" stroke-width="2"/>
<line x1="661.26" y1="133.80" x2="661.26" y2="160.39" stroke="#999" stroke-width="1"/>
<line x1="661.26" y1="135.26" x2="661.26" y2="154.84" stroke="#2a6" stroke-width="2"/>
<line x1="668.17" y1="96.62" x2="668.17" y2="140.16" stroke="#999" stroke-width="1"/>
<line x1="668.17" y1="114.59" x2="668.17" y2="135.48" stroke="#2a6" stroke-width="2"/>
<line x1="675.08" y1="101.66" x2="675.08" y2="126.64" stroke="#999" stroke-width="1"/>
<line x1="675.08" y1="109.40" x2="675.08" y2="114.44" stroke="#2a6" stroke-width="2"/>
<line x1="681.99" y1="91.87" x2="681.99" y2="121.31" stroke="#999" stroke-width="1"/>
<line x1="681.99" y1="98.22" x2="681.99" y2="109.04" stroke="#2a6" stroke-width="2"/>
<line x1="688.90" y1="86.68" x2="688.90" y2="98.81" stroke="#999" stroke-width="1"/>
<line x1="688.90" y1="89.97" x2="688.90" y2="98.22" stroke="#2a6" stroke-width="2"/>
<line x1="695.81" y1="80.33" x2="695.81" y2="98.96" stroke="#999" stroke-width="1"/>
<line x1="695.81" y1="85.73" x2="695.81" y2="89.82" stroke="#2a6" stroke-width="2"/>
<line x1="702.72" y1="73.75" x2="702.72" y2="92.82" stroke="#999" stroke-width="1"/>
<line x1="702.72" y1="80.55" x2="702.72" y2="85.22" stroke="#2a6" stroke-width="2"/>
<line x1="709.63" y1="63.38" x2="709.63" y2="103.85" stroke="#999" stroke-width="1"/>
<line x1="709.63" y1="80.33" x2="709.63" y2="102.24" stroke="#c33" stroke-width="2"/>
<line x1="716.54" y1="92.45" x2="716.54" y2="147.32" stroke="#999" stroke-width="1"/>
<line x1="716.54" y1="102.32" x2="716.54" y2="113.64" stroke="#c33" stroke-width="2"/>
<line x1="723.46" y1="77.11" x2="723.46" y2="170.40" stroke="#999" stroke-width="1"/>
<line x1="723.46" y1="103.63" x2="723.46" y2="119.34" stroke="#c33" stroke-width="2"/>
<line x1="730.37" y1="108.82" x2="730.37" y2="156.16" stroke="#999" stroke-width="1"/>
<line x1="730.37" y1="119.48" x2="730.37" y2="148.27" stroke="#c33" stroke-width="2"/>
<line x1="737.28" y1="144.03" x2="737.28" y2="165.80" stroke="#999" stroke-width="1"/>
<line x1="737.28" y1="148.27" x2="737.28" y2="156.08" stroke="#c33" stroke-width="2"/>
<line x1="744.19" y1="124.67" x2="744.19" y2="156.67" stroke="#999" stroke-width="1"/>
<line x1="744.19" y1="127.37" x2="744.19" y2="156.08" stroke="#2a6" stroke-width="2"/>
<line x1="751.10" y1="123.06" x2="751.10" y2="136.51" stroke="#999" stroke-width="1"/>
<line x1="751.10" y1="127.23" x2="751.10" y2="131.10" stroke="#c33" stroke-width="2"/>
<line x1="758.01" y1="131.10" x2="758.01" y2="154.84" stroke="#999" stroke-width="1"/>
<line x1="758.01" y1="131.10" x2="758.01" y2="154.84" stroke="#c33" stroke-width="2"/>
<line x1="764.92" y1="135.19" x2="764.92" y2="154.99" stroke="#999" stroke-width="1"/>
<line x1="764.92" y1="141.33" x2="764.92" y2="154.99" stroke="#2a6" stroke-width="2"/>
<line x1="771.83" y1="131.39" x2="771.83" y2="211.31" stroke="#999" stroke-width="1"/>
<line x1="771.83" y1="137.97" x2="771.83" y2="191.88" stroke="#c33" stroke-width="2"/>
<line x1="778.74" y1="132.34" x2="778.74" y2="144.47" stroke="#999" stroke-width="1"/>
<line x1="778.74" y1="133.58" x2="778.74" y2="135.85" stroke="#c33" stroke-width="2"/>
<line x1="785.65" y1="134.17" x2="785.65" y2="149.07" stroke="#999" stroke-width="1"/>
<line x1="785.65" y1="135.77" x2="785.65" y2="143.30" stroke="#c33" stroke-width="2"/>
<line x1="792.57" y1="131.17" x2="792.57" y2="148.92" stroke="#999" stroke-width="1"/>
<line x1="792.57" y1="143.30" x2="792.57" y2="145.20" stroke="#c33" stroke-width="2"/>
<line x1="799.48" y1="133.73" x2="799.48" y2="153.31" stroke="#999" stroke-width="1"/>
<line x1="799.48" y1="145.20" x2="799.48" y2="149.80" stroke="#c33" stroke-width="2"/>
<line x1="806.39" y1="146.59" x2="806.39" y2="163.39" stroke="#999" stroke-width="1"/>
<line x1="806.39" y1="149.51" x2="806.39" y2="155.21" stroke="#c33" stroke-width="2"/>
<line x1="813.30" y1="151.85" x2="813.30" y2="165.43" stroke="#999" stroke-width="1"/>
<line x1="813.30" y1="152.94" x2="813.30" y2="155.13" stroke="#2a6" stroke-width="2"/>
<line x1="820.21" y1="142.50" x2="820.21" y2="160.91" stroke="#999" stroke-width="1"/>
<line x1="820.21" y1="143.30" x2="820.21" y2="153.16" stroke="#2a6" stroke-width="2"/>
<line x1="827.12" y1="139.50" x2="827.12" y2="164.12" stroke="#999" stroke-width="1"/>
<line x1="827.12" y1="143.30" x2="827.12" y2="160.69" stroke="#c33" stroke-width="2"/>
<line x1="834.03" y1="151.41" x2="834.03" y2="171.13" stroke="#999" stroke-width="1"/>
<line x1="834.03" y1="160.69" x2="834.03" y2="162.95" stroke="#c33" stroke-width="2"/>
<line x1="840.94" y1="156.30" x2="840.94" y2="174.49" stroke="#999" stroke-width="1"/>
<line x1="840.94" y1="157.25" x2="840.94" y2="162.80" stroke="#2a6" stroke-width="2"/>
<line x1="847.85" y1="130.37" x2="847.85" y2="157.62" stroke="#999" stroke-width="1"/>
<line x1="847.85" y1="147.46" x2="847.85" y2="157.25" stroke="#2a6" stroke-width="2"/>
<line x1="854.76" y1="146.22" x2="854.76" y2="193.56" stroke="#999" stroke-width="1"/>
<line x1="854.76" y1="147.39" x2="854.76" y2="191.15" stroke="#c33" stroke-width="2"/>
<line x1="861.68" y1="186.77" x2="861.68" y2="201.82" stroke="#999" stroke-width="1"/>
<line x1="861.68" y1="191.37" x2="861.68" y2="196.48" stroke="#c33" stroke-width="2"/>
<line x1="868.59" y1="188.59" x2="868.59" y2="207.37" stroke="#999" stroke-width="1"/>
<line x1="868.59" y1="196.04" x2="868.59" y2="206.27" stroke="#c33" stroke-width="2"/>
<line x1="875.50" y1="178.15" x2="875.50" y2="210.58" stroke="#999" stroke-width="1"/>
<line x1="875.50" y1="178.51" x2="875.50" y2="206.05" stroke="#2a6" stroke-width="2"/>
<line x1="882.41" y1="169.96" x2="882.41" y2="185.67" stroke="#999" stroke-width="1"/>
<line x1="882.41" y1="178.51" x2="882.41" y2="179.75" stroke="#c33" stroke-width="2"/>
<line x1="889.32" y1="170.91" x2="889.32" y2="189.03" stroke="#999" stroke-width="1"/>
<line x1="889.32" y1="174.57" x2="889.32" y2="179.75" stroke="#2a6" stroke-width="2"/>
<line x1="896.23" y1="168.72" x2="896.23" y2="191.15" stroke="#999" stroke-width="1"/>
<line x1="896.23" y1="174.57" x2="896.23" y2="189.69" stroke="#c33" stroke-width="2"/>
<line x1="903.14" y1="180.34" x2="903.14" y2="194.51" stroke="#999" stroke-width="1"/>
<line x1="903.14" y1="189.69" x2="903.14" y2="192.61" stroke="#c33" stroke-width="2"/>
<line x1="910.05" y1="189.54" x2="910.05" y2="197.80" stroke="#999" stroke-width="1"/>
<line x1="910.05" y1="192.61" x2="910.05" y2="196.70" stroke="#c33" stroke-width="2"/>
<line x1="916.96" y1="189.91" x2="916.96" y2="198.02" stroke="#999" stroke-width="1"/>
<line x1="916.96" y1="190.86" x2="916.96" y2="197.21" stroke="#2a6" stroke-width="2"/>
<line x1="923.87" y1="146.73" x2="923.87" y2="343.25" stroke="#999" stroke-width="1"/>
<line x1="923.87" y1="191.22" x2="923.87" y2="295.62" stroke="#c33" stroke-width="2"/>
<line x1="930.79" y1="164.70" x2="930.79" y2="186.84" stroke="#999" stroke-width="1"/>
<line x1="930.79" y1="179.24" x2="930.79" y2="185.23" stroke="#2a6" stroke-width="2"/>
<line x1="937.70" y1="176.76" x2="937.70" y2="187.50" stroke="#999" stroke-width="1"/>
<line x1="937.70" y1="177.05" x2="937.70" y2="179.02" stroke="#2a6" stroke-width="2"/>
<line x1="944.61" y1="172.67" x2="944.61" y2="190.57" stroke="#999" stroke-width="1"/>
<line x1="944.61" y1="177.05" x2="944.61" y2="186.69" stroke="#c33" stroke-width="2"/>
<line x1="951.52" y1="181.21" x2="951.52" y2="230.09" stroke="#999" stroke-width="1"/>
<line x1="951.52" y1="186.84" x2="951.52" y2="216.13" stroke="#c33" stroke-width="2"/>
<line x1="958.43" y1="188.08" x2="958.43" y2="220.23" stroke="#999" stroke-width="1"/>
<line x1="958.43" y1="194.07" x2="958.43" y2="216.28" stroke="#2a6" stroke-width="2"/>
<line x1="965.34" y1="189.62" x2="965.34" y2="200.50" stroke="#999" stroke-width="1"/>
<line x1="965.34" y1="192.76" x2="965.34" y2="194.36" stroke="#2a6" stroke-width="2"/>
<line x1="972.25" y1="184.87" x2="972.25" y2="196.41" stroke="#999" stroke-width="1"/>
<line x1="972.25" y1="192.76" x2="972.25" y2="194.95" stroke="#c33" stroke-width="2"/>
<line x1="979.16" y1="191.66" x2="979.16" y2="216.72" stroke="#999" stroke-width="1"/>
<line x1="979.16" y1="194.80" x2="979.16" y2="203.06" stroke="#c33" stroke-width="2"/>
<line x1="986.07" y1="166.53" x2="986.07" y2="207.59" stroke="#999" stroke-width="1"/>
<line x1="986.07" y1="185.31" x2="986.07" y2="203.13" stroke="#2a6" stroke-width="2"/>
<line x1="992.98" y1="144.76" x2="992.98" y2="185.45" stroke="#999" stroke-width="1"/>
<line x1="992.98" y1="158.64" x2="992.98" y2="185.31" stroke="#2a6" stroke-width="2"/>
<line x1="999.90" y1="153.67" x2="999.90" y2="173.76" stroke="#999" stroke-width="1"/>
<line x1="999.90" y1="159.15" x2="999.90" y2="170.33" stroke="#c33" stroke-width="2"/>
<line x1="1006.81" y1="161.64" x2="1006.81" y2="179.10" stroke="#999" stroke-width="1"/>
<line x1="1006.81" y1="169.75" x2="1006.81" y2="175.08" stroke="#c33" stroke-width="2"/>
<line x1="1013.72" y1="172.30" x2="1013.72" y2="194.73" stroke="#999" stroke-width="1"/>
<line x1="1013.72" y1="175.08" x2="1013.72" y2="183.41" stroke="#c33" stroke-width="2"/>
<line x1="1020.63" y1="167.85" x2="1020.63" y2="191.52" stroke="#999" stroke-width="1"/>
<line x1="1020.63" y1="183.55" x2="1020.63" y2="184.72" stroke="#c33" stroke-width="2"/>
<line x1="1027.54" y1="161.05" x2="1027.54" y2="237.03" stroke="#999" stroke-width="1"/>
<line x1="1027.54" y1="184.21" x2="1027.54" y2="233.16" stroke="#c33" stroke-width="2"/>
<line x1="1034.45" y1="229.50" x2="1034.45" y2="332.95" stroke="#999" stroke-width="1"/>
<line x1="1034.45" y1="234.18" x2="1034.45" y2="326.52" stroke="#c33" stroke-width="2"/>
<line x1="1041.36" y1="296.64" x2="1041.36" y2="342.08" stroke="#999" stroke-width="1"/>
<line x1="1041.36" y1="304.09" x2="1041.36" y2="326.52" stroke="#2a6" stroke-width="2"/>
<line x1="1048.27" y1="293.21" x2="1048.27" y2="316.37" stroke="#999" stroke-width="1"/>
<line x1="1048.27" y1="302.41" x2="1048.27" y2="304.09" stroke="#2a6" stroke-width="2"/>
<line x1="1055.18" y1="281.74" x2="1055.18" y2="309.94" stroke="#999" stroke-width="1"/>
<line x1="1055.18" y1="284.88" x2="1055.18" y2="302.41" stroke="#2a6" stroke-width="2"/>
<line x1="1062.09" y1="281.01" x2="1062.09" y2="295.55" stroke="#999" stroke-width="1"/>
<line x1="1062.09" y1="281.59" x2="1062.09" y2="285.03" stroke="#2a6" stroke-width="2"/>
<line x1="1069.01" y1="279.62" x2="1069.01" y2="294.23" stroke="#999" stroke-width="1"/>
<line x1="1069.01" y1="280.28" x2="1069.01" y2="281.45" stroke="#2a6" stroke-width="2"/>
<line x1="1075.92" y1="277.28" x2="1075.92" y2="296.93" stroke="#999" stroke-width="1"/>
<line x1="1075.92" y1="280.20" x2="1075.92" y2="295.11" stroke="#c33" stroke-width="2"/>
<line x1="1082.83" y1="290.94" x2="1082.83" y2="301.24" stroke="#999" stroke-width="1"/>
<line x1="1082.83" y1="295.76" x2="1082.83" y2="299.71" stroke="#c33" stroke-width="2"/>
<line x1="1089.74" y1="272.09" x2="1089.74" y2="419.74" stroke="#999" stroke-width="1"/>
<line x1="1089.74" y1="298.10" x2="1089.74" y2="325.64" stroke="#c33" stroke-width="2"/>
<line x1="1096.65" y1="281.15" x2="1096.65" y2="295.25" stroke="#999" stroke-width="1"/>
<line x1="1096.65" y1="292.62" x2="1096.65" y2="294.16" stroke="#2a6" stroke-width="2"/>
<line x1="1103.56" y1="275.97" x2="1103.56" y2="295.18" stroke="#999" stroke-width="1"/>
<line x1="1103.56" y1="287.80" x2="1103.56" y2="292.62" stroke="#2a6" stroke-width="2"/>
<line x1="1110.47" y1="280.42" x2="1110.47" y2="294.74" stroke="#999" stroke-width="1"/>
<line x1="1110.47" y1="287.51" x2="1110.47" y2="290.72" stroke="#c33" stroke-width="2"/>
<line x1="1117.38" y1="278.74" x2="1117.38" y2="297.08" stroke="#999" stroke-width="1"/>
<line x1="1117.38" y1="290.94" x2="1117.38" y2="293.87" stroke="#c33" stroke-width="2"/>
<line x1="1124.29" y1="271.44" x2="1124.29" y2="300.95" stroke="#999" stroke-width="1"/>
<line x1="1124.29" y1="288.46" x2="1124.29" y2="293.65" stroke="#2a6" stroke-width="2"/>
<line x1="1131.20" y1="284.22" x2="1131.20" y2="293.43" stroke="#999" stroke-width="1"/>
<line x1="1131.20" y1="288.46" x2="1131.20" y2="289.19" stroke="#c33" stroke-width="2"/>
<line x1="1138.12" y1="286.56" x2="1138.12" y2="300.73" stroke="#999" stroke-width="1"/>
<line x1="1138.12" y1="289.34" x2="1138.12" y2="298.39" stroke="#c33" stroke-width="2"/>
<line x1="1145.03" y1="290.87" x2="1145.03" y2="309.64" stroke="#999" stroke-width="1"/>
<line x1="1145.03" y1="298.25" x2="1145.03" y2="300.44" stroke="#c33" stroke-width="2"/>
<line x1="1151.94" y1="299.05" x2="1151.94" y2="331.34" stroke="#999" stroke-width="1"/>
<line x1="1151.94" y1="300.37" x2="1151.94" y2="304.46" stroke="#c33" stroke-width="2"/>
<line x1="1158.85" y1="286.71" x2="1158.85" y2="312.57" stroke="#999" stroke-width="1"/>
<line x1="1158.85" y1="304.17" x2="1158.85" y2="304.53" stroke="#2a6" stroke-width="2"/>
<line x1="1165.76" y1="297.59" x2="1165.76" y2="314.32" stroke="#999" stroke-width="1"/>
<line x1="1165.76" y1="304.17" x2="1165.76" y2="306.65" stroke="#c33" stroke-width="2"/>
<line x1="1172.67" y1="297.59" x2="1172.67" y2="324.99" stroke="#999" stroke-width="1"/>
<line x1="1172.67" y1="306.50" x2="1172.67" y2="316.80" stroke="#c33" stroke-width="2"/>
<line x1="1179.58" y1="299.27" x2="1179.58" y2="324.77" stroke="#999" stroke-width="1"/>
<line x1="1179.58" y1="308.70" x2="1179.58" y2="316.73" stroke="#2a6" stroke-width="2"/>
<line x1="1186.49" y1="300.81" x2="1186.49" y2="316.29" stroke="#999" stroke-width="1"/>
<line x1="1186.49" y1="307.09" x2="1186.49" y2="308.62" stroke="#2a6" stroke-width="2"/>
<line x1="1193.40" y1="301.54" x2="1193.40" y2="369.99" stroke="#999" stroke-width="1"/>
<line x1="1193.40" y1="307.01" x2="1193.40" y2="341.35" stroke="#c33" stroke-width="2"/>
<line x1="1200.31" y1="332.80" x2="1200.31" y2="419.45" stroke="#999" stroke-width="1"/>
<line x1="1200.31" y1="341.42" x2="1200.31" y2="350.56" stroke="#c33" stroke-width="2"/>
<line x1="1207.23" y1="306.43" x2="1207.23" y2="382.70" stroke="#999" stroke-width="1"/>
<line x1="1207.23" y1="325.79" x2="1207.23" y2="351.72" stroke="#2a6" stroke-width="2"/>
<line x1="1214.14" y1="319.07" x2="1214.14" y2="346.03" stroke="#999" stroke-width="1"/>
<line x1="1214.14" y1="323.96" x2="1214.14" y2="325.79" stroke="#2a6" stroke-width="2"/>
<line x1="1221.05" y1="310.16" x2="1221.05" y2="337.84" stroke="#999" stroke-width="1"/>
<line x1="1221.05" y1="315.93" x2="1221.05" y2="324.18" stroke="#2a6" stroke-width="2"/>
<line x1="1227.96" y1="298.18" x2="1227.96" y2="318.56" stroke="#999" stroke-width="1"/>
<line x1="1227.96" y1="309.94" x2="1227.96" y2="317.17" stroke="#2a6" stroke-width="2"/>
<line x1="1234.87" y1="284.95" x2="1234.87" y2="311.18" stroke="#999" stroke-width="1"/>
<line x1="1234.87" y1="297.74" x2="1234.87" y2="310.01" stroke="#2a6" stroke-width="2"/>
<line x1="1241.78" y1="296.64" x2="1241.78" y2="317.75" stroke="#999" stroke-width="1"/>
<line x1="1241.78" y1="297.74" x2="1241.78" y2="314.69" stroke="#c33" stroke-width="2"/>
<line x1="1248.69" y1="307.75" x2="1248.69" y2="326.89" stroke="#999" stroke-width="1"/>
<line x1="1248.69" y1="314.90" x2="1248.69" y2="323.60" stroke="#c33" stroke-width="2"/>
<line x1="1255.60" y1="305.63" x2="1255.60" y2="470.00" stroke="#999" stroke-width="1"/>
<line x1="1255.60" y1="322.21" x2="1255.60" y2="460.14" stroke="#c33" stroke-width="2"/>
<line x1="1262.51" y1="308.48" x2="1262.51" y2="321.99" stroke="#999" stroke-width="1"/>
<line x1="1262.51" y1="314.98" x2="1262.51" y2="317.46" stroke="#2a6" stroke-width="2"/>
<line x1="1269.42" y1="305.26" x2="1269.42" y2="320.02" stroke="#999" stroke-width="1"/>
<line x1="1269.42" y1="312.42" x2="1269.42" y2="315.12" stroke="#2a6" stroke-width="2"/>
<line x1="1276.34" y1="311.47" x2="1276.34" y2="323.96" stroke="#999" stroke-width="1"/>
<line x1="1276.34" y1="311.98" x2="1276.34" y2="323.96" stroke="#c33" stroke-width="2"/>
<line x1="1283.25" y1="309.21" x2="1283.25" y2="329.59" stroke="#999" stroke-width="1"/>
<line x1="1283.25" y1="316.95" x2="1283.25" y2="324.04" stroke="#2a6" stroke-width="2"/>
<line x1="1290.16" y1="313.59" x2="1290.16" y2="325.86" stroke="#999" stroke-width="1"/>
<line x1="1290.16" y1="316.29" x2="1290.16" y2="317.17" stroke="#2a6" stroke-width="2"/>
<line x1="1297.07" y1="309.50" x2="1297.07" y2="324.04" stroke="#999" stroke-width="1"/>
<line x1="1297.07" y1="316.07" x2="1297.07" y2="321.48" stroke="#c33" stroke-width="2"/>
<line x1="1303.98" y1="317.90" x2="1303.98" y2="342.52" stroke="#999" stroke-width="1"/>
<line x1="1303.98" y1="321.99" x2="1303.98" y2="341.86" stroke="#c33" stroke-width="2"/>
<line x1="1310.89" y1="335.87" x2="1310.89" y2="355.52" stroke="#999" stroke-width="1"/>
<line x1="1310.89" y1="336.89" x2="1310.89" y2="341.86" stroke="#2a6" stroke-width="2"/>
<line x1="1317.80" y1="329.44" x2="1317.80" y2="357.28" stroke="#999" stroke-width="1"/>
<line x1="1317.80" y1="337.11" x2="1317.80" y2="354.35" stroke="#c33" stroke-width="2"/>
<line x1="1324.71" y1="334.34" x2="1324.71" y2="361.73" stroke="#999" stroke-width="1"/>
<line x1="1324.71" y1="340.33" x2="1324.71" y2="354.57" stroke="#2a6" stroke-width="2"/>
<line x1="1331.62" y1="329.73" x2="1331.62" y2="377.73" stroke="#999" stroke-width="1"/>
<line x1="1331.62" y1="340.69" x2="1331.62" y2="359.61" stroke="#c33" stroke-width="2"/>
<line x1="1338.53" y1="344.42" x2="1338.53" y2="368.16" stroke="#999" stroke-width="1"/>
<line x1="1338.53" y1="349.68" x2="1338.53" y2="359.61" stroke="#2a6" stroke-width="2"/>
<line x1="1345.45" y1="345.15" x2="1345.45" y2="364.29" stroke="#999" stroke-width="1"/>
<line x1="1345.45" y1="349.61" x2="1345.45" y2="350.26" stroke="#c33" stroke-width="2"/>
<line x1="1352.36" y1="341.94" x2="1352.36" y2="375.03" stroke="#999" stroke-width="1"/>
<line x1="1352.36" y1="350.12" x2="1352.36" y2="360.05" stroke="#c33" stroke-width="2"/>
<line x1="1359.27" y1="333.31" x2="1359.27" y2="388.69" stroke="#999" stroke-width="1"/>
<line x1="1359.27" y1="359.98" x2="1359.27" y2="388.25" stroke="#c33" stroke-width="2"/>
<line x1="1366.18" y1="359.47" x2="1366.18" y2="421.35" stroke="#999" stroke-width="1"/>
<line x1="1366.18" y1="388.62" x2="1366.18" y2="397.16" stroke="#c33" stroke-width="2"/>
<line x1="1373.09" y1="393.58" x2="1373.09" y2="452.10" stroke="#999" stroke-width="1"/>
<line x1="1373.09" y1="397.24" x2="1373.09" y2="447.13" stroke="#c33" stroke-width="2"/>
<line x1="1380.00" y1="421.05" x2="1380.00" y2="466.35" stroke="#999" stroke-width="1"/>
<line x1="1380.00" y1="447.21" x2="1380.00" y2="461.45" stroke="#c33" stroke-width="2"/>
<polygon points="108.4,35.9 101.4,49.9 115.4,49.9" fill="#a20" stroke="#000" stroke-width="0.5"/>
<line x1="108.4" y1="43.9" x2="115.3" y2="134.2" stroke="#a20" stroke-dasharray="3,2" stroke-width="1"/>
<text x="108.4" y="31.9" font-family="Helvetica" font-size="10" fill="#a20" text-anchor="middle">7 H M/E c8</text>
<polygon points="274.2,279.9 267.2,265.9 281.2,265.9" fill="#0a5" stroke="#000" stroke-width="0.5"/>
<line x1="274.2" y1="271.9" x2="315.7" y2="199.6" stroke="#0a5" stroke-dasharray="3,2" stroke-width="1"/>
<text x="274.2" y="289.9" font-family="Helvetica" font-size="10" fill="#0a5" text-anchor="middle">31 L M/E c37</text>
<polygon points="377.9,111.3 370.9,125.3 384.9,125.3" fill="#a20" stroke="#000" stroke-width="0.5"/>
<line x1="377.9" y1="119.3" x2="384.8" y2="150.2" stroke="#a20" stroke-dasharray="3,2" stroke-width="1"/>
<text x="377.9" y="107.3" font-family="Helvetica" font-size="10" fill="#a20" text-anchor="middle">46 H M/I c47</text>
<polygon points="419.4,275.6 412.4,261.6 426.4,261.6" fill="#0a5" stroke="#000" stroke-width="0.5"/>
<line x1="419.4" y1="267.6" x2="426.3" y2="231.3" stroke="#0a5" stroke-dasharray="3,2" stroke-width="1"/>
<text x="419.4" y="285.6" font-family="Helvetica" font-size="10" fill="#0a5" text-anchor="middle">52 L M/I c53</text>
<polygon points="440.1,112.6 433.1,126.6 447.1,126.6" fill="#a20" stroke="#000" stroke-width="0.5"/>
<line x1="440.1" y1="120.6" x2="447.0" y2="238.3" stroke="#a20" stroke-dasharray="3,2" stroke-width="1"/>
<text x="440.1" y="108.6" font-family="Helvetica" font-size="10" fill="#a20" text-anchor="middle">55 H M/I c56</text>
<polygon points="1089.7,427.7 1082.7,413.7 1096.7,413.7" fill="#0a5" stroke="#000" stroke-width="0.5"/>
<line x1="1089.7" y1="419.7" x2="1096.6" y2="292.6" stroke="#0a5" stroke-dasharray="3,2" stroke-width="1"/>
<text x="1089.7" y="437.7" font-family="Helvetica" font-size="10" fill="#0a5" text-anchor="middle">149 L M/E c150</text>
<polygon points="1124.3,263.4 1117.3,277.4 1131.3,277.4" fill="#a20" stroke="#000" stroke-width="0.5"/>
<line x1="1124.3" y1="271.4" x2="1151.9" y2="304.5" stroke="#a20" stroke-dasharray="3,2" stroke-width="1"/>
<text x="1124.3" y="259.4" font-family="Helvetica" font-size="10" fill="#a20" text-anchor="middle">154 H M/I c158</text>
<polygon points="1200.3,427.4 1193.3,413.4 1207.3,413.4" fill="#0a5" stroke="#000" stroke-width="0.5"/>
<line x1="1200.3" y1="419.4" x2="1207.2" y2="325.8" stroke="#0a5" stroke-dasharray="3,2" stroke-width="1"/>
<text x="1200.3" y="437.4" font-family="Helvetica" font-size="10" fill="#0a5" text-anchor="middle">165 L M/I c166</text>
<polygon points="1234.9,277.0 1227.9,291.0 1241.9,291.0" fill="#a20" stroke="#000" stroke-width="0.5"/>
<line x1="1234.9" y1="285.0" x2="1255.6" y2="460.1" stroke="#a20" stroke-dasharray="3,2" stroke-width="1"/>
<text x="1234.9" y="273.0" font-family="Helvetica" font-size="10" fill="#a20" text-anchor="middle">170 H M/I c173</text>
</svg>
