<svg xmlns="http://www.w3.org/2000/svg" width="1400" height="520">
<rect width="100%" height="100%" fill="#f7f7f4"/>
<text x="60" y="24" font-family="Helvetica" font-size="16" fill="#222">Window 01 AI-assisted draft pivots</text>
<line x1="60.00" y1="175.80" x2="60.00" y2="195.15" stroke="#999" stroke-width="1"/>
<line x1="60.00" y1="179.84" x2="60.00" y2="185.32" stroke="#c33" stroke-width="2"/>
<line x1="66.91" y1="184.18" x2="66.91" y2="221.50" stroke="#999" stroke-width="1"/>
<line x1="66.91" y1="185.56" x2="66.91" y2="221.50" stroke="#c33" stroke-width="2"/>
<line x1="73.82" y1="219.69" x2="73.82" y2="283.13" stroke="#999" stroke-width="1"/>
<line x1="73.82" y1="221.50" x2="73.82" y2="281.86" stroke="#c33" stroke-width="2"/>
<line x1="80.73" y1="245.50" x2="80.73" y2="288.32" stroke="#999" stroke-width="1"/>
<line x1="80.73" y1="268.78" x2="80.73" y2="281.50" stroke="#2a6" stroke-width="2"/>
<line x1="87.64" y1="225.36" x2="87.64" y2="274.87" stroke="#999" stroke-width="1"/>
<line x1="87.64" y1="262.93" x2="87.64" y2="269.56" stroke="#2a6" stroke-width="2"/>
<line x1="94.55" y1="226.75" x2="94.55" y2="279.87" stroke="#999" stroke-width="1"/>
<line x1="94.55" y1="228.68" x2="94.55" y2="262.93" stroke="#2a6" stroke-width="2"/>
<line x1="101.47" y1="228.62" x2="101.47" y2="277.34" stroke="#999" stroke-width="1"/>
<line x1="101.47" y1="228.74" x2="101.47" y2="248.16" stroke="#c33" stroke-width="2"/>
<line x1="108.38" y1="237.72" x2="108.38" y2="307.67" stroke="#999" stroke-width="1"/>
<line x1="108.38" y1="248.28" x2="108.38" y2="307.67" stroke="#c33" stroke-width="2"/>
<line x1="115.29" y1="277.34" x2="115.29" y2="316.84" stroke="#999" stroke-width="1"/>
<line x1="115.29" y1="279.75" x2="115.29" y2="307.67" stroke="#2a6" stroke-width="2"/>
<line x1="122.20" y1="265.88" x2="122.20" y2="322.63" stroke="#999" stroke-width="1"/>
<line x1="122.20" y1="279.45" x2="122.20" y2="313.22" stroke="#c33" stroke-width="2"/>
<line x1="129.11" y1="285.36" x2="129.11" y2="356.33" stroke="#999" stroke-width="1"/>
<line x1="129.11" y1="301.22" x2="129.11" y2="313.22" stroke="#2a6" stroke-width="2"/>
<line x1="136.02" y1="299.53" x2="136.02" y2="396.68" stroke="#999" stroke-width="1"/>
<line x1="136.02" y1="301.22" x2="136.02" y2="342.04" stroke="#c33" stroke-width="2"/>
<line x1="142.93" y1="275.17" x2="142.93" y2="361.04" stroke="#999" stroke-width="1"/>
<line x1="142.93" y1="287.47" x2="142.93" y2="341.74" stroke="#2a6" stroke-width="2"/>
<line x1="149.84" y1="252.56" x2="149.84" y2="313.16" stroke="#999" stroke-width="1"/>
<line x1="149.84" y1="262.75" x2="149.84" y2="287.41" stroke="#2a6" stroke-width="2"/>
<line x1="156.75" y1="258.53" x2="156.75" y2="292.66" stroke="#999" stroke-width="1"/>
<line x1="156.75" y1="262.69" x2="156.75" y2="292.48" stroke="#c33" stroke-width="2"/>
<line x1="163.66" y1="271.19" x2="163.66" y2="320.88" stroke="#999" stroke-width="1"/>
<line x1="163.66" y1="291.51" x2="163.66" y2="312.56" stroke="#c33" stroke-width="2"/>
<line x1="170.58" y1="306.59" x2="170.58" y2="340.96" stroke="#999" stroke-width="1"/>
<line x1="170.58" y1="312.86" x2="170.58" y2="338.43" stroke="#c33" stroke-width="2"/>
<line x1="177.49" y1="331.25" x2="177.49" y2="355.37" stroke="#999" stroke-width="1"/>
<line x1="177.49" y1="333.30" x2="177.49" y2="338.06" stroke="#2a6" stroke-width="2"/>
<line x1="184.40" y1="262.57" x2="184.40" y2="470.00" stroke="#999" stroke-width="1"/>
<line x1="184.40" y1="331.07" x2="184.40" y2="341.62" stroke="#c33" stroke-width="2"/>
<line x1="191.31" y1="327.45" x2="191.31" y2="342.16" stroke="#999" stroke-width="1"/>
<line x1="191.31" y1="330.59" x2="191.31" y2="341.62" stroke="#2a6" stroke-width="2"/>
<line x1="198.22" y1="302.61" x2="198.22" y2="336.07" stroke="#999" stroke-width="1"/>
<line x1="198.22" y1="312.62" x2="198.22" y2="331.43" stroke="#2a6" stroke-width="2"/>
<line x1="205.13" y1="289.40" x2="205.13" y2="318.77" stroke="#999" stroke-width="1"/>
<line x1="205.13" y1="312.62" x2="205.13" y2="317.08" stroke="#c33" stroke-width="2"/>
<line x1="212.04" y1="298.51" x2="212.04" y2="323.29" stroke="#999" stroke-width="1"/>
<line x1="212.04" y1="315.33" x2="212.04" y2="317.08" stroke="#2a6" stroke-width="2"/>
<line x1="218.95" y1="313.64" x2="218.95" y2="331.79" stroke="#999" stroke-width="1"/>
<line x1="218.95" y1="315.33" x2="218.95" y2="330.04" stroke="#c33" stroke-width="2"/>
<line x1="225.86" y1="328.72" x2="225.86" y2="347.53" stroke="#999" stroke-width="1"/>
<line x1="225.86" y1="330.04" x2="225.86" y2="338.12" stroke="#c33" stroke-width="2"/>
<line x1="232.77" y1="317.92" x2="232.77" y2="343.31" stroke="#999" stroke-width="1"/>
<line x1="232.77" y1="322.02" x2="232.77" y2="338.12" stroke="#2a6" stroke-width="2"/>
<line x1="239.69" y1="320.34" x2="239.69" y2="363.33" stroke="#999" stroke-width="1"/>
<line x1="239.69" y1="321.24" x2="239.69" y2="347.65" stroke="#c33" stroke-width="2"/>
<line x1="246.60" y1="325.04" x2="246.60" y2="355.79" stroke="#999" stroke-width="1"/>
<line x1="246.60" y1="341.68" x2="246.60" y2="348.37" stroke="#2a6" stroke-width="2"/>
<line x1="253.51" y1="313.16" x2="253.51" y2="368.82" stroke="#999" stroke-width="1"/>
<line x1="253.51" y1="329.80" x2="253.51" y2="341.68" stroke="#2a6" stroke-width="2"/>
<line x1="260.42" y1="297.48" x2="260.42" y2="329.98" stroke="#999" stroke-width="1"/>
<line x1="260.42" y1="307.61" x2="260.42" y2="329.80" stroke="#2a6" stroke-width="2"/>
<line x1="267.33" y1="295.07" x2="267.33" y2="331.61" stroke="#999" stroke-width="1"/>
<line x1="267.33" y1="307.61" x2="267.33" y2="311.53" stroke="#c33" stroke-width="2"/>
<line x1="274.24" y1="276.07" x2="274.24" y2="316.72" stroke="#999" stroke-width="1"/>
<line x1="274.24" y1="290.97" x2="274.24" y2="311.53" stroke="#2a6" stroke-width="2"/>
<line x1="281.15" y1="284.40" x2="281.15" y2="346.14" stroke="#999" stroke-width="1"/>
<line x1="281.15" y1="290.97" x2="281.15" y2="318.41" stroke="#c33" stroke-width="2"/>
<line x1="288.06" y1="306.22" x2="288.06" y2="362.18" stroke="#999" stroke-width="1"/>
<line x1="288.06" y1="318.28" x2="288.06" y2="344.88" stroke="#c33" stroke-width="2"/>
<line x1="294.97" y1="319.85" x2="294.97" y2="415.79" stroke="#999" stroke-width="1"/>
<line x1="294.97" y1="344.88" x2="294.97" y2="379.85" stroke="#c33" stroke-width="2"/>
<line x1="301.88" y1="343.67" x2="301.88" y2="382.75" stroke="#999" stroke-width="1"/>
<line x1="301.88" y1="368.51" x2="301.88" y2="379.85" stroke="#2a6" stroke-width="2"/>
<line x1="308.80" y1="363.63" x2="308.80" y2="397.94" stroke="#999" stroke-width="1"/>
<line x1="308.80" y1="368.58" x2="308.80" y2="378.22" stroke="#c33" stroke-width="2"/>
<line x1="315.71" y1="371.29" x2="315.71" y2="394.50" stroke="#999" stroke-width="1"/>
<line x1="315.71" y1="378.22" x2="315.71" y2="394.02" stroke="#c33" stroke-width="2"/>
<line x1="322.62" y1="328.66" x2="322.62" y2="469.28" stroke="#999" stroke-width="1"/>
<line x1="322.62" y1="341.14" x2="322.62" y2="393.60" stroke="#2a6" stroke-width="2"/>
<line x1="329.53" y1="261.36" x2="329.53" y2="367.07" stroke="#999" stroke-width="1"/>
<line x1="329.53" y1="271.43" x2="329.53" y2="341.02" stroke="#2a6" stroke-width="2"/>
<line x1="336.44" y1="261.60" x2="336.44" y2="310.51" stroke="#999" stroke-width="1"/>
<line x1="336.44" y1="271.43" x2="336.44" y2="289.46" stroke="#c33" stroke-width="2"/>
<line x1="343.35" y1="139.86" x2="343.35" y2="300.07" stroke="#999" stroke-width="1"/>
<line x1="343.35" y1="280.05" x2="343.35" y2="283.73" stroke="#c33" stroke-width="2"/>
<line x1="350.26" y1="273.12" x2="350.26" y2="287.89" stroke="#999" stroke-width="1"/>
<line x1="350.26" y1="276.50" x2="350.26" y2="283.07" stroke="#2a6" stroke-width="2"/>
<line x1="357.17" y1="273.12" x2="357.17" y2="285.48" stroke="#999" stroke-width="1"/>
<line x1="357.17" y1="276.50" x2="357.17" y2="277.28" stroke="#c33" stroke-width="2"/>
<line x1="364.08" y1="235.31" x2="364.08" y2="280.78" stroke="#999" stroke-width="1"/>
<line x1="364.08" y1="236.22" x2="364.08" y2="277.28" stroke="#2a6" stroke-width="2"/>
<line x1="370.99" y1="221.93" x2="370.99" y2="244.00" stroke="#999" stroke-width="1"/>
<line x1="370.99" y1="231.57" x2="370.99" y2="236.34" stroke="#2a6" stroke-width="2"/>
<line x1="377.91" y1="208.84" x2="377.91" y2="234.65" stroke="#999" stroke-width="1"/>
<line x1="377.91" y1="220.18" x2="377.91" y2="231.57" stroke="#2a6" stroke-width="2"/>
<line x1="384.82" y1="213.12" x2="384.82" y2="229.70" stroke="#999" stroke-width="1"/>
<line x1="384.82" y1="220.12" x2="384.82" y2="222.71" stroke="#c33" stroke-width="2"/>
<line x1="391.73" y1="222.35" x2="391.73" y2="240.38" stroke="#999" stroke-width="1"/>
<line x1="391.73" y1="222.71" x2="391.73" y2="231.94" stroke="#c33" stroke-width="2"/>
<line x1="398.64" y1="229.28" x2="398.64" y2="253.82" stroke="#999" stroke-width="1"/>
<line x1="398.64" y1="231.94" x2="398.64" y2="247.37" stroke="#c33" stroke-width="2"/>
<line x1="405.55" y1="224.28" x2="405.55" y2="257.86" stroke="#999" stroke-width="1"/>
<line x1="405.55" y1="224.28" x2="405.55" y2="247.19" stroke="#2a6" stroke-width="2"/>
<line x1="412.46" y1="182.13" x2="412.46" y2="228.14" stroke="#999" stroke-width="1"/>
<line x1="412.46" y1="190.45" x2="412.46" y2="224.28" stroke="#2a6" stroke-width="2"/>
<line x1="419.37" y1="178.63" x2="419.37" y2="229.58" stroke="#999" stroke-width="1"/>
<line x1="419.37" y1="188.28" x2="419.37" y2="212.52" stroke="#2a6" stroke-width="2"/>
<line x1="426.28" y1="156.98" x2="426.28" y2="196.42" stroke="#999" stroke-width="1"/>
<line x1="426.28" y1="178.57" x2="426.28" y2="188.28" stroke="#2a6" stroke-width="2"/>
<line x1="433.19" y1="156.32" x2="433.19" y2="194.43" stroke="#999" stroke-width="1"/>
<line x1="433.19" y1="178.57" x2="433.19" y2="178.63" stroke="#c33" stroke-width="2"/>
<line x1="440.10" y1="170.73" x2="440.10" y2="224.88" stroke="#999" stroke-width="1"/>
<line x1="440.10" y1="178.69" x2="440.10" y2="203.96" stroke="#c33" stroke-width="2"/>
<line x1="447.02" y1="158.13" x2="447.02" y2="217.40" stroke="#999" stroke-width="1"/>
<line x1="447.02" y1="167.90" x2="447.02" y2="203.96" stroke="#2a6" stroke-width="2"/>
<line x1="453.93" y1="142.57" x2="453.93" y2="189.91" stroke="#999" stroke-width="1"/>
<line x1="453.93" y1="146.61" x2="453.93" y2="168.02" stroke="#2a6" stroke-width="2"/>
<line x1="460.84" y1="139.25" x2="460.84" y2="162.65" stroke="#999" stroke-width="1"/>
<line x1="460.84" y1="146.73" x2="460.84" y2="148.60" stroke="#c33" stroke-width="2"/>
<line x1="467.75" y1="148.36" x2="467.75" y2="193.46" stroke="#999" stroke-width="1"/>
<line x1="467.75" y1="148.60" x2="467.75" y2="171.94" stroke="#c33" stroke-width="2"/>
<line x1="474.66" y1="162.17" x2="474.66" y2="192.80" stroke="#999" stroke-width="1"/>
<line x1="474.66" y1="171.82" x2="474.66" y2="183.27" stroke="#c33" stroke-width="2"/>
<line x1="481.57" y1="183.27" x2="481.57" y2="207.39" stroke="#999" stroke-width="1"/>
<line x1="481.57" y1="183.27" x2="481.57" y2="193.70" stroke="#c33" stroke-width="2"/>
<line x1="488.48" y1="190.57" x2="488.48" y2="225.48" stroke="#999" stroke-width="1"/>
<line x1="488.48" y1="193.70" x2="488.48" y2="213.18" stroke="#c33" stroke-width="2"/>
<line x1="495.39" y1="180.74" x2="495.39" y2="219.33" stroke="#999" stroke-width="1"/>
<line x1="495.39" y1="182.55" x2="495.39" y2="213.24" stroke="#2a6" stroke-width="2"/>
<line x1="502.30" y1="166.69" x2="502.30" y2="332.46" stroke="#999" stroke-width="1"/>
<line x1="502.30" y1="186.47" x2="502.30" y2="190.75" stroke="#c33" stroke-width="2"/>
<line x1="509.21" y1="172.60" x2="509.21" y2="192.44" stroke="#999" stroke-width="1"/>
<line x1="509.21" y1="174.65" x2="509.21" y2="190.75" stroke="#2a6" stroke-width="2"/>
<line x1="516.13" y1="165.67" x2="516.13" y2="195.21" stroke="#999" stroke-width="1"/>
<line x1="516.13" y1="174.65" x2="516.13" y2="191.65" stroke="#c33" stroke-width="2"/>
<line x1="523.04" y1="183.76" x2="523.04" y2="218.01" stroke="#999" stroke-width="1"/>
<line x1="523.04" y1="191.65" x2="523.04" y2="217.28" stroke="#c33" stroke-width="2"/>
<line x1="529.95" y1="202.57" x2="529.95" y2="241.58" stroke="#999" stroke-width="1"/>
<line x1="529.95" y1="216.50" x2="529.95" y2="235.98" stroke="#c33" stroke-width="2"/>
<line x1="536.86" y1="225.78" x2="536.86" y2="277.04" stroke="#999" stroke-width="1"/>
<line x1="536.86" y1="226.99" x2="536.86" y2="235.98" stroke="#2a6" stroke-width="2"/>
<line x1="543.77" y1="226.99" x2="543.77" y2="238.81" stroke="#999" stroke-width="1"/>
<line x1="543.77" y1="226.99" x2="543.77" y2="234.65" stroke="#c33" stroke-width="2"/>
<line x1="550.68" y1="225.36" x2="550.68" y2="250.87" stroke="#999" stroke-width="1"/>
<line x1="550.68" y1="234.71" x2="550.68" y2="237.72" stroke="#c33" stroke-width="2"/>
<line x1="557.59" y1="228.26" x2="557.59" y2="258.41" stroke="#999" stroke-width="1"/>
<line x1="557.59" y1="238.03" x2="557.59" y2="241.22" stroke="#c33" stroke-width="2"/>
<line x1="564.50" y1="221.32" x2="564.50" y2="249.24" stroke="#999" stroke-width="1"/>
<line x1="564.50" y1="232.36" x2="564.50" y2="241.22" stroke="#2a6" stroke-width="2"/>
<line x1="571.41" y1="215.05" x2="571.41" y2="246.05" stroke="#999" stroke-width="1"/>
<line x1="571.41" y1="233.50" x2="571.41" y2="242.67" stroke="#c33" stroke-width="2"/>
<line x1="578.32" y1="232.60" x2="578.32" y2="258.65" stroke="#999" stroke-width="1"/>
<line x1="578.32" y1="237.90" x2="578.32" y2="242.67" stroke="#2a6" stroke-width="2"/>
<line x1="585.24" y1="225.91" x2="585.24" y2="265.52" stroke="#999" stroke-width="1"/>
<line x1="585.24" y1="227.83" x2="585.24" y2="237.90" stroke="#2a6" stroke-width="2"/>
<line x1="592.15" y1="194.19" x2="592.15" y2="229.76" stroke="#999" stroke-width="1"/>
<line x1="592.15" y1="198.11" x2="592.15" y2="227.90" stroke="#2a6" stroke-width="2"/>
<line x1="599.06" y1="192.50" x2="599.06" y2="228.74" stroke="#999" stroke-width="1"/>
<line x1="599.06" y1="197.93" x2="599.06" y2="224.40" stroke="#c33" stroke-width="2"/>
<line x1="605.97" y1="216.44" x2="605.97" y2="307.73" stroke="#999" stroke-width="1"/>
<line x1="605.97" y1="224.16" x2="605.97" y2="237.30" stroke="#c33" stroke-width="2"/>
<line x1="612.88" y1="208.00" x2="612.88" y2="262.87" stroke="#999" stroke-width="1"/>
<line x1="612.88" y1="221.14" x2="612.88" y2="237.30" stroke="#2a6" stroke-width="2"/>
<line x1="619.79" y1="217.22" x2="619.79" y2="253.22" stroke="#999" stroke-width="1"/>
<line x1="619.79" y1="220.54" x2="619.79" y2="243.21" stroke="#c33" stroke-width="2"/>
<line x1="626.70" y1="239.89" x2="626.70" y2="280.24" stroke="#999" stroke-width="1"/>
<line x1="626.70" y1="243.21" x2="626.70" y2="267.51" stroke="#c33" stroke-width="2"/>
<line x1="633.61" y1="250.51" x2="633.61" y2="279.27" stroke="#999" stroke-width="1"/>
<line x1="633.61" y1="261.66" x2="633.61" y2="267.57" stroke="#2a6" stroke-width="2"/>
<line x1="640.52" y1="257.62" x2="640.52" y2="299.89" stroke="#999" stroke-width="1"/>
<line x1="640.52" y1="261.66" x2="640.52" y2="296.15" stroke="#c33" stroke-width="2"/>
<line x1="647.43" y1="292.96" x2="647.43" y2="330.83" stroke="#999" stroke-width="1"/>
<line x1="647.43" y1="296.09" x2="647.43" y2="317.98" stroke="#c33" stroke-width="2"/>
<line x1="654.35" y1="309.30" x2="654.35" y2="329.80" stroke="#999" stroke-width="1"/>
<line x1="654.35" y1="314.12" x2="654.35" y2="316.78" stroke="#2a6" stroke-width="2"/>
<line x1="661.26" y1="190.69" x2="661.26" y2="332.46" stroke="#999" stroke-width="1"/>
<line x1="661.26" y1="307.97" x2="661.26" y2="318.59" stroke="#c33" stroke-width="2"/>
<line x1="668.17" y1="310.08" x2="668.17" y2="329.20" stroke="#999" stroke-width="1"/>
<line x1="668.17" y1="318.65" x2="668.17" y2="325.34" stroke="#c33" stroke-width="2"/>
<line x1="675.08" y1="294.41" x2="675.08" y2="326.79" stroke="#999" stroke-width="1"/>
<line x1="675.08" y1="306.10" x2="675.08" y2="325.94" stroke="#2a6" stroke-width="2"/>
<line x1="681.99" y1="266.49" x2="681.99" y2="310.69" stroke="#999" stroke-width="1"/>
<line x1="681.99" y1="269.38" x2="681.99" y2="306.10" stroke="#2a6" stroke-width="2"/>
<line x1="688.90" y1="266.43" x2="688.90" y2="287.83" stroke="#999" stroke-width="1"/>
<line x1="688.90" y1="269.80" x2="688.90" y2="280.60" stroke="#c33" stroke-width="2"/>
<line x1="695.81" y1="273.48" x2="695.81" y2="286.69" stroke="#999" stroke-width="1"/>
<line x1="695.81" y1="280.66" x2="695.81" y2="281.26" stroke="#2a6" stroke-width="2"/>
<line x1="702.72" y1="265.28" x2="702.72" y2="282.35" stroke="#999" stroke-width="1"/>
<line x1="702.72" y1="269.56" x2="702.72" y2="280.78" stroke="#2a6" stroke-width="2"/>
<line x1="709.63" y1="268.42" x2="709.63" y2="291.93" stroke="#999" stroke-width="1"/>
<line x1="709.63" y1="269.74" x2="709.63" y2="285.96" stroke="#c33" stroke-width="2"/>
<line x1="716.54" y1="286.57" x2="716.54" y2="301.82" stroke="#999" stroke-width="1"/>
<line x1="716.54" y1="286.81" x2="716.54" y2="294.29" stroke="#c33" stroke-width="2"/>
<line x1="723.46" y1="282.04" x2="723.46" y2="307.07" stroke="#999" stroke-width="1"/>
<line x1="723.46" y1="287.95" x2="723.46" y2="294.95" stroke="#2a6" stroke-width="2"/>
<line x1="730.37" y1="274.45" x2="730.37" y2="296.52" stroke="#999" stroke-width="1"/>
<line x1="730.37" y1="281.92" x2="730.37" y2="287.41" stroke="#2a6" stroke-width="2"/>
<line x1="737.28" y1="274.15" x2="737.28" y2="303.15" stroke="#999" stroke-width="1"/>
<line x1="737.28" y1="281.92" x2="737.28" y2="285.36" stroke="#c33" stroke-width="2"/>
<line x1="744.19" y1="265.22" x2="744.19" y2="301.88" stroke="#999" stroke-width="1"/>
<line x1="744.19" y1="284.88" x2="744.19" y2="285.36" stroke="#2a6" stroke-width="2"/>
<line x1="751.10" y1="269.92" x2="751.10" y2="290.55" stroke="#999" stroke-width="1"/>
<line x1="751.10" y1="284.88" x2="751.10" y2="286.21" stroke="#c33" stroke-width="2"/>
<line x1="758.01" y1="280.36" x2="758.01" y2="308.09" stroke="#999" stroke-width="1"/>
<line x1="758.01" y1="286.15" x2="758.01" y2="290.37" stroke="#c33" stroke-width="2"/>
<line x1="764.92" y1="255.27" x2="764.92" y2="332.52" stroke="#999" stroke-width="1"/>
<line x1="764.92" y1="259.31" x2="764.92" y2="290.37" stroke="#2a6" stroke-width="2"/>
<line x1="771.83" y1="212.70" x2="771.83" y2="259.43" stroke="#999" stroke-width="1"/>
<line x1="771.83" y1="238.03" x2="771.83" y2="259.13" stroke="#2a6" stroke-width="2"/>
<line x1="778.74" y1="221.50" x2="778.74" y2="240.56" stroke="#999" stroke-width="1"/>
<line x1="778.74" y1="227.47" x2="778.74" y2="238.03" stroke="#2a6" stroke-width="2"/>
<line x1="785.65" y1="212.40" x2="785.65" y2="260.94" stroke="#999" stroke-width="1"/>
<line x1="785.65" y1="227.47" x2="785.65" y2="254.97" stroke="#c33" stroke-width="2"/>
<line x1="792.57" y1="243.75" x2="792.57" y2="276.26" stroke="#999" stroke-width="1"/>
<line x1="792.57" y1="246.23" x2="792.57" y2="254.91" stroke="#2a6" stroke-width="2"/>
<line x1="799.48" y1="191.84" x2="799.48" y2="251.23" stroke="#999" stroke-width="1"/>
<line x1="799.48" y1="221.68" x2="799.48" y2="246.23" stroke="#2a6" stroke-width="2"/>
<line x1="806.39" y1="193.64" x2="806.39" y2="239.17" stroke="#999" stroke-width="1"/>
<line x1="806.39" y1="221.68" x2="806.39" y2="227.23" stroke="#c33" stroke-width="2"/>
<line x1="813.30" y1="217.46" x2="813.30" y2="234.59" stroke="#999" stroke-width="1"/>
<line x1="813.30" y1="227.23" x2="813.30" y2="228.68" stroke="#c33" stroke-width="2"/>
<line x1="820.21" y1="209.38" x2="820.21" y2="376.96" stroke="#999" stroke-width="1"/>
<line x1="820.21" y1="221.14" x2="820.21" y2="227.83" stroke="#2a6" stroke-width="2"/>
<line x1="827.12" y1="215.05" x2="827.12" y2="230.61" stroke="#999" stroke-width="1"/>
<line x1="827.12" y1="221.14" x2="827.12" y2="224.88" stroke="#c33" stroke-width="2"/>
<line x1="834.03" y1="223.85" x2="834.03" y2="262.45" stroke="#999" stroke-width="1"/>
<line x1="834.03" y1="224.46" x2="834.03" y2="251.05" stroke="#c33" stroke-width="2"/>
<line x1="840.94" y1="235.61" x2="840.94" y2="257.68" stroke="#999" stroke-width="1"/>
<line x1="840.94" y1="240.80" x2="840.94" y2="251.05" stroke="#2a6" stroke-width="2"/>
<line x1="847.85" y1="222.77" x2="847.85" y2="246.59" stroke="#999" stroke-width="1"/>
<line x1="847.85" y1="224.04" x2="847.85" y2="240.74" stroke="#2a6" stroke-width="2"/>
<line x1="854.76" y1="211.13" x2="854.76" y2="230.13" stroke="#999" stroke-width="1"/>
<line x1="854.76" y1="217.76" x2="854.76" y2="223.98" stroke="#2a6" stroke-width="2"/>
<line x1="861.68" y1="217.58" x2="861.68" y2="236.94" stroke="#999" stroke-width="1"/>
<line x1="861.68" y1="217.76" x2="861.68" y2="230.31" stroke="#c33" stroke-width="2"/>
<line x1="868.59" y1="208.36" x2="868.59" y2="231.21" stroke="#999" stroke-width="1"/>
<line x1="868.59" y1="217.40" x2="868.59" y2="230.67" stroke="#2a6" stroke-width="2"/>
<line x1="875.50" y1="207.94" x2="875.50" y2="230.19" stroke="#999" stroke-width="1"/>
<line x1="875.50" y1="217.34" x2="875.50" y2="229.10" stroke="#c33" stroke-width="2"/>
<line x1="882.41" y1="220.66" x2="882.41" y2="244.78" stroke="#999" stroke-width="1"/>
<line x1="882.41" y1="229.10" x2="882.41" y2="236.70" stroke="#c33" stroke-width="2"/>
<line x1="889.32" y1="238.03" x2="889.32" y2="297.72" stroke="#999" stroke-width="1"/>
<line x1="889.32" y1="238.33" x2="889.32" y2="290.12" stroke="#c33" stroke-width="2"/>
<line x1="896.23" y1="282.17" x2="896.23" y2="301.40" stroke="#999" stroke-width="1"/>
<line x1="896.23" y1="286.93" x2="896.23" y2="290.67" stroke="#2a6" stroke-width="2"/>
<line x1="903.14" y1="256.36" x2="903.14" y2="288.98" stroke="#999" stroke-width="1"/>
<line x1="903.14" y1="273.66" x2="903.14" y2="286.75" stroke="#2a6" stroke-width="2"/>
<line x1="910.05" y1="258.83" x2="910.05" y2="286.45" stroke="#999" stroke-width="1"/>
<line x1="910.05" y1="271.79" x2="910.05" y2="273.72" stroke="#2a6" stroke-width="2"/>
<line x1="916.96" y1="252.68" x2="916.96" y2="294.65" stroke="#999" stroke-width="1"/>
<line x1="916.96" y1="270.41" x2="916.96" y2="271.91" stroke="#2a6" stroke-width="2"/>
<line x1="923.87" y1="269.32" x2="923.87" y2="320.27" stroke="#999" stroke-width="1"/>
<line x1="923.87" y1="270.41" x2="923.87" y2="297.00" stroke="#c33" stroke-width="2"/>
<line x1="930.79" y1="294.53" x2="930.79" y2="374.85" stroke="#999" stroke-width="1"/>
<line x1="930.79" y1="297.00" x2="930.79" y2="346.93" stroke="#c33" stroke-width="2"/>
<line x1="937.70" y1="328.90" x2="937.70" y2="372.07" stroke="#999" stroke-width="1"/>
<line x1="937.70" y1="330.59" x2="937.70" y2="346.93" stroke="#2a6" stroke-width="2"/>
<line x1="944.61" y1="298.75" x2="944.61" y2="332.64" stroke="#999" stroke-width="1"/>
<line x1="944.61" y1="318.41" x2="944.61" y2="331.01" stroke="#2a6" stroke-width="2"/>
<line x1="951.52" y1="298.27" x2="951.52" y2="328.29" stroke="#999" stroke-width="1"/>
<line x1="951.52" y1="315.69" x2="951.52" y2="318.41" stroke="#2a6" stroke-width="2"/>
<line x1="958.43" y1="289.40" x2="958.43" y2="317.50" stroke="#999" stroke-width="1"/>
<line x1="958.43" y1="300.80" x2="958.43" y2="315.57" stroke="#2a6" stroke-width="2"/>
<line x1="965.34" y1="298.63" x2="965.34" y2="315.03" stroke="#999" stroke-width="1"/>
<line x1="965.34" y1="300.80" x2="965.34" y2="308.40" stroke="#c33" stroke-width="2"/>
<line x1="972.25" y1="304.54" x2="972.25" y2="314.91" stroke="#999" stroke-width="1"/>
<line x1="972.25" y1="308.40" x2="972.25" y2="309.36" stroke="#c33" stroke-width="2"/>
<line x1="979.16" y1="148.48" x2="979.16" y2="346.57" stroke="#999" stroke-width="1"/>
<line x1="979.16" y1="314.37" x2="979.16" y2="315.33" stroke="#c33" stroke-width="2"/>
<line x1="986.07" y1="307.07" x2="986.07" y2="322.08" stroke="#999" stroke-width="1"/>
<line x1="986.07" y1="315.33" x2="986.07" y2="320.58" stroke="#c33" stroke-width="2"/>
<line x1="992.98" y1="317.02" x2="992.98" y2="345.66" stroke="#999" stroke-width="1"/>
<line x1="992.98" y1="320.52" x2="992.98" y2="331.01" stroke="#c33" stroke-width="2"/>
<line x1="999.90" y1="307.67" x2="999.90" y2="336.44" stroke="#999" stroke-width="1"/>
<line x1="999.90" y1="316.30" x2="999.90" y2="331.01" stroke="#2a6" stroke-width="2"/>
<line x1="1006.81" y1="293.74" x2="1006.81" y2="319.19" stroke="#999" stroke-width="1"/>
<line x1="1006.81" y1="299.35" x2="1006.81" y2="316.30" stroke="#2a6" stroke-width="2"/>
<line x1="1013.72" y1="291.75" x2="1013.72" y2="309.42" stroke="#999" stroke-width="1"/>
<line x1="1013.72" y1="299.65" x2="1013.72" y2="307.43" stroke="#c33" stroke-width="2"/>
<line x1="1020.63" y1="303.27" x2="1020.63" y2="310.33" stroke="#999" stroke-width="1"/>
<line x1="1020.63" y1="304.48" x2="1020.63" y2="307.43" stroke="#2a6" stroke-width="2"/>
<line x1="1027.54" y1="304.42" x2="1027.54" y2="317.50" stroke="#999" stroke-width="1"/>
<line x1="1027.54" y1="304.48" x2="1027.54" y2="308.64" stroke="#c33" stroke-width="2"/>
<line x1="1034.45" y1="308.64" x2="1034.45" y2="336.44" stroke="#999" stroke-width="1"/>
<line x1="1034.45" y1="308.64" x2="1034.45" y2="331.67" stroke="#c33" stroke-width="2"/>
<line x1="1041.36" y1="313.52" x2="1041.36" y2="334.08" stroke="#999" stroke-width="1"/>
<line x1="1041.36" y1="314.85" x2="1041.36" y2="332.52" stroke="#2a6" stroke-width="2"/>
<line x1="1048.27" y1="280.36" x2="1048.27" y2="315.81" stroke="#999" stroke-width="1"/>
<line x1="1048.27" y1="283.37" x2="1048.27" y2="314.79" stroke="#2a6" stroke-width="2"/>
<line x1="1055.18" y1="250.75" x2="1055.18" y2="283.91" stroke="#999" stroke-width="1"/>
<line x1="1055.18" y1="261.54" x2="1055.18" y2="283.13" stroke="#2a6" stroke-width="2"/>
<line x1="1062.09" y1="235.49" x2="1062.09" y2="262.02" stroke="#999" stroke-width="1"/>
<line x1="1062.09" y1="238.63" x2="1062.09" y2="261.54" stroke="#2a6" stroke-width="2"/>
<line x1="1069.01" y1="228.20" x2="1069.01" y2="271.43" stroke="#999" stroke-width="1"/>
<line x1="1069.01" y1="238.63" x2="1069.01" y2="254.19" stroke="#c33" stroke-width="2"/>
<line x1="1075.92" y1="253.10" x2="1075.92" y2="288.38" stroke="#999" stroke-width="1"/>
<line x1="1075.92" y1="254.55" x2="1075.92" y2="264.44" stroke="#c33" stroke-width="2"/>
<line x1="1082.83" y1="223.13" x2="1082.83" y2="268.18" stroke="#999" stroke-width="1"/>
<line x1="1082.83" y1="226.51" x2="1082.83" y2="264.44" stroke="#2a6" stroke-width="2"/>
<line x1="1089.74" y1="217.28" x2="1089.74" y2="268.05" stroke="#999" stroke-width="1"/>
<line x1="1089.74" y1="226.51" x2="1089.74" y2="246.65" stroke="#c33" stroke-width="2"/>
<line x1="1096.65" y1="242.61" x2="1096.65" y2="282.95" stroke="#999" stroke-width="1"/>
<line x1="1096.65" y1="246.65" x2="1096.65" y2="261.18" stroke="#c33" stroke-width="2"/>
<line x1="1103.56" y1="224.94" x2="1103.56" y2="271.67" stroke="#999" stroke-width="1"/>
<line x1="1103.56" y1="225.36" x2="1103.56" y2="261.12" stroke="#2a6" stroke-width="2"/>
<line x1="1110.47" y1="211.31" x2="1110.47" y2="228.92" stroke="#999" stroke-width="1"/>
<line x1="1110.47" y1="218.19" x2="1110.47" y2="225.36" stroke="#2a6" stroke-width="2"/>
<line x1="1117.38" y1="197.75" x2="1117.38" y2="218.07" stroke="#999" stroke-width="1"/>
<line x1="1117.38" y1="201.06" x2="1117.38" y2="217.82" stroke="#2a6" stroke-width="2"/>
<line x1="1124.29" y1="148.06" x2="1124.29" y2="208.12" stroke="#999" stroke-width="1"/>
<line x1="1124.29" y1="158.13" x2="1124.29" y2="201.00" stroke="#2a6" stroke-width="2"/>
<line x1="1131.20" y1="153.24" x2="1131.20" y2="171.94" stroke="#999" stroke-width="1"/>
<line x1="1131.20" y1="158.43" x2="1131.20" y2="168.68" stroke="#c33" stroke-width="2"/>
<line x1="1138.12" y1="41.09" x2="1138.12" y2="214.63" stroke="#999" stroke-width="1"/>
<line x1="1138.12" y1="168.20" x2="1138.12" y2="184.66" stroke="#2a6" stroke-width="2"/>
<line x1="1145.03" y1="156.26" x2="1145.03" y2="168.44" stroke="#999" stroke-width="1"/>
<line x1="1145.03" y1="161.02" x2="1145.03" y2="168.14" stroke="#2a6" stroke-width="2"/>
<line x1="1151.94" y1="145.77" x2="1151.94" y2="165.42" stroke="#999" stroke-width="1"/>
<line x1="1151.94" y1="158.07" x2="1151.94" y2="161.56" stroke="#2a6" stroke-width="2"/>
<line x1="1158.85" y1="147.03" x2="1158.85" y2="189.66" stroke="#999" stroke-width="1"/>
<line x1="1158.85" y1="158.73" x2="1158.85" y2="185.32" stroke="#c33" stroke-width="2"/>
<line x1="1165.76" y1="176.88" x2="1165.76" y2="199.19" stroke="#999" stroke-width="1"/>
<line x1="1165.76" y1="185.20" x2="1165.76" y2="189.24" stroke="#c33" stroke-width="2"/>
<line x1="1172.67" y1="185.14" x2="1172.67" y2="205.40" stroke="#999" stroke-width="1"/>
<line x1="1172.67" y1="189.36" x2="1172.67" y2="204.74" stroke="#c33" stroke-width="2"/>
<line x1="1179.58" y1="193.52" x2="1179.58" y2="211.49" stroke="#999" stroke-width="1"/>
<line x1="1179.58" y1="195.82" x2="1179.58" y2="204.74" stroke="#2a6" stroke-width="2"/>
<line x1="1186.49" y1="194.73" x2="1186.49" y2="210.53" stroke="#999" stroke-width="1"/>
<line x1="1186.49" y1="195.51" x2="1186.49" y2="207.94" stroke="#c33" stroke-width="2"/>
<line x1="1193.40" y1="178.09" x2="1193.40" y2="212.82" stroke="#999" stroke-width="1"/>
<line x1="1193.40" y1="188.70" x2="1193.40" y2="207.94" stroke="#2a6" stroke-width="2"/>
<line x1="1200.31" y1="173.50" x2="1200.31" y2="193.10" stroke="#999" stroke-width="1"/>
<line x1="1200.31" y1="173.87" x2="1200.31" y2="188.64" stroke="#2a6" stroke-width="2"/>
<line x1="1207.23" y1="161.99" x2="1207.23" y2="193.04" stroke="#999" stroke-width="1"/>
<line x1="1207.23" y1="173.87" x2="1207.23" y2="192.56" stroke="#c33" stroke-width="2"/>
<line x1="1214.14" y1="189.24" x2="1214.14" y2="210.29" stroke="#999" stroke-width="1"/>
<line x1="1214.14" y1="192.62" x2="1214.14" y2="193.77" stroke="#c33" stroke-width="2"/>
<line x1="1221.05" y1="154.03" x2="1221.05" y2="194.25" stroke="#999" stroke-width="1"/>
<line x1="1221.05" y1="175.01" x2="1221.05" y2="193.89" stroke="#2a6" stroke-width="2"/>
<line x1="1227.96" y1="96.56" x2="1227.96" y2="175.25" stroke="#999" stroke-width="1"/>
<line x1="1227.96" y1="98.91" x2="1227.96" y2="174.71" stroke="#2a6" stroke-width="2"/>
<line x1="1234.87" y1="90.11" x2="1234.87" y2="182.67" stroke="#999" stroke-width="1"/>
<line x1="1234.87" y1="98.25" x2="1234.87" y2="142.03" stroke="#c33" stroke-width="2"/>
<line x1="1241.78" y1="94.21" x2="1241.78" y2="159.09" stroke="#999" stroke-width="1"/>
<line x1="1241.78" y1="116.64" x2="1241.78" y2="142.03" stroke="#2a6" stroke-width="2"/>
<line x1="1248.69" y1="42.71" x2="1248.69" y2="132.38" stroke="#999" stroke-width="1"/>
<line x1="1248.69" y1="46.45" x2="1248.69" y2="117.00" stroke="#2a6" stroke-width="2"/>
<line x1="1255.60" y1="43.50" x2="1255.60" y2="85.23" stroke="#999" stroke-width="1"/>
<line x1="1255.60" y1="48.32" x2="1255.60" y2="59.24" stroke="#c33" stroke-width="2"/>
<line x1="1262.51" y1="40.00" x2="1262.51" y2="73.23" stroke="#999" stroke-width="1"/>
<line x1="1262.51" y1="59.24" x2="1262.51" y2="60.56" stroke="#c33" stroke-width="2"/>
<line x1="1269.42" y1="45.85" x2="1269.42" y2="72.08" stroke="#999" stroke-width="1"/>
<line x1="1269.42" y1="47.48" x2="1269.42" y2="61.23" stroke="#2a6" stroke-width="2"/>
<line x1="1276.34" y1="42.41" x2="1276.34" y2="68.52" stroke="#999" stroke-width="1"/>
<line x1="1276.34" y1="47.72" x2="1276.34" y2="64.42" stroke="#c33" stroke-width="2"/>
<line x1="1283.25" y1="54.41" x2="1283.25" y2="72.68" stroke="#999" stroke-width="1"/>
<line x1="1283.25" y1="64.66" x2="1283.25" y2="68.22" stroke="#c33" stroke-width="2"/>
<line x1="1290.16" y1="62.97" x2="1290.16" y2="100.54" stroke="#999" stroke-width="1"/>
<line x1="1290.16" y1="68.10" x2="1290.16" y2="95.78" stroke="#c33" stroke-width="2"/>
<line x1="1297.07" y1="52.18" x2="1297.07" y2="180.38" stroke="#999" stroke-width="1"/>
<line x1="1297.07" y1="87.70" x2="1297.07" y2="98.19" stroke="#2a6" stroke-width="2"/>
<line x1="1303.98" y1="76.24" x2="1303.98" y2="91.07" stroke="#999" stroke-width="1"/>
<line x1="1303.98" y1="81.31" x2="1303.98" y2="87.70" stroke="#2a6" stroke-width="2"/>
<line x1="1310.89" y1="59.66" x2="1310.89" y2="90.59" stroke="#999" stroke-width="1"/>
<line x1="1310.89" y1="60.80" x2="1310.89" y2="81.31" stroke="#2a6" stroke-width="2"/>
<line x1="1317.80" y1="57.79" x2="1317.80" y2="80.34" stroke="#999" stroke-width="1"/>
<line x1="1317.80" y1="60.74" x2="1317.80" y2="74.85" stroke="#c33" stroke-width="2"/>
<line x1="1324.71" y1="51.03" x2="1324.71" y2="75.88" stroke="#999" stroke-width="1"/>
<line x1="1324.71" y1="70.99" x2="1324.71" y2="74.37" stroke="#2a6" stroke-width="2"/>
<line x1="1331.62" y1="57.31" x2="1331.62" y2="74.85" stroke="#999" stroke-width="1"/>
<line x1="1331.62" y1="71.42" x2="1331.62" y2="72.50" stroke="#c33" stroke-width="2"/>
<line x1="1338.53" y1="62.49" x2="1338.53" y2="80.10" stroke="#999" stroke-width="1"/>
<line x1="1338.53" y1="72.50" x2="1338.53" y2="76.42" stroke="#c33" stroke-width="2"/>
<line x1="1345.45" y1="73.59" x2="1345.45" y2="97.35" stroke="#999" stroke-width="1"/>
<line x1="1345.45" y1="76.42" x2="1345.45" y2="84.44" stroke="#c33" stroke-width="2"/>
<line x1="1352.36" y1="81.31" x2="1352.36" y2="104.40" stroke="#999" stroke-width="1"/>
<line x1="1352.36" y1="84.44" x2="1352.36" y2="100.12" stroke="#c33" stroke-width="2"/>
<line x1="1359.27" y1="98.07" x2="1359.27" y2="119.11" stroke="#999" stroke-width="1"/>
<line x1="1359.27" y1="100.12" x2="1359.27" y2="108.68" stroke="#c33" stroke-width="2"/>
<line x1="1366.18" y1="73.23" x2="1366.18" y2="108.62" stroke="#999" stroke-width="1"/>
<line x1="1366.18" y1="102.77" x2="1366.18" y2="107.96" stroke="#2a6" stroke-width="2"/>
<line x1="1373.09" y1="82.93" x2="1373.09" y2="112.48" stroke="#999" stroke-width="1"/>
<line x1="1373.09" y1="100.84" x2="1373.09" y2="102.77" stroke="#2a6" stroke-width="2"/>
<line x1="1380.00" y1="84.32" x2="1380.00" y2="137.93" stroke="#999" stroke-width="1"/>
<line x1="1380.00" y1="100.66" x2="1380.00" y2="134.79" stroke="#c33" stroke-width="2"/>
<polygon points="184.4,478.0 177.4,464.0 191.4,464.0" fill="#0a5" stroke="#000" stroke-width="0.5"/>
<line x1="184.4" y1="470.0" x2="191.3" y2="330.6" stroke="#0a5" stroke-dasharray="3,2" stroke-width="1"/>
<text x="184.4" y="488.0" font-family="Helvetica" font-size="10" fill="#0a5" text-anchor="middle">18 L M/E c19</text>
<polygon points="460.8,131.3 453.8,145.3 467.8,145.3" fill="#a20" stroke="#000" stroke-width="0.5"/>
<line x1="460.8" y1="139.3" x2="467.7" y2="171.9" stroke="#a20" stroke-dasharray="3,2" stroke-width="1"/>
<text x="460.8" y="127.3" font-family="Helvetica" font-size="10" fill="#a20" text-anchor="middle">58 H M/E c59</text>
<polygon points="820.2,385.0 813.2,371.0 827.2,371.0" fill="#0a5" stroke="#000" stroke-width="0.5"/>
<line x1="820.2" y1="377.0" x2="827.1" y2="224.9" stroke="#0a5" stroke-dasharray="3,2" stroke-width="1"/>
<text x="820.2" y="395.0" font-family="Helvetica" font-size="10" fill="#0a5" text-anchor="middle">110 L M/I c111</text>
<polygon points="1138.1,33.1 1131.1,47.1 1145.1,47.1" fill="#a20" stroke="#000" stroke-width="0.5"/>
<line x1="1138.1" y1="41.1" x2="1145.0" y2="161.0" stroke="#a20" stroke-dasharray="3,2" stroke-width="1"/>
<text x="1138.1" y="29.1" font-family="Helvetica" font-size="10" fill="#a20" text-anchor="middle">156 H M/E c157</text>
</svg>
