<svg xmlns="http://www.w3.org/2000/svg" width="1400" height="520">
<rect width="100%" height="100%" fill="#f7f7f4"/>
<text x="60" y="24" font-family="Helvetica" font-size="16" fill="#222">Window 03 AI-assisted draft pivots</text>
<line x1="60.00" y1="299.16" x2="60.00" y2="470.00" stroke="#999" stroke-width="1"/>
<line x1="60.00" y1="328.52" x2="60.00" y2="468.35" stroke="#2a6" stroke-width="2"/>
<line x1="66.91" y1="448.93" x2="66.91" y2="456.84" stroke="#999" stroke-width="1"/>
<line x1="66.91" y1="454.12" x2="66.91" y2="454.12" stroke="#2a6" stroke-width="2"/>
<line x1="73.82" y1="445.07" x2="73.82" y2="460.95" stroke="#999" stroke-width="1"/>
<line x1="73.82" y1="449.69" x2="73.82" y2="454.12" stroke="#2a6" stroke-width="2"/>
<line x1="80.73" y1="427.80" x2="80.73" y2="451.71" stroke="#999" stroke-width="1"/>
<line x1="80.73" y1="431.15" x2="80.73" y2="449.50" stroke="#2a6" stroke-width="2"/>
<line x1="87.64" y1="403.50" x2="87.64" y2="432.67" stroke="#999" stroke-width="1"/>
<line x1="87.64" y1="411.22" x2="87.64" y2="431.15" stroke="#2a6" stroke-width="2"/>
<line x1="94.55" y1="405.78" x2="94.55" y2="421.28" stroke="#999" stroke-width="1"/>
<line x1="94.55" y1="411.22" x2="94.55" y2="411.60" stroke="#c33" stroke-width="2"/>
<line x1="101.47" y1="403.44" x2="101.47" y2="415.27" stroke="#999" stroke-width="1"/>
<line x1="101.47" y1="406.54" x2="101.47" y2="411.66" stroke="#2a6" stroke-width="2"/>
<line x1="108.38" y1="402.80" x2="108.38" y2="413.31" stroke="#999" stroke-width="1"/>
<line x1="108.38" y1="406.41" x2="108.38" y2="411.41" stroke="#c33" stroke-width="2"/>
<line x1="115.29" y1="406.73" x2="115.29" y2="421.41" stroke="#999" stroke-width="1"/>
<line x1="115.29" y1="411.41" x2="115.29" y2="414.13" stroke="#c33" stroke-width="2"/>
<line x1="122.20" y1="408.12" x2="122.20" y2="435.07" stroke="#999" stroke-width="1"/>
<line x1="122.20" y1="415.33" x2="122.20" y2="418.94" stroke="#c33" stroke-width="2"/>
<line x1="129.11" y1="413.31" x2="129.11" y2="425.58" stroke="#999" stroke-width="1"/>
<line x1="129.11" y1="418.69" x2="129.11" y2="421.28" stroke="#c33" stroke-width="2"/>
<line x1="136.02" y1="400.46" x2="136.02" y2="427.42" stroke="#999" stroke-width="1"/>
<line x1="136.02" y1="406.98" x2="136.02" y2="421.28" stroke="#2a6" stroke-width="2"/>
<line x1="142.93" y1="406.09" x2="142.93" y2="418.62" stroke="#999" stroke-width="1"/>
<line x1="142.93" y1="406.98" x2="142.93" y2="406.98" stroke="#2a6" stroke-width="2"/>
<line x1="149.84" y1="394.83" x2="149.84" y2="408.88" stroke="#999" stroke-width="1"/>
<line x1="149.84" y1="401.67" x2="149.84" y2="406.98" stroke="#2a6" stroke-width="2"/>
<line x1="156.75" y1="370.79" x2="156.75" y2="404.20" stroke="#999" stroke-width="1"/>
<line x1="156.75" y1="387.49" x2="156.75" y2="402.11" stroke="#2a6" stroke-width="2"/>
<line x1="163.66" y1="297.90" x2="163.66" y2="464.37" stroke="#999" stroke-width="1"/>
<line x1="163.66" y1="309.92" x2="163.66" y2="387.49" stroke="#2a6" stroke-width="2"/>
<line x1="170.58" y1="299.29" x2="170.58" y2="435.58" stroke="#999" stroke-width="1"/>
<line x1="170.58" y1="309.79" x2="170.58" y2="419.26" stroke="#c33" stroke-width="2"/>
<line x1="177.49" y1="367.50" x2="177.49" y2="431.97" stroke="#999" stroke-width="1"/>
<line x1="177.49" y1="378.70" x2="177.49" y2="418.69" stroke="#2a6" stroke-width="2"/>
<line x1="184.40" y1="346.62" x2="184.40" y2="381.48" stroke="#999" stroke-width="1"/>
<line x1="184.40" y1="354.78" x2="184.40" y2="378.70" stroke="#2a6" stroke-width="2"/>
<line x1="191.31" y1="316.12" x2="191.31" y2="359.65" stroke="#999" stroke-width="1"/>
<line x1="191.31" y1="322.45" x2="191.31" y2="354.78" stroke="#2a6" stroke-width="2"/>
<line x1="198.22" y1="313.65" x2="198.22" y2="345.61" stroke="#999" stroke-width="1"/>
<line x1="198.22" y1="315.17" x2="198.22" y2="322.45" stroke="#2a6" stroke-width="2"/>
<line x1="205.13" y1="310.74" x2="205.13" y2="334.79" stroke="#999" stroke-width="1"/>
<line x1="205.13" y1="315.36" x2="205.13" y2="322.13" stroke="#c33" stroke-width="2"/>
<line x1="212.04" y1="315.87" x2="212.04" y2="344.40" stroke="#999" stroke-width="1"/>
<line x1="212.04" y1="318.21" x2="212.04" y2="322.58" stroke="#2a6" stroke-width="2"/>
<line x1="218.95" y1="311.06" x2="218.95" y2="327.70" stroke="#999" stroke-width="1"/>
<line x1="218.95" y1="318.27" x2="218.95" y2="325.23" stroke="#c33" stroke-width="2"/>
<line x1="225.86" y1="170.09" x2="225.86" y2="357.50" stroke="#999" stroke-width="1"/>
<line x1="225.86" y1="183.50" x2="225.86" y2="335.93" stroke="#2a6" stroke-width="2"/>
<line x1="232.77" y1="317.01" x2="232.77" y2="336.62" stroke="#999" stroke-width="1"/>
<line x1="232.77" y1="320.23" x2="232.77" y2="335.42" stroke="#2a6" stroke-width="2"/>
<line x1="239.69" y1="302.33" x2="239.69" y2="326.43" stroke="#999" stroke-width="1"/>
<line x1="239.69" y1="320.23" x2="239.69" y2="320.36" stroke="#c33" stroke-width="2"/>
<line x1="246.60" y1="311.50" x2="246.60" y2="332.64" stroke="#999" stroke-width="1"/>
<line x1="246.60" y1="315.93" x2="246.60" y2="320.17" stroke="#2a6" stroke-width="2"/>
<line x1="253.51" y1="309.16" x2="253.51" y2="333.90" stroke="#999" stroke-width="1"/>
<line x1="253.51" y1="315.74" x2="253.51" y2="319.41" stroke="#c33" stroke-width="2"/>
<line x1="260.42" y1="317.26" x2="260.42" y2="325.74" stroke="#999" stroke-width="1"/>
<line x1="260.42" y1="319.41" x2="260.42" y2="321.56" stroke="#c33" stroke-width="2"/>
<line x1="267.33" y1="318.46" x2="267.33" y2="334.03" stroke="#999" stroke-width="1"/>
<line x1="267.33" y1="321.69" x2="267.33" y2="333.27" stroke="#c33" stroke-width="2"/>
<line x1="274.24" y1="330.10" x2="274.24" y2="356.68" stroke="#999" stroke-width="1"/>
<line x1="274.24" y1="333.27" x2="274.24" y2="348.26" stroke="#c33" stroke-width="2"/>
<line x1="281.15" y1="325.23" x2="281.15" y2="349.28" stroke="#999" stroke-width="1"/>
<line x1="281.15" y1="332.95" x2="281.15" y2="348.26" stroke="#2a6" stroke-width="2"/>
<line x1="288.06" y1="308.40" x2="288.06" y2="340.54" stroke="#999" stroke-width="1"/>
<line x1="288.06" y1="310.55" x2="288.06" y2="332.95" stroke="#2a6" stroke-width="2"/>
<line x1="294.97" y1="246.52" x2="294.97" y2="320.74" stroke="#999" stroke-width="1"/>
<line x1="294.97" y1="267.09" x2="294.97" y2="310.05" stroke="#2a6" stroke-width="2"/>
<line x1="301.88" y1="251.58" x2="301.88" y2="288.09" stroke="#999" stroke-width="1"/>
<line x1="301.88" y1="267.09" x2="301.88" y2="281.01" stroke="#c33" stroke-width="2"/>
<line x1="308.80" y1="268.16" x2="308.80" y2="282.90" stroke="#999" stroke-width="1"/>
<line x1="308.80" y1="270.00" x2="308.80" y2="281.01" stroke="#2a6" stroke-width="2"/>
<line x1="315.71" y1="263.92" x2="315.71" y2="314.98" stroke="#999" stroke-width="1"/>
<line x1="315.71" y1="269.93" x2="315.71" y2="309.54" stroke="#c33" stroke-width="2"/>
<line x1="322.62" y1="298.85" x2="322.62" y2="346.68" stroke="#999" stroke-width="1"/>
<line x1="322.62" y1="309.67" x2="322.62" y2="329.54" stroke="#c33" stroke-width="2"/>
<line x1="329.53" y1="306.69" x2="329.53" y2="347.95" stroke="#999" stroke-width="1"/>
<line x1="329.53" y1="307.83" x2="329.53" y2="329.41" stroke="#2a6" stroke-width="2"/>
<line x1="336.44" y1="230.01" x2="336.44" y2="313.46" stroke="#999" stroke-width="1"/>
<line x1="336.44" y1="234.56" x2="336.44" y2="307.71" stroke="#2a6" stroke-width="2"/>
<line x1="343.35" y1="203.75" x2="343.35" y2="265.44" stroke="#999" stroke-width="1"/>
<line x1="343.35" y1="221.53" x2="343.35" y2="234.56" stroke="#2a6" stroke-width="2"/>
<line x1="350.26" y1="216.09" x2="350.26" y2="248.74" stroke="#999" stroke-width="1"/>
<line x1="350.26" y1="221.53" x2="350.26" y2="230.51" stroke="#c33" stroke-width="2"/>
<line x1="357.17" y1="195.33" x2="357.17" y2="238.68" stroke="#999" stroke-width="1"/>
<line x1="357.17" y1="200.97" x2="357.17" y2="230.51" stroke="#2a6" stroke-width="2"/>
<line x1="364.08" y1="169.58" x2="364.08" y2="201.91" stroke="#999" stroke-width="1"/>
<line x1="364.08" y1="183.25" x2="364.08" y2="200.78" stroke="#2a6" stroke-width="2"/>
<line x1="370.99" y1="171.80" x2="370.99" y2="186.48" stroke="#999" stroke-width="1"/>
<line x1="370.99" y1="181.22" x2="370.99" y2="182.81" stroke="#2a6" stroke-width="2"/>
<line x1="377.91" y1="172.24" x2="377.91" y2="187.61" stroke="#999" stroke-width="1"/>
<line x1="377.91" y1="177.24" x2="377.91" y2="181.16" stroke="#2a6" stroke-width="2"/>
<line x1="384.82" y1="174.83" x2="384.82" y2="191.28" stroke="#999" stroke-width="1"/>
<line x1="384.82" y1="178.19" x2="384.82" y2="178.31" stroke="#2a6" stroke-width="2"/>
<line x1="391.73" y1="125.67" x2="391.73" y2="240.13" stroke="#999" stroke-width="1"/>
<line x1="391.73" y1="189.07" x2="391.73" y2="210.20" stroke="#c33" stroke-width="2"/>
<line x1="398.64" y1="168.63" x2="398.64" y2="201.22" stroke="#999" stroke-width="1"/>
<line x1="398.64" y1="169.46" x2="398.64" y2="201.03" stroke="#c33" stroke-width="2"/>
<line x1="405.55" y1="182.30" x2="405.55" y2="201.85" stroke="#999" stroke-width="1"/>
<line x1="405.55" y1="187.55" x2="405.55" y2="200.97" stroke="#2a6" stroke-width="2"/>
<line x1="412.46" y1="152.63" x2="412.46" y2="192.68" stroke="#999" stroke-width="1"/>
<line x1="412.46" y1="155.16" x2="412.46" y2="188.75" stroke="#2a6" stroke-width="2"/>
<line x1="419.37" y1="125.99" x2="419.37" y2="164.01" stroke="#999" stroke-width="1"/>
<line x1="419.37" y1="128.45" x2="419.37" y2="155.03" stroke="#2a6" stroke-width="2"/>
<line x1="426.28" y1="124.85" x2="426.28" y2="151.93" stroke="#999" stroke-width="1"/>
<line x1="426.28" y1="128.58" x2="426.28" y2="141.05" stroke="#c33" stroke-width="2"/>
<line x1="433.19" y1="136.81" x2="433.19" y2="168.44" stroke="#999" stroke-width="1"/>
<line x1="433.19" y1="140.98" x2="433.19" y2="166.55" stroke="#c33" stroke-width="2"/>
<line x1="440.10" y1="166.17" x2="440.10" y2="200.97" stroke="#999" stroke-width="1"/>
<line x1="440.10" y1="166.55" x2="440.10" y2="184.64" stroke="#c33" stroke-width="2"/>
<line x1="447.02" y1="176.10" x2="447.02" y2="223.43" stroke="#999" stroke-width="1"/>
<line x1="447.02" y1="184.58" x2="447.02" y2="208.05" stroke="#c33" stroke-width="2"/>
<line x1="453.93" y1="196.66" x2="453.93" y2="221.85" stroke="#999" stroke-width="1"/>
<line x1="453.93" y1="199.38" x2="453.93" y2="208.05" stroke="#2a6" stroke-width="2"/>
<line x1="460.84" y1="199.64" x2="460.84" y2="239.43" stroke="#999" stroke-width="1"/>
<line x1="460.84" y1="199.64" x2="460.84" y2="233.87" stroke="#c33" stroke-width="2"/>
<line x1="467.75" y1="194.76" x2="467.75" y2="234.82" stroke="#999" stroke-width="1"/>
<line x1="467.75" y1="196.79" x2="467.75" y2="233.74" stroke="#2a6" stroke-width="2"/>
<line x1="474.66" y1="195.33" x2="474.66" y2="214.51" stroke="#999" stroke-width="1"/>
<line x1="474.66" y1="196.79" x2="474.66" y2="209.19" stroke="#c33" stroke-width="2"/>
<line x1="481.57" y1="185.72" x2="481.57" y2="209.13" stroke="#999" stroke-width="1"/>
<line x1="481.57" y1="203.05" x2="481.57" y2="209.13" stroke="#2a6" stroke-width="2"/>
<line x1="488.48" y1="198.69" x2="488.48" y2="215.26" stroke="#999" stroke-width="1"/>
<line x1="488.48" y1="203.24" x2="488.48" y2="213.81" stroke="#c33" stroke-width="2"/>
<line x1="495.39" y1="211.66" x2="495.39" y2="235.89" stroke="#999" stroke-width="1"/>
<line x1="495.39" y1="213.81" x2="495.39" y2="223.43" stroke="#c33" stroke-width="2"/>
<line x1="502.30" y1="206.79" x2="502.30" y2="228.49" stroke="#999" stroke-width="1"/>
<line x1="502.30" y1="210.96" x2="502.30" y2="223.55" stroke="#2a6" stroke-width="2"/>
<line x1="509.21" y1="199.89" x2="509.21" y2="214.70" stroke="#999" stroke-width="1"/>
<line x1="509.21" y1="206.85" x2="509.21" y2="211.09" stroke="#2a6" stroke-width="2"/>
<line x1="516.13" y1="206.03" x2="516.13" y2="221.97" stroke="#999" stroke-width="1"/>
<line x1="516.13" y1="206.60" x2="516.13" y2="221.97" stroke="#c33" stroke-width="2"/>
<line x1="523.04" y1="219.06" x2="523.04" y2="226.91" stroke="#999" stroke-width="1"/>
<line x1="523.04" y1="220.20" x2="523.04" y2="221.91" stroke="#2a6" stroke-width="2"/>
<line x1="529.95" y1="215.71" x2="529.95" y2="220.71" stroke="#999" stroke-width="1"/>
<line x1="529.95" y1="216.66" x2="529.95" y2="220.20" stroke="#2a6" stroke-width="2"/>
<line x1="536.86" y1="208.43" x2="536.86" y2="218.37" stroke="#999" stroke-width="1"/>
<line x1="536.86" y1="210.33" x2="536.86" y2="216.91" stroke="#2a6" stroke-width="2"/>
<line x1="543.77" y1="188.44" x2="543.77" y2="284.86" stroke="#999" stroke-width="1"/>
<line x1="543.77" y1="215.20" x2="543.77" y2="254.87" stroke="#c33" stroke-width="2"/>
<line x1="550.68" y1="191.85" x2="550.68" y2="208.68" stroke="#999" stroke-width="1"/>
<line x1="550.68" y1="194.70" x2="550.68" y2="204.64" stroke="#2a6" stroke-width="2"/>
<line x1="557.59" y1="187.87" x2="557.59" y2="201.60" stroke="#999" stroke-width="1"/>
<line x1="557.59" y1="192.42" x2="557.59" y2="194.64" stroke="#2a6" stroke-width="2"/>
<line x1="564.50" y1="188.50" x2="564.50" y2="226.97" stroke="#999" stroke-width="1"/>
<line x1="564.50" y1="192.49" x2="564.50" y2="225.64" stroke="#c33" stroke-width="2"/>
<line x1="571.41" y1="205.14" x2="571.41" y2="248.17" stroke="#999" stroke-width="1"/>
<line x1="571.41" y1="225.70" x2="571.41" y2="239.81" stroke="#c33" stroke-width="2"/>
<line x1="578.32" y1="235.89" x2="578.32" y2="248.29" stroke="#999" stroke-width="1"/>
<line x1="578.32" y1="239.69" x2="578.32" y2="243.17" stroke="#c33" stroke-width="2"/>
<line x1="585.24" y1="232.85" x2="585.24" y2="256.77" stroke="#999" stroke-width="1"/>
<line x1="585.24" y1="235.95" x2="585.24" y2="243.48" stroke="#2a6" stroke-width="2"/>
<line x1="592.15" y1="224.25" x2="592.15" y2="250.51" stroke="#999" stroke-width="1"/>
<line x1="592.15" y1="235.95" x2="592.15" y2="237.85" stroke="#c33" stroke-width="2"/>
<line x1="599.06" y1="232.22" x2="599.06" y2="264.30" stroke="#999" stroke-width="1"/>
<line x1="599.06" y1="237.85" x2="599.06" y2="262.40" stroke="#c33" stroke-width="2"/>
<line x1="605.97" y1="240.89" x2="605.97" y2="262.53" stroke="#999" stroke-width="1"/>
<line x1="605.97" y1="244.69" x2="605.97" y2="262.53" stroke="#2a6" stroke-width="2"/>
<line x1="612.88" y1="232.35" x2="612.88" y2="252.15" stroke="#999" stroke-width="1"/>
<line x1="612.88" y1="244.75" x2="612.88" y2="247.28" stroke="#c33" stroke-width="2"/>
<line x1="619.79" y1="240.95" x2="619.79" y2="271.01" stroke="#999" stroke-width="1"/>
<line x1="619.79" y1="247.28" x2="619.79" y2="266.26" stroke="#c33" stroke-width="2"/>
<line x1="626.70" y1="257.97" x2="626.70" y2="281.45" stroke="#999" stroke-width="1"/>
<line x1="626.70" y1="266.39" x2="626.70" y2="268.41" stroke="#c33" stroke-width="2"/>
<line x1="633.61" y1="227.29" x2="633.61" y2="269.81" stroke="#999" stroke-width="1"/>
<line x1="633.61" y1="227.79" x2="633.61" y2="268.48" stroke="#2a6" stroke-width="2"/>
<line x1="640.52" y1="220.07" x2="640.52" y2="256.90" stroke="#999" stroke-width="1"/>
<line x1="640.52" y1="227.60" x2="640.52" y2="248.86" stroke="#c33" stroke-width="2"/>
<line x1="647.43" y1="216.91" x2="647.43" y2="263.23" stroke="#999" stroke-width="1"/>
<line x1="647.43" y1="225.64" x2="647.43" y2="248.93" stroke="#2a6" stroke-width="2"/>
<line x1="654.35" y1="202.74" x2="654.35" y2="235.39" stroke="#999" stroke-width="1"/>
<line x1="654.35" y1="222.60" x2="654.35" y2="225.52" stroke="#2a6" stroke-width="2"/>
<line x1="661.26" y1="208.37" x2="661.26" y2="250.89" stroke="#999" stroke-width="1"/>
<line x1="661.26" y1="222.67" x2="661.26" y2="238.17" stroke="#c33" stroke-width="2"/>
<line x1="668.17" y1="223.36" x2="668.17" y2="247.22" stroke="#999" stroke-width="1"/>
<line x1="668.17" y1="231.40" x2="668.17" y2="238.11" stroke="#2a6" stroke-width="2"/>
<line x1="675.08" y1="229.06" x2="675.08" y2="275.18" stroke="#999" stroke-width="1"/>
<line x1="675.08" y1="231.34" x2="675.08" y2="262.59" stroke="#c33" stroke-width="2"/>
<line x1="681.99" y1="257.47" x2="681.99" y2="278.66" stroke="#999" stroke-width="1"/>
<line x1="681.99" y1="262.53" x2="681.99" y2="272.40" stroke="#c33" stroke-width="2"/>
<line x1="688.90" y1="248.80" x2="688.90" y2="283.92" stroke="#999" stroke-width="1"/>
<line x1="688.90" y1="257.72" x2="688.90" y2="272.72" stroke="#2a6" stroke-width="2"/>
<line x1="695.81" y1="239.50" x2="695.81" y2="260.50" stroke="#999" stroke-width="1"/>
<line x1="695.81" y1="249.94" x2="695.81" y2="257.72" stroke="#2a6" stroke-width="2"/>
<line x1="702.72" y1="250.13" x2="702.72" y2="258.61" stroke="#999" stroke-width="1"/>
<line x1="702.72" y1="250.13" x2="702.72" y2="255.06" stroke="#c33" stroke-width="2"/>
<line x1="709.63" y1="146.42" x2="709.63" y2="330.55" stroke="#999" stroke-width="1"/>
<line x1="709.63" y1="256.52" x2="709.63" y2="283.54" stroke="#c33" stroke-width="2"/>
<line x1="716.54" y1="251.08" x2="716.54" y2="258.16" stroke="#999" stroke-width="1"/>
<line x1="716.54" y1="252.79" x2="716.54" y2="256.39" stroke="#2a6" stroke-width="2"/>
<line x1="723.46" y1="249.81" x2="723.46" y2="265.82" stroke="#999" stroke-width="1"/>
<line x1="723.46" y1="252.72" x2="723.46" y2="261.90" stroke="#c33" stroke-width="2"/>
<line x1="730.37" y1="250.70" x2="730.37" y2="267.78" stroke="#999" stroke-width="1"/>
<line x1="730.37" y1="252.72" x2="730.37" y2="261.90" stroke="#2a6" stroke-width="2"/>
<line x1="737.28" y1="242.41" x2="737.28" y2="304.61" stroke="#999" stroke-width="1"/>
<line x1="737.28" y1="252.66" x2="737.28" y2="282.65" stroke="#c33" stroke-width="2"/>
<line x1="744.19" y1="273.73" x2="744.19" y2="312.89" stroke="#999" stroke-width="1"/>
<line x1="744.19" y1="282.40" x2="744.19" y2="306.88" stroke="#c33" stroke-width="2"/>
<line x1="751.10" y1="304.92" x2="751.10" y2="324.85" stroke="#999" stroke-width="1"/>
<line x1="751.10" y1="306.95" x2="751.10" y2="310.81" stroke="#c33" stroke-width="2"/>
<line x1="758.01" y1="310.93" x2="758.01" y2="329.66" stroke="#999" stroke-width="1"/>
<line x1="758.01" y1="311.00" x2="758.01" y2="321.25" stroke="#c33" stroke-width="2"/>
<line x1="764.92" y1="281.07" x2="764.92" y2="322.07" stroke="#999" stroke-width="1"/>
<line x1="764.92" y1="289.17" x2="764.92" y2="321.31" stroke="#2a6" stroke-width="2"/>
<line x1="771.83" y1="251.08" x2="771.83" y2="289.86" stroke="#999" stroke-width="1"/>
<line x1="771.83" y1="258.92" x2="771.83" y2="289.10" stroke="#2a6" stroke-width="2"/>
<line x1="778.74" y1="212.16" x2="778.74" y2="258.80" stroke="#999" stroke-width="1"/>
<line x1="778.74" y1="230.77" x2="778.74" y2="258.80" stroke="#2a6" stroke-width="2"/>
<line x1="785.65" y1="207.23" x2="785.65" y2="243.61" stroke="#999" stroke-width="1"/>
<line x1="785.65" y1="214.00" x2="785.65" y2="230.77" stroke="#2a6" stroke-width="2"/>
<line x1="792.57" y1="213.18" x2="792.57" y2="236.65" stroke="#999" stroke-width="1"/>
<line x1="792.57" y1="214.19" x2="792.57" y2="217.04" stroke="#c33" stroke-width="2"/>
<line x1="799.48" y1="201.72" x2="799.48" y2="219.00" stroke="#999" stroke-width="1"/>
<line x1="799.48" y1="208.87" x2="799.48" y2="217.23" stroke="#2a6" stroke-width="2"/>
<line x1="806.39" y1="193.69" x2="806.39" y2="213.68" stroke="#999" stroke-width="1"/>
<line x1="806.39" y1="198.18" x2="806.39" y2="208.94" stroke="#2a6" stroke-width="2"/>
<line x1="813.30" y1="154.46" x2="813.30" y2="205.46" stroke="#999" stroke-width="1"/>
<line x1="813.30" y1="172.62" x2="813.30" y2="198.18" stroke="#2a6" stroke-width="2"/>
<line x1="820.21" y1="144.27" x2="820.21" y2="189.51" stroke="#999" stroke-width="1"/>
<line x1="820.21" y1="172.81" x2="820.21" y2="172.87" stroke="#2a6" stroke-width="2"/>
<line x1="827.12" y1="168.38" x2="827.12" y2="235.95" stroke="#999" stroke-width="1"/>
<line x1="827.12" y1="172.81" x2="827.12" y2="230.13" stroke="#c33" stroke-width="2"/>
<line x1="834.03" y1="227.41" x2="834.03" y2="270.75" stroke="#999" stroke-width="1"/>
<line x1="834.03" y1="230.20" x2="834.03" y2="254.62" stroke="#c33" stroke-width="2"/>
<line x1="840.94" y1="251.52" x2="840.94" y2="297.71" stroke="#999" stroke-width="1"/>
<line x1="840.94" y1="253.42" x2="840.94" y2="274.55" stroke="#c33" stroke-width="2"/>
<line x1="847.85" y1="266.77" x2="847.85" y2="283.54" stroke="#999" stroke-width="1"/>
<line x1="847.85" y1="274.55" x2="847.85" y2="276.70" stroke="#c33" stroke-width="2"/>
<line x1="854.76" y1="274.42" x2="854.76" y2="288.66" stroke="#999" stroke-width="1"/>
<line x1="854.76" y1="275.69" x2="854.76" y2="276.77" stroke="#2a6" stroke-width="2"/>
<line x1="861.68" y1="275.18" x2="861.68" y2="293.47" stroke="#999" stroke-width="1"/>
<line x1="861.68" y1="275.50" x2="861.68" y2="286.32" stroke="#c33" stroke-width="2"/>
<line x1="868.59" y1="275.37" x2="868.59" y2="288.34" stroke="#999" stroke-width="1"/>
<line x1="868.59" y1="281.83" x2="868.59" y2="286.51" stroke="#2a6" stroke-width="2"/>
<line x1="875.50" y1="86.32" x2="875.50" y2="302.64" stroke="#999" stroke-width="1"/>
<line x1="875.50" y1="105.68" x2="875.50" y2="283.92" stroke="#2a6" stroke-width="2"/>
<line x1="882.41" y1="261.96" x2="882.41" y2="288.03" stroke="#999" stroke-width="1"/>
<line x1="882.41" y1="264.74" x2="882.41" y2="288.03" stroke="#2a6" stroke-width="2"/>
<line x1="889.32" y1="247.79" x2="889.32" y2="276.64" stroke="#999" stroke-width="1"/>
<line x1="889.32" y1="264.17" x2="889.32" y2="275.75" stroke="#c33" stroke-width="2"/>
<line x1="896.23" y1="262.09" x2="896.23" y2="299.67" stroke="#999" stroke-width="1"/>
<line x1="896.23" y1="275.94" x2="896.23" y2="295.75" stroke="#c33" stroke-width="2"/>
<line x1="903.14" y1="259.68" x2="903.14" y2="301.88" stroke="#999" stroke-width="1"/>
<line x1="903.14" y1="262.78" x2="903.14" y2="295.75" stroke="#2a6" stroke-width="2"/>
<line x1="910.05" y1="239.56" x2="910.05" y2="265.44" stroke="#999" stroke-width="1"/>
<line x1="910.05" y1="250.95" x2="910.05" y2="263.42" stroke="#2a6" stroke-width="2"/>
<line x1="916.96" y1="238.68" x2="916.96" y2="253.23" stroke="#999" stroke-width="1"/>
<line x1="916.96" y1="246.08" x2="916.96" y2="251.01" stroke="#2a6" stroke-width="2"/>
<line x1="923.87" y1="243.10" x2="923.87" y2="256.52" stroke="#999" stroke-width="1"/>
<line x1="923.87" y1="244.24" x2="923.87" y2="246.02" stroke="#2a6" stroke-width="2"/>
<line x1="930.79" y1="237.16" x2="930.79" y2="257.59" stroke="#999" stroke-width="1"/>
<line x1="930.79" y1="245.38" x2="930.79" y2="253.48" stroke="#c33" stroke-width="2"/>
<line x1="937.70" y1="226.27" x2="937.70" y2="267.65" stroke="#999" stroke-width="1"/>
<line x1="937.70" y1="236.27" x2="937.70" y2="253.54" stroke="#2a6" stroke-width="2"/>
<line x1="944.61" y1="201.79" x2="944.61" y2="241.71" stroke="#999" stroke-width="1"/>
<line x1="944.61" y1="228.24" x2="944.61" y2="236.08" stroke="#2a6" stroke-width="2"/>
<line x1="951.52" y1="227.35" x2="951.52" y2="247.03" stroke="#999" stroke-width="1"/>
<line x1="951.52" y1="228.17" x2="951.52" y2="242.09" stroke="#c33" stroke-width="2"/>
<line x1="958.43" y1="240.95" x2="958.43" y2="265.00" stroke="#999" stroke-width="1"/>
<line x1="958.43" y1="242.09" x2="958.43" y2="247.34" stroke="#c33" stroke-width="2"/>
<line x1="965.34" y1="242.79" x2="965.34" y2="265.88" stroke="#999" stroke-width="1"/>
<line x1="965.34" y1="247.03" x2="965.34" y2="256.46" stroke="#c33" stroke-width="2"/>
<line x1="972.25" y1="236.02" x2="972.25" y2="260.95" stroke="#999" stroke-width="1"/>
<line x1="972.25" y1="256.58" x2="972.25" y2="256.83" stroke="#c33" stroke-width="2"/>
<line x1="979.16" y1="222.79" x2="979.16" y2="264.87" stroke="#999" stroke-width="1"/>
<line x1="979.16" y1="224.63" x2="979.16" y2="256.96" stroke="#2a6" stroke-width="2"/>
<line x1="986.07" y1="192.93" x2="986.07" y2="227.16" stroke="#999" stroke-width="1"/>
<line x1="986.07" y1="197.17" x2="986.07" y2="224.25" stroke="#2a6" stroke-width="2"/>
<line x1="992.98" y1="160.41" x2="992.98" y2="208.18" stroke="#999" stroke-width="1"/>
<line x1="992.98" y1="193.88" x2="992.98" y2="196.85" stroke="#2a6" stroke-width="2"/>
<line x1="999.90" y1="167.30" x2="999.90" y2="196.22" stroke="#999" stroke-width="1"/>
<line x1="999.90" y1="176.35" x2="999.90" y2="193.69" stroke="#2a6" stroke-width="2"/>
<line x1="1006.81" y1="161.10" x2="1006.81" y2="191.60" stroke="#999" stroke-width="1"/>
<line x1="1006.81" y1="176.35" x2="1006.81" y2="180.91" stroke="#c33" stroke-width="2"/>
<line x1="1013.72" y1="145.85" x2="1013.72" y2="182.74" stroke="#999" stroke-width="1"/>
<line x1="1013.72" y1="149.59" x2="1013.72" y2="180.78" stroke="#2a6" stroke-width="2"/>
<line x1="1020.63" y1="109.47" x2="1020.63" y2="157.94" stroke="#999" stroke-width="1"/>
<line x1="1020.63" y1="120.17" x2="1020.63" y2="150.03" stroke="#2a6" stroke-width="2"/>
<line x1="1027.54" y1="85.56" x2="1027.54" y2="122.51" stroke="#999" stroke-width="1"/>
<line x1="1027.54" y1="96.57" x2="1027.54" y2="120.17" stroke="#2a6" stroke-width="2"/>
<line x1="1034.45" y1="95.81" x2="1034.45" y2="110.99" stroke="#999" stroke-width="1"/>
<line x1="1034.45" y1="96.88" x2="1034.45" y2="107.58" stroke="#c33" stroke-width="2"/>
<line x1="1041.36" y1="71.64" x2="1041.36" y2="177.93" stroke="#999" stroke-width="1"/>
<line x1="1041.36" y1="109.73" x2="1041.36" y2="150.41" stroke="#c33" stroke-width="2"/>
<line x1="1048.27" y1="93.34" x2="1048.27" y2="107.39" stroke="#999" stroke-width="1"/>
<line x1="1048.27" y1="105.04" x2="1048.27" y2="107.32" stroke="#c33" stroke-width="2"/>
<line x1="1055.18" y1="105.11" x2="1055.18" y2="116.69" stroke="#999" stroke-width="1"/>
<line x1="1055.18" y1="107.45" x2="1055.18" y2="115.23" stroke="#c33" stroke-width="2"/>
<line x1="1062.09" y1="87.33" x2="1062.09" y2="121.81" stroke="#999" stroke-width="1"/>
<line x1="1062.09" y1="107.20" x2="1062.09" y2="115.23" stroke="#2a6" stroke-width="2"/>
<line x1="1069.01" y1="102.26" x2="1069.01" y2="122.19" stroke="#999" stroke-width="1"/>
<line x1="1069.01" y1="108.21" x2="1069.01" y2="120.61" stroke="#c33" stroke-width="2"/>
<line x1="1075.92" y1="115.93" x2="1075.92" y2="133.90" stroke="#999" stroke-width="1"/>
<line x1="1075.92" y1="120.74" x2="1075.92" y2="133.45" stroke="#c33" stroke-width="2"/>
<line x1="1082.83" y1="132.00" x2="1082.83" y2="157.94" stroke="#999" stroke-width="1"/>
<line x1="1082.83" y1="133.45" x2="1082.83" y2="157.37" stroke="#c33" stroke-width="2"/>
<line x1="1089.74" y1="130.86" x2="1089.74" y2="161.36" stroke="#999" stroke-width="1"/>
<line x1="1089.74" y1="131.49" x2="1089.74" y2="157.37" stroke="#2a6" stroke-width="2"/>
<line x1="1096.65" y1="123.33" x2="1096.65" y2="142.12" stroke="#999" stroke-width="1"/>
<line x1="1096.65" y1="131.93" x2="1096.65" y2="139.91" stroke="#c33" stroke-width="2"/>
<line x1="1103.56" y1="98.59" x2="1103.56" y2="140.98" stroke="#999" stroke-width="1"/>
<line x1="1103.56" y1="98.97" x2="1103.56" y2="140.10" stroke="#2a6" stroke-width="2"/>
<line x1="1110.47" y1="70.56" x2="1110.47" y2="129.47" stroke="#999" stroke-width="1"/>
<line x1="1110.47" y1="98.97" x2="1110.47" y2="127.06" stroke="#c33" stroke-width="2"/>
<line x1="1117.38" y1="102.26" x2="1117.38" y2="140.10" stroke="#999" stroke-width="1"/>
<line x1="1117.38" y1="121.94" x2="1117.38" y2="127.25" stroke="#2a6" stroke-width="2"/>
<line x1="1124.29" y1="112.57" x2="1124.29" y2="133.26" stroke="#999" stroke-width="1"/>
<line x1="1124.29" y1="118.02" x2="1124.29" y2="121.94" stroke="#2a6" stroke-width="2"/>
<line x1="1131.20" y1="109.47" x2="1131.20" y2="138.14" stroke="#999" stroke-width="1"/>
<line x1="1131.20" y1="117.95" x2="1131.20" y2="136.81" stroke="#c33" stroke-width="2"/>
<line x1="1138.12" y1="123.08" x2="1138.12" y2="138.96" stroke="#999" stroke-width="1"/>
<line x1="1138.12" y1="126.49" x2="1138.12" y2="136.74" stroke="#2a6" stroke-width="2"/>
<line x1="1145.03" y1="120.93" x2="1145.03" y2="156.61" stroke="#999" stroke-width="1"/>
<line x1="1145.03" y1="126.49" x2="1145.03" y2="155.03" stroke="#c33" stroke-width="2"/>
<line x1="1151.94" y1="140.73" x2="1151.94" y2="177.17" stroke="#999" stroke-width="1"/>
<line x1="1151.94" y1="149.78" x2="1151.94" y2="155.22" stroke="#2a6" stroke-width="2"/>
<line x1="1158.85" y1="112.19" x2="1158.85" y2="157.75" stroke="#999" stroke-width="1"/>
<line x1="1158.85" y1="141.36" x2="1158.85" y2="149.40" stroke="#2a6" stroke-width="2"/>
<line x1="1165.76" y1="124.60" x2="1165.76" y2="154.21" stroke="#999" stroke-width="1"/>
<line x1="1165.76" y1="141.11" x2="1165.76" y2="150.85" stroke="#c33" stroke-width="2"/>
<line x1="1172.67" y1="140.10" x2="1172.67" y2="163.89" stroke="#999" stroke-width="1"/>
<line x1="1172.67" y1="148.70" x2="1172.67" y2="150.85" stroke="#2a6" stroke-width="2"/>
<line x1="1179.58" y1="120.55" x2="1179.58" y2="151.55" stroke="#999" stroke-width="1"/>
<line x1="1179.58" y1="121.75" x2="1179.58" y2="148.64" stroke="#2a6" stroke-width="2"/>
<line x1="1186.49" y1="111.75" x2="1186.49" y2="129.09" stroke="#999" stroke-width="1"/>
<line x1="1186.49" y1="120.10" x2="1186.49" y2="121.75" stroke="#2a6" stroke-width="2"/>
<line x1="1193.40" y1="118.33" x2="1193.40" y2="136.74" stroke="#999" stroke-width="1"/>
<line x1="1193.40" y1="120.10" x2="1193.40" y2="135.92" stroke="#c33" stroke-width="2"/>
<line x1="1200.31" y1="133.90" x2="1200.31" y2="142.44" stroke="#999" stroke-width="1"/>
<line x1="1200.31" y1="136.05" x2="1200.31" y2="139.02" stroke="#c33" stroke-width="2"/>
<line x1="1207.23" y1="83.91" x2="1207.23" y2="236.84" stroke="#999" stroke-width="1"/>
<line x1="1207.23" y1="113.33" x2="1207.23" y2="134.85" stroke="#2a6" stroke-width="2"/>
<line x1="1214.14" y1="134.85" x2="1214.14" y2="155.47" stroke="#999" stroke-width="1"/>
<line x1="1214.14" y1="135.60" x2="1214.14" y2="154.90" stroke="#2a6" stroke-width="2"/>
<line x1="1221.05" y1="102.45" x2="1221.05" y2="135.60" stroke="#999" stroke-width="1"/>
<line x1="1221.05" y1="103.65" x2="1221.05" y2="135.60" stroke="#2a6" stroke-width="2"/>
<line x1="1227.96" y1="94.03" x2="1227.96" y2="115.48" stroke="#999" stroke-width="1"/>
<line x1="1227.96" y1="102.45" x2="1227.96" y2="103.84" stroke="#2a6" stroke-width="2"/>
<line x1="1234.87" y1="82.90" x2="1234.87" y2="106.82" stroke="#999" stroke-width="1"/>
<line x1="1234.87" y1="102.70" x2="1234.87" y2="106.31" stroke="#c33" stroke-width="2"/>
<line x1="1241.78" y1="98.08" x2="1241.78" y2="114.22" stroke="#999" stroke-width="1"/>
<line x1="1241.78" y1="105.61" x2="1241.78" y2="114.22" stroke="#c33" stroke-width="2"/>
<line x1="1248.69" y1="110.55" x2="1248.69" y2="126.24" stroke="#999" stroke-width="1"/>
<line x1="1248.69" y1="114.22" x2="1248.69" y2="120.74" stroke="#c33" stroke-width="2"/>
<line x1="1255.60" y1="118.90" x2="1255.60" y2="143.07" stroke="#999" stroke-width="1"/>
<line x1="1255.60" y1="120.99" x2="1255.60" y2="142.25" stroke="#c33" stroke-width="2"/>
<line x1="1262.51" y1="140.48" x2="1262.51" y2="174.58" stroke="#999" stroke-width="1"/>
<line x1="1262.51" y1="142.25" x2="1262.51" y2="164.84" stroke="#c33" stroke-width="2"/>
<line x1="1269.42" y1="161.04" x2="1269.42" y2="183.44" stroke="#999" stroke-width="1"/>
<line x1="1269.42" y1="165.41" x2="1269.42" y2="179.64" stroke="#c33" stroke-width="2"/>
<line x1="1276.34" y1="134.02" x2="1276.34" y2="188.50" stroke="#999" stroke-width="1"/>
<line x1="1276.34" y1="156.67" x2="1276.34" y2="179.71" stroke="#2a6" stroke-width="2"/>
<line x1="1283.25" y1="143.26" x2="1283.25" y2="168.44" stroke="#999" stroke-width="1"/>
<line x1="1283.25" y1="143.70" x2="1283.25" y2="156.04" stroke="#2a6" stroke-width="2"/>
<line x1="1290.16" y1="122.19" x2="1290.16" y2="144.27" stroke="#999" stroke-width="1"/>
<line x1="1290.16" y1="140.92" x2="1290.16" y2="143.58" stroke="#2a6" stroke-width="2"/>
<line x1="1297.07" y1="139.78" x2="1297.07" y2="155.16" stroke="#999" stroke-width="1"/>
<line x1="1297.07" y1="140.98" x2="1297.07" y2="146.23" stroke="#c33" stroke-width="2"/>
<line x1="1303.98" y1="131.93" x2="1303.98" y2="161.67" stroke="#999" stroke-width="1"/>
<line x1="1303.98" y1="139.40" x2="1303.98" y2="146.23" stroke="#2a6" stroke-width="2"/>
<line x1="1310.89" y1="132.44" x2="1310.89" y2="190.15" stroke="#999" stroke-width="1"/>
<line x1="1310.89" y1="139.65" x2="1310.89" y2="169.33" stroke="#c33" stroke-width="2"/>
<line x1="1317.80" y1="155.98" x2="1317.80" y2="224.12" stroke="#999" stroke-width="1"/>
<line x1="1317.80" y1="169.65" x2="1317.80" y2="202.48" stroke="#c33" stroke-width="2"/>
<line x1="1324.71" y1="153.83" x2="1324.71" y2="235.95" stroke="#999" stroke-width="1"/>
<line x1="1324.71" y1="162.81" x2="1324.71" y2="202.48" stroke="#2a6" stroke-width="2"/>
<line x1="1331.62" y1="141.24" x2="1331.62" y2="174.01" stroke="#999" stroke-width="1"/>
<line x1="1331.62" y1="162.75" x2="1331.62" y2="167.18" stroke="#c33" stroke-width="2"/>
<line x1="1338.53" y1="154.90" x2="1338.53" y2="186.73" stroke="#999" stroke-width="1"/>
<line x1="1338.53" y1="156.80" x2="1338.53" y2="167.30" stroke="#2a6" stroke-width="2"/>
<line x1="1345.45" y1="120.80" x2="1345.45" y2="157.43" stroke="#999" stroke-width="1"/>
<line x1="1345.45" y1="132.06" x2="1345.45" y2="156.74" stroke="#2a6" stroke-width="2"/>
<line x1="1352.36" y1="123.71" x2="1352.36" y2="151.17" stroke="#999" stroke-width="1"/>
<line x1="1352.36" y1="132.00" x2="1352.36" y2="140.92" stroke="#c33" stroke-width="2"/>
<line x1="1359.27" y1="106.82" x2="1359.27" y2="143.51" stroke="#999" stroke-width="1"/>
<line x1="1359.27" y1="110.42" x2="1359.27" y2="140.92" stroke="#2a6" stroke-width="2"/>
<line x1="1366.18" y1="107.89" x2="1366.18" y2="114.91" stroke="#999" stroke-width="1"/>
<line x1="1366.18" y1="108.46" x2="1366.18" y2="110.99" stroke="#2a6" stroke-width="2"/>
<line x1="1373.09" y1="40.00" x2="1373.09" y2="199.83" stroke="#999" stroke-width="1"/>
<line x1="1373.09" y1="73.28" x2="1373.09" y2="113.59" stroke="#2a6" stroke-width="2"/>
<line x1="1380.00" y1="101.12" x2="1380.00" y2="112.19" stroke="#999" stroke-width="1"/>
<line x1="1380.00" y1="109.73" x2="1380.00" y2="112.19" stroke="#2a6" stroke-width="2"/>
<polygon points="391.7,117.7 384.7,131.7 398.7,131.7" fill="#a20" stroke="#000" stroke-width="0.5"/>
<line x1="391.7" y1="125.7" x2="398.6" y2="201.0" stroke="#a20" stroke-dasharray="3,2" stroke-width="1"/>
<text x="391.7" y="113.7" font-family="Helvetica" font-size="10" fill="#a20" text-anchor="middle">48 H M/E c49</text>
<polygon points="543.8,292.9 536.8,278.9 550.8,278.9" fill="#0a5" stroke="#000" stroke-width="0.5"/>
<line x1="543.8" y1="284.9" x2="550.7" y2="194.7" stroke="#0a5" stroke-dasharray="3,2" stroke-width="1"/>
<text x="543.8" y="302.9" font-family="Helvetica" font-size="10" fill="#0a5" text-anchor="middle">70 L M/I c71</text>
<polygon points="654.3,194.7 647.3,208.7 661.3,208.7" fill="#a20" stroke="#000" stroke-width="0.5"/>
<line x1="654.3" y1="202.7" x2="661.3" y2="238.2" stroke="#a20" stroke-dasharray="3,2" stroke-width="1"/>
<text x="654.3" y="190.7" font-family="Helvetica" font-size="10" fill="#a20" text-anchor="middle">86 H M/I c87</text>
<polygon points="709.6,338.5 702.6,324.5 716.6,324.5" fill="#0a5" stroke="#000" stroke-width="0.5"/>
<line x1="709.6" y1="330.5" x2="716.5" y2="252.8" stroke="#0a5" stroke-dasharray="3,2" stroke-width="1"/>
<text x="709.6" y="348.5" font-family="Helvetica" font-size="10" fill="#0a5" text-anchor="middle">94 L M/I c95</text>
</svg>
