<svg xmlns="http://www.w3.org/2000/svg" width="1400" height="520">
<rect width="100%" height="100%" fill="#f7f7f4"/>
<text x="60" y="24" font-family="Helvetica" font-size="16" fill="#222">Window 02 AI-assisted draft pivots</text>
<line x1="60.00" y1="116.25" x2="60.00" y2="129.67" stroke="#999" stroke-width="1"/>
<line x1="60.00" y1="116.54" x2="60.00" y2="123.42" stroke="#c33" stroke-width="2"/>
<line x1="66.91" y1="121.53" x2="66.91" y2="141.02" stroke="#999" stroke-width="1"/>
<line x1="66.91" y1="123.42" x2="66.91" y2="137.47" stroke="#c33" stroke-width="2"/>
<line x1="73.82" y1="114.53" x2="73.82" y2="138.15" stroke="#999" stroke-width="1"/>
<line x1="73.82" y1="114.71" x2="73.82" y2="137.75" stroke="#2a6" stroke-width="2"/>
<line x1="80.73" y1="40.00" x2="80.73" y2="141.88" stroke="#999" stroke-width="1"/>
<line x1="80.73" y1="45.73" x2="80.73" y2="115.16" stroke="#2a6" stroke-width="2"/>
<line x1="87.64" y1="116.54" x2="87.64" y2="125.60" stroke="#999" stroke-width="1"/>
<line x1="87.64" y1="116.65" x2="87.64" y2="125.14" stroke="#c33" stroke-width="2"/>
<line x1="94.55" y1="115.11" x2="94.55" y2="129.27" stroke="#999" stroke-width="1"/>
<line x1="94.55" y1="118.60" x2="94.55" y2="125.14" stroke="#2a6" stroke-width="2"/>
<line x1="101.47" y1="115.11" x2="101.47" y2="131.16" stroke="#999" stroke-width="1"/>
<line x1="101.47" y1="118.72" x2="101.47" y2="121.93" stroke="#c33" stroke-width="2"/>
<line x1="108.38" y1="117.92" x2="108.38" y2="131.33" stroke="#999" stroke-width="1"/>
<line x1="108.38" y1="121.93" x2="108.38" y2="128.81" stroke="#c33" stroke-width="2"/>
<line x1="115.29" y1="117.34" x2="115.29" y2="133.85" stroke="#999" stroke-width="1"/>
<line x1="115.29" y1="119.18" x2="115.29" y2="128.81" stroke="#2a6" stroke-width="2"/>
<line x1="122.20" y1="104.21" x2="122.20" y2="120.09" stroke="#999" stroke-width="1"/>
<line x1="122.20" y1="106.16" x2="122.20" y2="119.18" stroke="#2a6" stroke-width="2"/>
<line x1="129.11" y1="98.02" x2="129.11" y2="109.83" stroke="#999" stroke-width="1"/>
<line x1="129.11" y1="106.22" x2="129.11" y2="108.28" stroke="#c33" stroke-width="2"/>
<line x1="136.02" y1="97.91" x2="136.02" y2="111.90" stroke="#999" stroke-width="1"/>
<line x1="136.02" y1="108.40" x2="136.02" y2="109.03" stroke="#c33" stroke-width="2"/>
<line x1="142.93" y1="92.75" x2="142.93" y2="109.95" stroke="#999" stroke-width="1"/>
<line x1="142.93" y1="93.84" x2="142.93" y2="109.03" stroke="#2a6" stroke-width="2"/>
<line x1="149.84" y1="88.96" x2="149.84" y2="127.95" stroke="#999" stroke-width="1"/>
<line x1="149.84" y1="93.95" x2="149.84" y2="119.64" stroke="#c33" stroke-width="2"/>
<line x1="156.75" y1="113.79" x2="156.75" y2="135.12" stroke="#999" stroke-width="1"/>
<line x1="156.75" y1="119.69" x2="156.75" y2="127.72" stroke="#c33" stroke-width="2"/>
<line x1="163.66" y1="120.38" x2="163.66" y2="134.83" stroke="#999" stroke-width="1"/>
<line x1="163.66" y1="126.97" x2="163.66" y2="127.83" stroke="#2a6" stroke-width="2"/>
<line x1="170.58" y1="121.47" x2="170.58" y2="136.38" stroke="#999" stroke-width="1"/>
<line x1="170.58" y1="123.42" x2="170.58" y2="126.23" stroke="#2a6" stroke-width="2"/>
<line x1="177.49" y1="114.76" x2="177.49" y2="141.94" stroke="#999" stroke-width="1"/>
<line x1="177.49" y1="123.53" x2="177.49" y2="139.36" stroke="#c33" stroke-width="2"/>
<line x1="184.40" y1="87.41" x2="184.40" y2="141.59" stroke="#999" stroke-width="1"/>
<line x1="184.40" y1="92.98" x2="184.40" y2="139.42" stroke="#2a6" stroke-width="2"/>
<line x1="191.31" y1="62.59" x2="191.31" y2="97.91" stroke="#999" stroke-width="1"/>
<line x1="191.31" y1="66.55" x2="191.31" y2="92.92" stroke="#2a6" stroke-width="2"/>
<line x1="198.22" y1="66.26" x2="198.22" y2="110.12" stroke="#999" stroke-width="1"/>
<line x1="198.22" y1="66.26" x2="198.22" y2="94.64" stroke="#c33" stroke-width="2"/>
<line x1="205.13" y1="68.84" x2="205.13" y2="99.23" stroke="#999" stroke-width="1"/>
<line x1="205.13" y1="84.38" x2="205.13" y2="94.64" stroke="#2a6" stroke-width="2"/>
<line x1="212.04" y1="63.16" x2="212.04" y2="84.38" stroke="#999" stroke-width="1"/>
<line x1="212.04" y1="71.65" x2="212.04" y2="84.38" stroke="#2a6" stroke-width="2"/>
<line x1="218.95" y1="44.19" x2="218.95" y2="71.99" stroke="#999" stroke-width="1"/>
<line x1="218.95" y1="61.33" x2="218.95" y2="71.59" stroke="#2a6" stroke-width="2"/>
<line x1="225.86" y1="44.41" x2="225.86" y2="65.91" stroke="#999" stroke-width="1"/>
<line x1="225.86" y1="47.97" x2="225.86" y2="61.27" stroke="#2a6" stroke-width="2"/>
<line x1="232.77" y1="43.15" x2="232.77" y2="57.43" stroke="#999" stroke-width="1"/>
<line x1="232.77" y1="46.99" x2="232.77" y2="47.51" stroke="#2a6" stroke-width="2"/>
<line x1="239.69" y1="44.47" x2="239.69" y2="54.10" stroke="#999" stroke-width="1"/>
<line x1="239.69" y1="44.93" x2="239.69" y2="46.82" stroke="#2a6" stroke-width="2"/>
<line x1="246.60" y1="42.87" x2="246.60" y2="210.97" stroke="#999" stroke-width="1"/>
<line x1="246.60" y1="42.87" x2="246.60" y2="173.19" stroke="#c33" stroke-width="2"/>
<line x1="253.51" y1="45.73" x2="253.51" y2="57.77" stroke="#999" stroke-width="1"/>
<line x1="253.51" y1="49.35" x2="253.51" y2="53.59" stroke="#c33" stroke-width="2"/>
<line x1="260.42" y1="52.21" x2="260.42" y2="60.70" stroke="#999" stroke-width="1"/>
<line x1="260.42" y1="53.53" x2="260.42" y2="60.07" stroke="#c33" stroke-width="2"/>
<line x1="267.33" y1="46.19" x2="267.33" y2="62.13" stroke="#999" stroke-width="1"/>
<line x1="267.33" y1="48.20" x2="267.33" y2="60.47" stroke="#2a6" stroke-width="2"/>
<line x1="274.24" y1="45.16" x2="274.24" y2="73.83" stroke="#999" stroke-width="1"/>
<line x1="274.24" y1="48.20" x2="274.24" y2="69.76" stroke="#c33" stroke-width="2"/>
<line x1="281.15" y1="69.64" x2="281.15" y2="85.35" stroke="#999" stroke-width="1"/>
<line x1="281.15" y1="69.64" x2="281.15" y2="76.58" stroke="#c33" stroke-width="2"/>
<line x1="288.06" y1="73.31" x2="288.06" y2="89.65" stroke="#999" stroke-width="1"/>
<line x1="288.06" y1="76.64" x2="288.06" y2="81.68" stroke="#c33" stroke-width="2"/>
<line x1="294.97" y1="81.22" x2="294.97" y2="91.71" stroke="#999" stroke-width="1"/>
<line x1="294.97" y1="81.62" x2="294.97" y2="87.01" stroke="#c33" stroke-width="2"/>
<line x1="301.88" y1="85.52" x2="301.88" y2="99.91" stroke="#999" stroke-width="1"/>
<line x1="301.88" y1="87.01" x2="301.88" y2="98.88" stroke="#c33" stroke-width="2"/>
<line x1="308.80" y1="95.44" x2="308.80" y2="104.21" stroke="#999" stroke-width="1"/>
<line x1="308.80" y1="98.82" x2="308.80" y2="103.18" stroke="#c33" stroke-width="2"/>
<line x1="315.71" y1="101.46" x2="315.71" y2="134.66" stroke="#999" stroke-width="1"/>
<line x1="315.71" y1="103.30" x2="315.71" y2="130.41" stroke="#c33" stroke-width="2"/>
<line x1="322.62" y1="123.36" x2="322.62" y2="159.71" stroke="#999" stroke-width="1"/>
<line x1="322.62" y1="130.87" x2="322.62" y2="149.74" stroke="#c33" stroke-width="2"/>
<line x1="329.53" y1="144.12" x2="329.53" y2="182.65" stroke="#999" stroke-width="1"/>
<line x1="329.53" y1="149.74" x2="329.53" y2="172.33" stroke="#c33" stroke-width="2"/>
<line x1="336.44" y1="164.36" x2="336.44" y2="199.44" stroke="#999" stroke-width="1"/>
<line x1="336.44" y1="172.27" x2="336.44" y2="179.38" stroke="#c33" stroke-width="2"/>
<line x1="343.35" y1="179.26" x2="343.35" y2="210.17" stroke="#999" stroke-width="1"/>
<line x1="343.35" y1="179.43" x2="343.35" y2="198.01" stroke="#c33" stroke-width="2"/>
<line x1="350.26" y1="132.77" x2="350.26" y2="209.94" stroke="#999" stroke-width="1"/>
<line x1="350.26" y1="170.03" x2="350.26" y2="197.90" stroke="#2a6" stroke-width="2"/>
<line x1="357.17" y1="154.27" x2="357.17" y2="192.33" stroke="#999" stroke-width="1"/>
<line x1="357.17" y1="169.97" x2="357.17" y2="182.30" stroke="#c33" stroke-width="2"/>
<line x1="364.08" y1="174.10" x2="364.08" y2="194.40" stroke="#999" stroke-width="1"/>
<line x1="364.08" y1="175.42" x2="364.08" y2="182.30" stroke="#2a6" stroke-width="2"/>
<line x1="370.99" y1="161.66" x2="370.99" y2="183.39" stroke="#999" stroke-width="1"/>
<line x1="370.99" y1="165.45" x2="370.99" y2="175.48" stroke="#2a6" stroke-width="2"/>
<line x1="377.91" y1="152.60" x2="377.91" y2="175.19" stroke="#999" stroke-width="1"/>
<line x1="377.91" y1="154.15" x2="377.91" y2="164.99" stroke="#2a6" stroke-width="2"/>
<line x1="384.82" y1="146.18" x2="384.82" y2="169.40" stroke="#999" stroke-width="1"/>
<line x1="384.82" y1="154.09" x2="384.82" y2="168.83" stroke="#c33" stroke-width="2"/>
<line x1="391.73" y1="168.71" x2="391.73" y2="184.37" stroke="#999" stroke-width="1"/>
<line x1="391.73" y1="169.46" x2="391.73" y2="177.37" stroke="#c33" stroke-width="2"/>
<line x1="398.64" y1="165.10" x2="398.64" y2="178.29" stroke="#999" stroke-width="1"/>
<line x1="398.64" y1="175.71" x2="398.64" y2="177.03" stroke="#2a6" stroke-width="2"/>
<line x1="405.55" y1="167.51" x2="405.55" y2="178.12" stroke="#999" stroke-width="1"/>
<line x1="405.55" y1="176.34" x2="405.55" y2="176.97" stroke="#c33" stroke-width="2"/>
<line x1="412.46" y1="152.83" x2="412.46" y2="219.57" stroke="#999" stroke-width="1"/>
<line x1="412.46" y1="171.29" x2="412.46" y2="194.97" stroke="#c33" stroke-width="2"/>
<line x1="419.37" y1="171.58" x2="419.37" y2="179.61" stroke="#999" stroke-width="1"/>
<line x1="419.37" y1="173.36" x2="419.37" y2="178.69" stroke="#c33" stroke-width="2"/>
<line x1="426.28" y1="172.67" x2="426.28" y2="182.65" stroke="#999" stroke-width="1"/>
<line x1="426.28" y1="178.40" x2="426.28" y2="178.69" stroke="#2a6" stroke-width="2"/>
<line x1="433.19" y1="172.04" x2="433.19" y2="183.73" stroke="#999" stroke-width="1"/>
<line x1="433.19" y1="177.94" x2="433.19" y2="183.10" stroke="#c33" stroke-width="2"/>
<line x1="440.10" y1="166.42" x2="440.10" y2="188.09" stroke="#999" stroke-width="1"/>
<line x1="440.10" y1="173.07" x2="440.10" y2="183.10" stroke="#2a6" stroke-width="2"/>
<line x1="447.02" y1="155.13" x2="447.02" y2="173.24" stroke="#999" stroke-width="1"/>
<line x1="447.02" y1="155.76" x2="447.02" y2="173.24" stroke="#2a6" stroke-width="2"/>
<line x1="453.93" y1="152.20" x2="453.93" y2="162.64" stroke="#999" stroke-width="1"/>
<line x1="453.93" y1="155.76" x2="453.93" y2="162.52" stroke="#c33" stroke-width="2"/>
<line x1="460.84" y1="157.82" x2="460.84" y2="166.36" stroke="#999" stroke-width="1"/>
<line x1="460.84" y1="158.22" x2="460.84" y2="162.52" stroke="#2a6" stroke-width="2"/>
<line x1="467.75" y1="157.82" x2="467.75" y2="167.45" stroke="#999" stroke-width="1"/>
<line x1="467.75" y1="158.22" x2="467.75" y2="160.63" stroke="#c33" stroke-width="2"/>
<line x1="474.66" y1="158.51" x2="474.66" y2="172.15" stroke="#999" stroke-width="1"/>
<line x1="474.66" y1="160.69" x2="474.66" y2="166.76" stroke="#c33" stroke-width="2"/>
<line x1="481.57" y1="165.62" x2="481.57" y2="193.14" stroke="#999" stroke-width="1"/>
<line x1="481.57" y1="166.71" x2="481.57" y2="192.85" stroke="#c33" stroke-width="2"/>
<line x1="488.48" y1="187.06" x2="488.48" y2="204.49" stroke="#999" stroke-width="1"/>
<line x1="488.48" y1="192.91" x2="488.48" y2="195.89" stroke="#c33" stroke-width="2"/>
<line x1="495.39" y1="187.12" x2="495.39" y2="198.87" stroke="#999" stroke-width="1"/>
<line x1="495.39" y1="194.40" x2="495.39" y2="195.83" stroke="#2a6" stroke-width="2"/>
<line x1="502.30" y1="182.42" x2="502.30" y2="205.18" stroke="#999" stroke-width="1"/>
<line x1="502.30" y1="182.99" x2="502.30" y2="194.40" stroke="#2a6" stroke-width="2"/>
<line x1="509.21" y1="182.65" x2="509.21" y2="197.04" stroke="#999" stroke-width="1"/>
<line x1="509.21" y1="182.93" x2="509.21" y2="192.56" stroke="#c33" stroke-width="2"/>
<line x1="516.13" y1="178.17" x2="516.13" y2="218.82" stroke="#999" stroke-width="1"/>
<line x1="516.13" y1="192.51" x2="516.13" y2="217.16" stroke="#c33" stroke-width="2"/>
<line x1="523.04" y1="182.53" x2="523.04" y2="216.99" stroke="#999" stroke-width="1"/>
<line x1="523.04" y1="194.05" x2="523.04" y2="216.99" stroke="#2a6" stroke-width="2"/>
<line x1="529.95" y1="177.71" x2="529.95" y2="203.51" stroke="#999" stroke-width="1"/>
<line x1="529.95" y1="193.37" x2="529.95" y2="194.05" stroke="#2a6" stroke-width="2"/>
<line x1="536.86" y1="183.79" x2="536.86" y2="206.50" stroke="#999" stroke-width="1"/>
<line x1="536.86" y1="193.42" x2="536.86" y2="202.43" stroke="#c33" stroke-width="2"/>
<line x1="543.77" y1="187.52" x2="543.77" y2="211.25" stroke="#999" stroke-width="1"/>
<line x1="543.77" y1="191.13" x2="543.77" y2="202.54" stroke="#2a6" stroke-width="2"/>
<line x1="550.68" y1="187.06" x2="550.68" y2="204.20" stroke="#999" stroke-width="1"/>
<line x1="550.68" y1="190.61" x2="550.68" y2="191.13" stroke="#2a6" stroke-width="2"/>
<line x1="557.59" y1="185.80" x2="557.59" y2="198.64" stroke="#999" stroke-width="1"/>
<line x1="557.59" y1="186.54" x2="557.59" y2="190.61" stroke="#2a6" stroke-width="2"/>
<line x1="564.50" y1="184.02" x2="564.50" y2="194.46" stroke="#999" stroke-width="1"/>
<line x1="564.50" y1="186.66" x2="564.50" y2="193.77" stroke="#c33" stroke-width="2"/>
<line x1="571.41" y1="193.19" x2="571.41" y2="198.47" stroke="#999" stroke-width="1"/>
<line x1="571.41" y1="193.54" x2="571.41" y2="193.88" stroke="#2a6" stroke-width="2"/>
<line x1="578.32" y1="156.67" x2="578.32" y2="276.67" stroke="#999" stroke-width="1"/>
<line x1="578.32" y1="195.66" x2="578.32" y2="275.30" stroke="#c33" stroke-width="2"/>
<line x1="585.24" y1="193.60" x2="585.24" y2="198.30" stroke="#999" stroke-width="1"/>
<line x1="585.24" y1="193.65" x2="585.24" y2="197.15" stroke="#c33" stroke-width="2"/>
<line x1="592.15" y1="192.91" x2="592.15" y2="198.07" stroke="#999" stroke-width="1"/>
<line x1="592.15" y1="195.32" x2="592.15" y2="197.15" stroke="#2a6" stroke-width="2"/>
<line x1="599.06" y1="194.91" x2="599.06" y2="205.29" stroke="#999" stroke-width="1"/>
<line x1="599.06" y1="195.32" x2="599.06" y2="200.42" stroke="#c33" stroke-width="2"/>
<line x1="605.97" y1="190.61" x2="605.97" y2="204.49" stroke="#999" stroke-width="1"/>
<line x1="605.97" y1="199.10" x2="605.97" y2="200.42" stroke="#2a6" stroke-width="2"/>
<line x1="612.88" y1="187.17" x2="612.88" y2="199.44" stroke="#999" stroke-width="1"/>
<line x1="612.88" y1="191.42" x2="612.88" y2="199.21" stroke="#2a6" stroke-width="2"/>
<line x1="619.79" y1="189.75" x2="619.79" y2="199.73" stroke="#999" stroke-width="1"/>
<line x1="619.79" y1="191.47" x2="619.79" y2="193.88" stroke="#c33" stroke-width="2"/>
<line x1="626.70" y1="174.62" x2="626.70" y2="195.89" stroke="#999" stroke-width="1"/>
<line x1="626.70" y1="177.37" x2="626.70" y2="193.94" stroke="#2a6" stroke-width="2"/>
<line x1="633.61" y1="160.11" x2="633.61" y2="181.04" stroke="#999" stroke-width="1"/>
<line x1="633.61" y1="160.29" x2="633.61" y2="177.31" stroke="#2a6" stroke-width="2"/>
<line x1="640.52" y1="156.50" x2="640.52" y2="189.18" stroke="#999" stroke-width="1"/>
<line x1="640.52" y1="160.34" x2="640.52" y2="188.44" stroke="#c33" stroke-width="2"/>
<line x1="647.43" y1="185.11" x2="647.43" y2="207.47" stroke="#999" stroke-width="1"/>
<line x1="647.43" y1="188.49" x2="647.43" y2="207.01" stroke="#c33" stroke-width="2"/>
<line x1="654.35" y1="187.17" x2="654.35" y2="215.90" stroke="#999" stroke-width="1"/>
<line x1="654.35" y1="198.13" x2="654.35" y2="207.01" stroke="#2a6" stroke-width="2"/>
<line x1="661.26" y1="197.90" x2="661.26" y2="212.46" stroke="#999" stroke-width="1"/>
<line x1="661.26" y1="198.18" x2="661.26" y2="206.95" stroke="#c33" stroke-width="2"/>
<line x1="668.17" y1="201.34" x2="668.17" y2="221.69" stroke="#999" stroke-width="1"/>
<line x1="668.17" y1="206.95" x2="668.17" y2="214.58" stroke="#c33" stroke-width="2"/>
<line x1="675.08" y1="212.23" x2="675.08" y2="242.79" stroke="#999" stroke-width="1"/>
<line x1="675.08" y1="214.58" x2="675.08" y2="231.44" stroke="#c33" stroke-width="2"/>
<line x1="681.99" y1="206.32" x2="681.99" y2="257.35" stroke="#999" stroke-width="1"/>
<line x1="681.99" y1="218.19" x2="681.99" y2="231.38" stroke="#2a6" stroke-width="2"/>
<line x1="688.90" y1="207.24" x2="688.90" y2="255.52" stroke="#999" stroke-width="1"/>
<line x1="688.90" y1="218.25" x2="688.90" y2="240.49" stroke="#c33" stroke-width="2"/>
<line x1="695.81" y1="228.34" x2="695.81" y2="253.57" stroke="#999" stroke-width="1"/>
<line x1="695.81" y1="239.98" x2="695.81" y2="249.78" stroke="#c33" stroke-width="2"/>
<line x1="702.72" y1="246.97" x2="702.72" y2="276.90" stroke="#999" stroke-width="1"/>
<line x1="702.72" y1="249.95" x2="702.72" y2="272.31" stroke="#c33" stroke-width="2"/>
<line x1="709.63" y1="266.12" x2="709.63" y2="285.73" stroke="#999" stroke-width="1"/>
<line x1="709.63" y1="270.19" x2="709.63" y2="272.26" stroke="#2a6" stroke-width="2"/>
<line x1="716.54" y1="262.80" x2="716.54" y2="278.05" stroke="#999" stroke-width="1"/>
<line x1="716.54" y1="269.62" x2="716.54" y2="274.84" stroke="#c33" stroke-width="2"/>
<line x1="723.46" y1="225.70" x2="723.46" y2="275.01" stroke="#999" stroke-width="1"/>
<line x1="723.46" y1="246.51" x2="723.46" y2="274.84" stroke="#2a6" stroke-width="2"/>
<line x1="730.37" y1="239.41" x2="730.37" y2="260.22" stroke="#999" stroke-width="1"/>
<line x1="730.37" y1="246.57" x2="730.37" y2="258.50" stroke="#c33" stroke-width="2"/>
<line x1="737.28" y1="254.14" x2="737.28" y2="274.89" stroke="#999" stroke-width="1"/>
<line x1="737.28" y1="259.53" x2="737.28" y2="271.63" stroke="#c33" stroke-width="2"/>
<line x1="744.19" y1="213.49" x2="744.19" y2="311.53" stroke="#999" stroke-width="1"/>
<line x1="744.19" y1="271.80" x2="744.19" y2="293.81" stroke="#c33" stroke-width="2"/>
<line x1="751.10" y1="262.85" x2="751.10" y2="272.60" stroke="#999" stroke-width="1"/>
<line x1="751.10" y1="271.74" x2="751.10" y2="272.26" stroke="#c33" stroke-width="2"/>
<line x1="758.01" y1="255.92" x2="758.01" y2="272.26" stroke="#999" stroke-width="1"/>
<line x1="758.01" y1="256.15" x2="758.01" y2="272.26" stroke="#2a6" stroke-width="2"/>
<line x1="764.92" y1="248.64" x2="764.92" y2="259.59" stroke="#999" stroke-width="1"/>
<line x1="764.92" y1="253.62" x2="764.92" y2="256.15" stroke="#2a6" stroke-width="2"/>
<line x1="771.83" y1="241.24" x2="771.83" y2="254.94" stroke="#999" stroke-width="1"/>
<line x1="771.83" y1="251.22" x2="771.83" y2="253.68" stroke="#2a6" stroke-width="2"/>
<line x1="778.74" y1="250.93" x2="778.74" y2="262.91" stroke="#999" stroke-width="1"/>
<line x1="778.74" y1="251.22" x2="778.74" y2="254.48" stroke="#c33" stroke-width="2"/>
<line x1="785.65" y1="253.17" x2="785.65" y2="274.15" stroke="#999" stroke-width="1"/>
<line x1="785.65" y1="254.77" x2="785.65" y2="271.23" stroke="#c33" stroke-width="2"/>
<line x1="792.57" y1="265.21" x2="792.57" y2="275.12" stroke="#999" stroke-width="1"/>
<line x1="792.57" y1="265.72" x2="792.57" y2="271.17" stroke="#2a6" stroke-width="2"/>
<line x1="799.48" y1="253.57" x2="799.48" y2="268.36" stroke="#999" stroke-width="1"/>
<line x1="799.48" y1="265.32" x2="799.48" y2="265.72" stroke="#2a6" stroke-width="2"/>
<line x1="806.39" y1="264.40" x2="806.39" y2="279.42" stroke="#999" stroke-width="1"/>
<line x1="806.39" y1="265.55" x2="806.39" y2="276.21" stroke="#c33" stroke-width="2"/>
<line x1="813.30" y1="265.21" x2="813.30" y2="277.82" stroke="#999" stroke-width="1"/>
<line x1="813.30" y1="268.87" x2="813.30" y2="276.27" stroke="#2a6" stroke-width="2"/>
<line x1="820.21" y1="248.58" x2="820.21" y2="269.79" stroke="#999" stroke-width="1"/>
<line x1="820.21" y1="249.21" x2="820.21" y2="268.93" stroke="#2a6" stroke-width="2"/>
<line x1="827.12" y1="232.53" x2="827.12" y2="253.74" stroke="#999" stroke-width="1"/>
<line x1="827.12" y1="233.39" x2="827.12" y2="249.21" stroke="#2a6" stroke-width="2"/>
<line x1="834.03" y1="223.35" x2="834.03" y2="236.14" stroke="#999" stroke-width="1"/>
<line x1="834.03" y1="227.37" x2="834.03" y2="233.39" stroke="#2a6" stroke-width="2"/>
<line x1="840.94" y1="213.49" x2="840.94" y2="230.69" stroke="#999" stroke-width="1"/>
<line x1="840.94" y1="224.10" x2="840.94" y2="227.37" stroke="#2a6" stroke-width="2"/>
<line x1="847.85" y1="215.27" x2="847.85" y2="246.69" stroke="#999" stroke-width="1"/>
<line x1="847.85" y1="224.50" x2="847.85" y2="243.07" stroke="#c33" stroke-width="2"/>
<line x1="854.76" y1="227.54" x2="854.76" y2="268.82" stroke="#999" stroke-width="1"/>
<line x1="854.76" y1="242.56" x2="854.76" y2="251.62" stroke="#c33" stroke-width="2"/>
<line x1="861.68" y1="246.74" x2="861.68" y2="273.81" stroke="#999" stroke-width="1"/>
<line x1="861.68" y1="251.62" x2="861.68" y2="271.68" stroke="#c33" stroke-width="2"/>
<line x1="868.59" y1="265.43" x2="868.59" y2="297.48" stroke="#999" stroke-width="1"/>
<line x1="868.59" y1="271.68" x2="868.59" y2="285.90" stroke="#c33" stroke-width="2"/>
<line x1="875.50" y1="284.64" x2="875.50" y2="304.54" stroke="#999" stroke-width="1"/>
<line x1="875.50" y1="285.90" x2="875.50" y2="300.29" stroke="#c33" stroke-width="2"/>
<line x1="882.41" y1="289.34" x2="882.41" y2="311.24" stroke="#999" stroke-width="1"/>
<line x1="882.41" y1="293.30" x2="882.41" y2="300.35" stroke="#2a6" stroke-width="2"/>
<line x1="889.32" y1="285.62" x2="889.32" y2="297.03" stroke="#999" stroke-width="1"/>
<line x1="889.32" y1="286.82" x2="889.32" y2="293.13" stroke="#2a6" stroke-width="2"/>
<line x1="896.23" y1="277.36" x2="896.23" y2="290.15" stroke="#999" stroke-width="1"/>
<line x1="896.23" y1="286.76" x2="896.23" y2="286.99" stroke="#2a6" stroke-width="2"/>
<line x1="903.14" y1="286.48" x2="903.14" y2="294.50" stroke="#999" stroke-width="1"/>
<line x1="903.14" y1="286.99" x2="903.14" y2="292.78" stroke="#c33" stroke-width="2"/>
<line x1="910.05" y1="289.80" x2="910.05" y2="368.23" stroke="#999" stroke-width="1"/>
<line x1="910.05" y1="290.37" x2="910.05" y2="360.61" stroke="#c33" stroke-width="2"/>
<line x1="916.96" y1="290.20" x2="916.96" y2="300.64" stroke="#999" stroke-width="1"/>
<line x1="916.96" y1="290.60" x2="916.96" y2="300.24" stroke="#c33" stroke-width="2"/>
<line x1="923.87" y1="289.51" x2="923.87" y2="301.21" stroke="#999" stroke-width="1"/>
<line x1="923.87" y1="293.76" x2="923.87" y2="300.24" stroke="#2a6" stroke-width="2"/>
<line x1="930.79" y1="292.73" x2="930.79" y2="314.51" stroke="#999" stroke-width="1"/>
<line x1="930.79" y1="293.76" x2="930.79" y2="310.84" stroke="#c33" stroke-width="2"/>
<line x1="937.70" y1="298.29" x2="937.70" y2="321.28" stroke="#999" stroke-width="1"/>
<line x1="937.70" y1="310.73" x2="937.70" y2="315.66" stroke="#c33" stroke-width="2"/>
<line x1="944.61" y1="297.66" x2="944.61" y2="316.00" stroke="#999" stroke-width="1"/>
<line x1="944.61" y1="298.69" x2="944.61" y2="315.66" stroke="#2a6" stroke-width="2"/>
<line x1="951.52" y1="299.20" x2="951.52" y2="321.68" stroke="#999" stroke-width="1"/>
<line x1="951.52" y1="299.26" x2="951.52" y2="318.01" stroke="#c33" stroke-width="2"/>
<line x1="958.43" y1="317.84" x2="958.43" y2="331.65" stroke="#999" stroke-width="1"/>
<line x1="958.43" y1="317.89" x2="958.43" y2="324.03" stroke="#c33" stroke-width="2"/>
<line x1="965.34" y1="301.78" x2="965.34" y2="328.50" stroke="#999" stroke-width="1"/>
<line x1="965.34" y1="308.78" x2="965.34" y2="324.09" stroke="#2a6" stroke-width="2"/>
<line x1="972.25" y1="299.72" x2="972.25" y2="314.28" stroke="#999" stroke-width="1"/>
<line x1="972.25" y1="307.40" x2="972.25" y2="308.72" stroke="#2a6" stroke-width="2"/>
<line x1="979.16" y1="307.52" x2="979.16" y2="324.43" stroke="#999" stroke-width="1"/>
<line x1="979.16" y1="307.63" x2="979.16" y2="319.27" stroke="#c33" stroke-width="2"/>
<line x1="986.07" y1="316.06" x2="986.07" y2="331.02" stroke="#999" stroke-width="1"/>
<line x1="986.07" y1="318.07" x2="986.07" y2="319.33" stroke="#2a6" stroke-width="2"/>
<line x1="992.98" y1="315.49" x2="992.98" y2="326.09" stroke="#999" stroke-width="1"/>
<line x1="992.98" y1="318.07" x2="992.98" y2="321.79" stroke="#c33" stroke-width="2"/>
<line x1="999.90" y1="321.79" x2="999.90" y2="343.18" stroke="#999" stroke-width="1"/>
<line x1="999.90" y1="321.79" x2="999.90" y2="334.64" stroke="#c33" stroke-width="2"/>
<line x1="1006.81" y1="321.22" x2="1006.81" y2="342.72" stroke="#999" stroke-width="1"/>
<line x1="1006.81" y1="324.60" x2="1006.81" y2="334.46" stroke="#2a6" stroke-width="2"/>
<line x1="1013.72" y1="298.52" x2="1013.72" y2="342.78" stroke="#999" stroke-width="1"/>
<line x1="1013.72" y1="304.65" x2="1013.72" y2="324.55" stroke="#2a6" stroke-width="2"/>
<line x1="1020.63" y1="295.25" x2="1020.63" y2="337.39" stroke="#999" stroke-width="1"/>
<line x1="1020.63" y1="305.05" x2="1020.63" y2="332.69" stroke="#c33" stroke-width="2"/>
<line x1="1027.54" y1="327.35" x2="1027.54" y2="366.05" stroke="#999" stroke-width="1"/>
<line x1="1027.54" y1="332.57" x2="1027.54" y2="352.87" stroke="#c33" stroke-width="2"/>
<line x1="1034.45" y1="339.11" x2="1034.45" y2="358.66" stroke="#999" stroke-width="1"/>
<line x1="1034.45" y1="347.25" x2="1034.45" y2="352.93" stroke="#2a6" stroke-width="2"/>
<line x1="1041.36" y1="336.47" x2="1041.36" y2="349.03" stroke="#999" stroke-width="1"/>
<line x1="1041.36" y1="343.12" x2="1041.36" y2="347.13" stroke="#2a6" stroke-width="2"/>
<line x1="1048.27" y1="340.54" x2="1048.27" y2="351.78" stroke="#999" stroke-width="1"/>
<line x1="1048.27" y1="342.89" x2="1048.27" y2="343.81" stroke="#c33" stroke-width="2"/>
<line x1="1055.18" y1="342.89" x2="1055.18" y2="361.41" stroke="#999" stroke-width="1"/>
<line x1="1055.18" y1="343.58" x2="1055.18" y2="360.72" stroke="#c33" stroke-width="2"/>
<line x1="1062.09" y1="355.56" x2="1062.09" y2="367.49" stroke="#999" stroke-width="1"/>
<line x1="1062.09" y1="360.26" x2="1062.09" y2="361.53" stroke="#c33" stroke-width="2"/>
<line x1="1069.01" y1="355.96" x2="1069.01" y2="363.42" stroke="#999" stroke-width="1"/>
<line x1="1069.01" y1="359.06" x2="1069.01" y2="361.81" stroke="#2a6" stroke-width="2"/>
<line x1="1075.92" y1="348.05" x2="1075.92" y2="470.00" stroke="#999" stroke-width="1"/>
<line x1="1075.92" y1="361.01" x2="1075.92" y2="421.27" stroke="#c33" stroke-width="2"/>
<line x1="1082.83" y1="352.64" x2="1082.83" y2="371.16" stroke="#999" stroke-width="1"/>
<line x1="1082.83" y1="357.63" x2="1082.83" y2="367.09" stroke="#2a6" stroke-width="2"/>
<line x1="1089.74" y1="355.85" x2="1089.74" y2="370.01" stroke="#999" stroke-width="1"/>
<line x1="1089.74" y1="358.14" x2="1089.74" y2="366.63" stroke="#c33" stroke-width="2"/>
<line x1="1096.65" y1="361.18" x2="1096.65" y2="371.04" stroke="#999" stroke-width="1"/>
<line x1="1096.65" y1="366.74" x2="1096.65" y2="368.41" stroke="#c33" stroke-width="2"/>
<line x1="1103.56" y1="355.91" x2="1103.56" y2="370.58" stroke="#999" stroke-width="1"/>
<line x1="1103.56" y1="364.05" x2="1103.56" y2="368.41" stroke="#2a6" stroke-width="2"/>
<line x1="1110.47" y1="352.18" x2="1110.47" y2="365.54" stroke="#999" stroke-width="1"/>
<line x1="1110.47" y1="353.84" x2="1110.47" y2="363.88" stroke="#2a6" stroke-width="2"/>
<line x1="1117.38" y1="347.31" x2="1117.38" y2="362.73" stroke="#999" stroke-width="1"/>
<line x1="1117.38" y1="354.07" x2="1117.38" y2="361.93" stroke="#c33" stroke-width="2"/>
<line x1="1124.29" y1="361.64" x2="1124.29" y2="376.89" stroke="#999" stroke-width="1"/>
<line x1="1124.29" y1="361.70" x2="1124.29" y2="372.02" stroke="#c33" stroke-width="2"/>
<line x1="1131.20" y1="370.35" x2="1131.20" y2="382.57" stroke="#999" stroke-width="1"/>
<line x1="1131.20" y1="372.02" x2="1131.20" y2="378.50" stroke="#c33" stroke-width="2"/>
<line x1="1138.12" y1="377.58" x2="1138.12" y2="389.10" stroke="#999" stroke-width="1"/>
<line x1="1138.12" y1="378.67" x2="1138.12" y2="386.18" stroke="#c33" stroke-width="2"/>
<line x1="1145.03" y1="383.94" x2="1145.03" y2="419.32" stroke="#999" stroke-width="1"/>
<line x1="1145.03" y1="386.24" x2="1145.03" y2="415.59" stroke="#c33" stroke-width="2"/>
<line x1="1151.94" y1="412.67" x2="1151.94" y2="442.94" stroke="#999" stroke-width="1"/>
<line x1="1151.94" y1="415.93" x2="1151.94" y2="428.20" stroke="#c33" stroke-width="2"/>
<line x1="1158.85" y1="407.97" x2="1158.85" y2="446.95" stroke="#999" stroke-width="1"/>
<line x1="1158.85" y1="413.70" x2="1158.85" y2="428.26" stroke="#2a6" stroke-width="2"/>
<line x1="1165.76" y1="413.41" x2="1165.76" y2="430.78" stroke="#999" stroke-width="1"/>
<line x1="1165.76" y1="413.64" x2="1165.76" y2="430.55" stroke="#c33" stroke-width="2"/>
<line x1="1172.67" y1="421.32" x2="1172.67" y2="452.74" stroke="#999" stroke-width="1"/>
<line x1="1172.67" y1="430.61" x2="1172.67" y2="437.66" stroke="#c33" stroke-width="2"/>
<line x1="1179.58" y1="437.66" x2="1179.58" y2="469.37" stroke="#999" stroke-width="1"/>
<line x1="1179.58" y1="437.78" x2="1179.58" y2="453.83" stroke="#c33" stroke-width="2"/>
<line x1="1186.49" y1="407.51" x2="1186.49" y2="454.41" stroke="#999" stroke-width="1"/>
<line x1="1186.49" y1="438.24" x2="1186.49" y2="453.95" stroke="#2a6" stroke-width="2"/>
<line x1="1193.40" y1="398.96" x2="1193.40" y2="446.03" stroke="#999" stroke-width="1"/>
<line x1="1193.40" y1="413.93" x2="1193.40" y2="438.35" stroke="#2a6" stroke-width="2"/>
<line x1="1200.31" y1="409.97" x2="1200.31" y2="432.22" stroke="#999" stroke-width="1"/>
<line x1="1200.31" y1="413.87" x2="1200.31" y2="417.48" stroke="#c33" stroke-width="2"/>
<line x1="1207.23" y1="415.07" x2="1207.23" y2="429.01" stroke="#999" stroke-width="1"/>
<line x1="1207.23" y1="417.48" x2="1207.23" y2="427.00" stroke="#c33" stroke-width="2"/>
<line x1="1214.14" y1="412.04" x2="1214.14" y2="434.80" stroke="#999" stroke-width="1"/>
<line x1="1214.14" y1="421.44" x2="1214.14" y2="427.11" stroke="#2a6" stroke-width="2"/>
<line x1="1221.05" y1="413.30" x2="1221.05" y2="423.96" stroke="#999" stroke-width="1"/>
<line x1="1221.05" y1="418.46" x2="1221.05" y2="421.84" stroke="#2a6" stroke-width="2"/>
<line x1="1227.96" y1="411.81" x2="1227.96" y2="431.19" stroke="#999" stroke-width="1"/>
<line x1="1227.96" y1="418.51" x2="1227.96" y2="427.80" stroke="#c33" stroke-width="2"/>
<line x1="1234.87" y1="422.93" x2="1234.87" y2="431.36" stroke="#999" stroke-width="1"/>
<line x1="1234.87" y1="423.62" x2="1234.87" y2="428.20" stroke="#2a6" stroke-width="2"/>
<line x1="1241.78" y1="318.35" x2="1241.78" y2="452.63" stroke="#999" stroke-width="1"/>
<line x1="1241.78" y1="353.27" x2="1241.78" y2="423.85" stroke="#2a6" stroke-width="2"/>
<line x1="1248.69" y1="421.61" x2="1248.69" y2="429.75" stroke="#999" stroke-width="1"/>
<line x1="1248.69" y1="423.39" x2="1248.69" y2="424.02" stroke="#2a6" stroke-width="2"/>
<line x1="1255.60" y1="422.24" x2="1255.60" y2="430.44" stroke="#999" stroke-width="1"/>
<line x1="1255.60" y1="423.39" x2="1255.60" y2="426.48" stroke="#c33" stroke-width="2"/>
<line x1="1262.51" y1="405.56" x2="1262.51" y2="432.45" stroke="#999" stroke-width="1"/>
<line x1="1262.51" y1="409.40" x2="1262.51" y2="426.48" stroke="#2a6" stroke-width="2"/>
<line x1="1269.42" y1="396.27" x2="1269.42" y2="410.49" stroke="#999" stroke-width="1"/>
<line x1="1269.42" y1="398.45" x2="1269.42" y2="409.40" stroke="#2a6" stroke-width="2"/>
<line x1="1276.34" y1="397.36" x2="1276.34" y2="410.09" stroke="#999" stroke-width="1"/>
<line x1="1276.34" y1="398.96" x2="1276.34" y2="407.85" stroke="#c33" stroke-width="2"/>
<line x1="1283.25" y1="403.03" x2="1283.25" y2="413.41" stroke="#999" stroke-width="1"/>
<line x1="1283.25" y1="407.79" x2="1283.25" y2="408.02" stroke="#2a6" stroke-width="2"/>
<line x1="1290.16" y1="405.44" x2="1290.16" y2="417.02" stroke="#999" stroke-width="1"/>
<line x1="1290.16" y1="407.79" x2="1290.16" y2="416.97" stroke="#c33" stroke-width="2"/>
<line x1="1297.07" y1="409.40" x2="1297.07" y2="423.50" stroke="#999" stroke-width="1"/>
<line x1="1297.07" y1="415.99" x2="1297.07" y2="416.85" stroke="#2a6" stroke-width="2"/>
<line x1="1303.98" y1="410.60" x2="1303.98" y2="429.29" stroke="#999" stroke-width="1"/>
<line x1="1303.98" y1="415.53" x2="1303.98" y2="421.15" stroke="#c33" stroke-width="2"/>
<line x1="1310.89" y1="405.67" x2="1310.89" y2="427.97" stroke="#999" stroke-width="1"/>
<line x1="1310.89" y1="408.88" x2="1310.89" y2="421.27" stroke="#2a6" stroke-width="2"/>
<line x1="1317.80" y1="376.89" x2="1317.80" y2="412.55" stroke="#999" stroke-width="1"/>
<line x1="1317.80" y1="395.24" x2="1317.80" y2="408.94" stroke="#2a6" stroke-width="2"/>
<line x1="1324.71" y1="390.42" x2="1324.71" y2="411.52" stroke="#999" stroke-width="1"/>
<line x1="1324.71" y1="395.24" x2="1324.71" y2="402.23" stroke="#c33" stroke-width="2"/>
<line x1="1331.62" y1="401.43" x2="1331.62" y2="430.96" stroke="#999" stroke-width="1"/>
<line x1="1331.62" y1="402.17" x2="1331.62" y2="413.76" stroke="#c33" stroke-width="2"/>
<line x1="1338.53" y1="404.81" x2="1338.53" y2="426.14" stroke="#999" stroke-width="1"/>
<line x1="1338.53" y1="410.43" x2="1338.53" y2="413.81" stroke="#2a6" stroke-width="2"/>
<line x1="1345.45" y1="408.88" x2="1345.45" y2="451.88" stroke="#999" stroke-width="1"/>
<line x1="1345.45" y1="410.43" x2="1345.45" y2="421.95" stroke="#c33" stroke-width="2"/>
<line x1="1352.36" y1="347.36" x2="1352.36" y2="424.53" stroke="#999" stroke-width="1"/>
<line x1="1352.36" y1="358.31" x2="1352.36" y2="421.50" stroke="#2a6" stroke-width="2"/>
<line x1="1359.27" y1="318.35" x2="1359.27" y2="358.20" stroke="#999" stroke-width="1"/>
<line x1="1359.27" y1="340.94" x2="1359.27" y2="358.20" stroke="#2a6" stroke-width="2"/>
<line x1="1366.18" y1="320.76" x2="1366.18" y2="347.31" stroke="#999" stroke-width="1"/>
<line x1="1366.18" y1="340.94" x2="1366.18" y2="343.35" stroke="#c33" stroke-width="2"/>
<line x1="1373.09" y1="339.05" x2="1373.09" y2="353.84" stroke="#999" stroke-width="1"/>
<line x1="1373.09" y1="343.29" x2="1373.09" y2="343.41" stroke="#2a6" stroke-width="2"/>
<line x1="1380.00" y1="340.71" x2="1380.00" y2="361.81" stroke="#999" stroke-width="1"/>
<line x1="1380.00" y1="343.24" x2="1380.00" y2="359.81" stroke="#c33" stroke-width="2"/>
<polygon points="246.6,34.9 239.6,48.9 253.6,48.9" fill="#a20" stroke="#000" stroke-width="0.5"/>
<line x1="246.6" y1="42.9" x2="288.1" y2="81.7" stroke="#a20" stroke-dasharray="3,2" stroke-width="1"/>
<text x="246.6" y="30.9" font-family="Helvetica" font-size="10" fill="#a20" text-anchor="middle">27 H M/I c33</text>
<polygon points="412.5,227.6 405.5,213.6 419.5,213.6" fill="#0a5" stroke="#000" stroke-width="0.5"/>
<line x1="412.5" y1="219.6" x2="419.4" y2="178.7" stroke="#0a5" stroke-dasharray="3,2" stroke-width="1"/>
<text x="412.5" y="237.6" font-family="Helvetica" font-size="10" fill="#0a5" text-anchor="middle">51 L M/E c52</text>
<polygon points="453.9,144.2 446.9,158.2 460.9,158.2" fill="#a20" stroke="#000" stroke-width="0.5"/>
<line x1="453.9" y1="152.2" x2="481.6" y2="192.9" stroke="#a20" stroke-dasharray="3,2" stroke-width="1"/>
<text x="453.9" y="140.2" font-family="Helvetica" font-size="10" fill="#a20" text-anchor="middle">57 H M/I c61</text>
<polygon points="516.1,226.8 509.1,212.8 523.1,212.8" fill="#0a5" stroke="#000" stroke-width="0.5"/>
<line x1="516.1" y1="218.8" x2="523.0" y2="194.1" stroke="#0a5" stroke-dasharray="3,2" stroke-width="1"/>
<text x="516.1" y="236.8" font-family="Helvetica" font-size="10" fill="#0a5" text-anchor="middle">66 L M/I c67</text>
<polygon points="578.3,148.7 571.3,162.7 585.3,162.7" fill="#a20" stroke="#000" stroke-width="0.5"/>
<line x1="578.3" y1="156.7" x2="585.2" y2="197.2" stroke="#a20" stroke-dasharray="3,2" stroke-width="1"/>
<text x="578.3" y="144.7" font-family="Helvetica" font-size="10" fill="#a20" text-anchor="middle">75 H M/I c76</text>
<polygon points="709.6,293.7 702.6,279.7 716.6,279.7" fill="#0a5" stroke="#000" stroke-width="0.5"/>
<line x1="709.6" y1="285.7" x2="723.5" y2="246.5" stroke="#0a5" stroke-dasharray="3,2" stroke-width="1"/>
<text x="709.6" y="303.7" font-family="Helvetica" font-size="10" fill="#0a5" text-anchor="middle">94 L M/I c96</text>
<polygon points="840.9,205.5 833.9,219.5 847.9,219.5" fill="#a20" stroke="#000" stroke-width="0.5"/>
<line x1="840.9" y1="213.5" x2="847.9" y2="243.1" stroke="#a20" stroke-dasharray="3,2" stroke-width="1"/>
<text x="840.9" y="201.5" font-family="Helvetica" font-size="10" fill="#a20" text-anchor="middle">113 H M/E c114</text>
<polygon points="910.1,376.2 903.1,362.2 917.1,362.2" fill="#0a5" stroke="#000" stroke-width="0.5"/>
<line x1="910.1" y1="368.2" x2="917.0" y2="300.2" stroke="#0a5" stroke-dasharray="3,2" stroke-width="1"/>
<text x="910.1" y="386.2" font-family="Helvetica" font-size="10" fill="#0a5" text-anchor="middle">123 L M/I c124</text>
</svg>
