<svg xmlns="http://www.w3.org/2000/svg" width="1400" height="520">
<rect width="100%" height="100%" fill="#f7f7f4"/>
<text x="60" y="24" font-family="Helvetica" font-size="16" fill="#222">Window 06 AI-assisted draft pivots</text>
<line x1="60.00" y1="196.30" x2="60.00" y2="219.19" stroke="#999" stroke-width="1"/>
<line x1="60.00" y1="204.77" x2="60.00" y2="217.86" stroke="#2a6" stroke-width="2"/>
<line x1="66.91" y1="191.91" x2="66.91" y2="211.30" stroke="#999" stroke-width="1"/>
<line x1="66.91" y1="194.87" x2="66.91" y2="204.74" stroke="#2a6" stroke-width="2"/>
<line x1="73.82" y1="184.74" x2="73.82" y2="206.84" stroke="#999" stroke-width="1"/>
<line x1="73.82" y1="194.77" x2="73.82" y2="202.12" stroke="#c33" stroke-width="2"/>
<line x1="80.73" y1="184.81" x2="80.73" y2="203.58" stroke="#999" stroke-width="1"/>
<line x1="80.73" y1="189.06" x2="80.73" y2="201.95" stroke="#2a6" stroke-width="2"/>
<line x1="87.64" y1="174.74" x2="87.64" y2="207.52" stroke="#999" stroke-width="1"/>
<line x1="87.64" y1="181.61" x2="87.64" y2="188.96" stroke="#2a6" stroke-width="2"/>
<line x1="94.55" y1="171.10" x2="94.55" y2="218.65" stroke="#999" stroke-width="1"/>
<line x1="94.55" y1="181.20" x2="94.55" y2="215.58" stroke="#c33" stroke-width="2"/>
<line x1="101.47" y1="157.26" x2="101.47" y2="224.60" stroke="#999" stroke-width="1"/>
<line x1="101.47" y1="159.10" x2="101.47" y2="215.69" stroke="#2a6" stroke-width="2"/>
<line x1="108.38" y1="124.54" x2="108.38" y2="175.52" stroke="#999" stroke-width="1"/>
<line x1="108.38" y1="148.35" x2="108.38" y2="158.52" stroke="#2a6" stroke-width="2"/>
<line x1="115.29" y1="106.83" x2="115.29" y2="149.91" stroke="#999" stroke-width="1"/>
<line x1="115.29" y1="109.21" x2="115.29" y2="148.21" stroke="#2a6" stroke-width="2"/>
<line x1="122.20" y1="108.73" x2="122.20" y2="169.67" stroke="#999" stroke-width="1"/>
<line x1="122.20" y1="109.21" x2="122.20" y2="152.81" stroke="#c33" stroke-width="2"/>
<line x1="129.11" y1="113.12" x2="129.11" y2="156.85" stroke="#999" stroke-width="1"/>
<line x1="129.11" y1="126.79" x2="129.11" y2="152.81" stroke="#2a6" stroke-width="2"/>
<line x1="136.02" y1="117.13" x2="136.02" y2="137.88" stroke="#999" stroke-width="1"/>
<line x1="136.02" y1="126.79" x2="136.02" y2="135.29" stroke="#c33" stroke-width="2"/>
<line x1="142.93" y1="133.73" x2="142.93" y2="173.21" stroke="#999" stroke-width="1"/>
<line x1="142.93" y1="135.73" x2="142.93" y2="173.21" stroke="#c33" stroke-width="2"/>
<line x1="149.84" y1="145.19" x2="149.84" y2="159.67" stroke="#999" stroke-width="1"/>
<line x1="149.84" y1="152.16" x2="149.84" y2="157.87" stroke="#2a6" stroke-width="2"/>
<line x1="156.75" y1="145.70" x2="156.75" y2="160.59" stroke="#999" stroke-width="1"/>
<line x1="156.75" y1="152.16" x2="156.75" y2="159.88" stroke="#c33" stroke-width="2"/>
<line x1="163.66" y1="152.87" x2="163.66" y2="165.97" stroke="#999" stroke-width="1"/>
<line x1="163.66" y1="153.62" x2="163.66" y2="159.57" stroke="#2a6" stroke-width="2"/>
<line x1="170.58" y1="149.85" x2="170.58" y2="164.20" stroke="#999" stroke-width="1"/>
<line x1="170.58" y1="153.08" x2="170.58" y2="153.55" stroke="#2a6" stroke-width="2"/>
<line x1="177.49" y1="147.87" x2="177.49" y2="160.90" stroke="#999" stroke-width="1"/>
<line x1="177.49" y1="153.08" x2="177.49" y2="160.87" stroke="#c33" stroke-width="2"/>
<line x1="184.40" y1="156.24" x2="184.40" y2="166.61" stroke="#999" stroke-width="1"/>
<line x1="184.40" y1="161.24" x2="184.40" y2="163.04" stroke="#c33" stroke-width="2"/>
<line x1="191.31" y1="158.31" x2="191.31" y2="167.60" stroke="#999" stroke-width="1"/>
<line x1="191.31" y1="162.19" x2="191.31" y2="163.11" stroke="#2a6" stroke-width="2"/>
<line x1="198.22" y1="161.85" x2="198.22" y2="188.62" stroke="#999" stroke-width="1"/>
<line x1="198.22" y1="162.16" x2="198.22" y2="177.26" stroke="#c33" stroke-width="2"/>
<line x1="205.13" y1="163.38" x2="205.13" y2="193.68" stroke="#999" stroke-width="1"/>
<line x1="205.13" y1="165.08" x2="205.13" y2="176.85" stroke="#2a6" stroke-width="2"/>
<line x1="212.04" y1="157.70" x2="212.04" y2="175.73" stroke="#999" stroke-width="1"/>
<line x1="212.04" y1="159.95" x2="212.04" y2="165.32" stroke="#2a6" stroke-width="2"/>
<line x1="218.95" y1="122.54" x2="218.95" y2="160.05" stroke="#999" stroke-width="1"/>
<line x1="218.95" y1="124.51" x2="218.95" y2="160.05" stroke="#2a6" stroke-width="2"/>
<line x1="225.86" y1="120.06" x2="225.86" y2="135.33" stroke="#999" stroke-width="1"/>
<line x1="225.86" y1="124.51" x2="225.86" y2="127.40" stroke="#c33" stroke-width="2"/>
<line x1="232.77" y1="121.76" x2="232.77" y2="151.61" stroke="#999" stroke-width="1"/>
<line x1="232.77" y1="127.23" x2="232.77" y2="146.21" stroke="#c33" stroke-width="2"/>
<line x1="239.69" y1="133.52" x2="239.69" y2="148.83" stroke="#999" stroke-width="1"/>
<line x1="239.69" y1="143.73" x2="239.69" y2="146.31" stroke="#2a6" stroke-width="2"/>
<line x1="246.60" y1="141.48" x2="246.60" y2="174.20" stroke="#999" stroke-width="1"/>
<line x1="246.60" y1="143.39" x2="246.60" y2="157.36" stroke="#c33" stroke-width="2"/>
<line x1="253.51" y1="117.13" x2="253.51" y2="158.76" stroke="#999" stroke-width="1"/>
<line x1="253.51" y1="123.32" x2="253.51" y2="157.63" stroke="#2a6" stroke-width="2"/>
<line x1="260.42" y1="115.84" x2="260.42" y2="147.81" stroke="#999" stroke-width="1"/>
<line x1="260.42" y1="123.46" x2="260.42" y2="133.01" stroke="#c33" stroke-width="2"/>
<line x1="267.33" y1="122.40" x2="267.33" y2="161.99" stroke="#999" stroke-width="1"/>
<line x1="267.33" y1="132.94" x2="267.33" y2="161.07" stroke="#c33" stroke-width="2"/>
<line x1="274.24" y1="153.76" x2="274.24" y2="233.06" stroke="#999" stroke-width="1"/>
<line x1="274.24" y1="161.14" x2="274.24" y2="194.70" stroke="#c33" stroke-width="2"/>
<line x1="281.15" y1="182.36" x2="281.15" y2="209.29" stroke="#999" stroke-width="1"/>
<line x1="281.15" y1="194.84" x2="281.15" y2="195.35" stroke="#c33" stroke-width="2"/>
<line x1="288.06" y1="171.85" x2="288.06" y2="196.30" stroke="#999" stroke-width="1"/>
<line x1="288.06" y1="187.77" x2="288.06" y2="195.35" stroke="#2a6" stroke-width="2"/>
<line x1="294.97" y1="185.49" x2="294.97" y2="209.94" stroke="#999" stroke-width="1"/>
<line x1="294.97" y1="187.87" x2="294.97" y2="193.92" stroke="#c33" stroke-width="2"/>
<line x1="301.88" y1="191.81" x2="301.88" y2="255.24" stroke="#999" stroke-width="1"/>
<line x1="301.88" y1="193.51" x2="301.88" y2="232.11" stroke="#c33" stroke-width="2"/>
<line x1="308.80" y1="210.93" x2="308.80" y2="226.54" stroke="#999" stroke-width="1"/>
<line x1="308.80" y1="219.12" x2="308.80" y2="224.26" stroke="#2a6" stroke-width="2"/>
<line x1="315.71" y1="209.43" x2="315.71" y2="224.66" stroke="#999" stroke-width="1"/>
<line x1="315.71" y1="210.18" x2="315.71" y2="219.12" stroke="#2a6" stroke-width="2"/>
<line x1="322.62" y1="202.39" x2="322.62" y2="213.34" stroke="#999" stroke-width="1"/>
<line x1="322.62" y1="203.65" x2="322.62" y2="209.84" stroke="#2a6" stroke-width="2"/>
<line x1="329.53" y1="195.93" x2="329.53" y2="222.90" stroke="#999" stroke-width="1"/>
<line x1="329.53" y1="203.65" x2="329.53" y2="212.08" stroke="#c33" stroke-width="2"/>
<line x1="336.44" y1="186.07" x2="336.44" y2="214.02" stroke="#999" stroke-width="1"/>
<line x1="336.44" y1="192.32" x2="336.44" y2="212.18" stroke="#2a6" stroke-width="2"/>
<line x1="343.35" y1="184.43" x2="343.35" y2="194.64" stroke="#999" stroke-width="1"/>
<line x1="343.35" y1="186.41" x2="343.35" y2="192.32" stroke="#2a6" stroke-width="2"/>
<line x1="350.26" y1="180.52" x2="350.26" y2="192.02" stroke="#999" stroke-width="1"/>
<line x1="350.26" y1="185.28" x2="350.26" y2="186.41" stroke="#2a6" stroke-width="2"/>
<line x1="357.17" y1="178.58" x2="357.17" y2="189.60" stroke="#999" stroke-width="1"/>
<line x1="357.17" y1="179.77" x2="357.17" y2="184.98" stroke="#2a6" stroke-width="2"/>
<line x1="364.08" y1="165.69" x2="364.08" y2="181.37" stroke="#999" stroke-width="1"/>
<line x1="364.08" y1="166.54" x2="364.08" y2="179.33" stroke="#2a6" stroke-width="2"/>
<line x1="370.99" y1="165.49" x2="370.99" y2="185.83" stroke="#999" stroke-width="1"/>
<line x1="370.99" y1="166.54" x2="370.99" y2="176.07" stroke="#c33" stroke-width="2"/>
<line x1="377.91" y1="166.24" x2="377.91" y2="177.56" stroke="#999" stroke-width="1"/>
<line x1="377.91" y1="168.82" x2="377.91" y2="176.07" stroke="#2a6" stroke-width="2"/>
<line x1="384.82" y1="166.03" x2="384.82" y2="176.24" stroke="#999" stroke-width="1"/>
<line x1="384.82" y1="168.82" x2="384.82" y2="170.05" stroke="#c33" stroke-width="2"/>
<line x1="391.73" y1="155.08" x2="391.73" y2="178.01" stroke="#999" stroke-width="1"/>
<line x1="391.73" y1="158.38" x2="391.73" y2="170.29" stroke="#2a6" stroke-width="2"/>
<line x1="398.64" y1="150.49" x2="398.64" y2="172.02" stroke="#999" stroke-width="1"/>
<line x1="398.64" y1="158.38" x2="398.64" y2="165.63" stroke="#c33" stroke-width="2"/>
<line x1="405.55" y1="143.15" x2="405.55" y2="166.34" stroke="#999" stroke-width="1"/>
<line x1="405.55" y1="150.05" x2="405.55" y2="165.56" stroke="#2a6" stroke-width="2"/>
<line x1="412.46" y1="125.26" x2="412.46" y2="184.33" stroke="#999" stroke-width="1"/>
<line x1="412.46" y1="150.08" x2="412.46" y2="170.29" stroke="#c33" stroke-width="2"/>
<line x1="419.37" y1="151.65" x2="419.37" y2="204.09" stroke="#999" stroke-width="1"/>
<line x1="419.37" y1="168.82" x2="419.37" y2="170.29" stroke="#2a6" stroke-width="2"/>
<line x1="426.28" y1="150.29" x2="426.28" y2="173.41" stroke="#999" stroke-width="1"/>
<line x1="426.28" y1="154.81" x2="426.28" y2="169.37" stroke="#2a6" stroke-width="2"/>
<line x1="433.19" y1="138.73" x2="433.19" y2="163.48" stroke="#999" stroke-width="1"/>
<line x1="433.19" y1="141.68" x2="433.19" y2="154.54" stroke="#2a6" stroke-width="2"/>
<line x1="440.10" y1="136.96" x2="440.10" y2="161.04" stroke="#999" stroke-width="1"/>
<line x1="440.10" y1="141.68" x2="440.10" y2="152.36" stroke="#c33" stroke-width="2"/>
<line x1="447.02" y1="152.36" x2="447.02" y2="170.18" stroke="#999" stroke-width="1"/>
<line x1="447.02" y1="152.36" x2="447.02" y2="163.38" stroke="#c33" stroke-width="2"/>
<line x1="453.93" y1="151.07" x2="453.93" y2="175.01" stroke="#999" stroke-width="1"/>
<line x1="453.93" y1="163.35" x2="453.93" y2="167.84" stroke="#c33" stroke-width="2"/>
<line x1="460.84" y1="167.26" x2="460.84" y2="179.16" stroke="#999" stroke-width="1"/>
<line x1="460.84" y1="168.04" x2="460.84" y2="178.96" stroke="#c33" stroke-width="2"/>
<line x1="467.75" y1="167.02" x2="467.75" y2="174.43" stroke="#999" stroke-width="1"/>
<line x1="467.75" y1="171.82" x2="467.75" y2="172.97" stroke="#2a6" stroke-width="2"/>
<line x1="474.66" y1="163.82" x2="474.66" y2="172.19" stroke="#999" stroke-width="1"/>
<line x1="474.66" y1="169.30" x2="474.66" y2="171.82" stroke="#2a6" stroke-width="2"/>
<line x1="481.57" y1="169.37" x2="481.57" y2="190.08" stroke="#999" stroke-width="1"/>
<line x1="481.57" y1="169.50" x2="481.57" y2="170.56" stroke="#c33" stroke-width="2"/>
<line x1="488.48" y1="40.00" x2="488.48" y2="172.84" stroke="#999" stroke-width="1"/>
<line x1="488.48" y1="69.18" x2="488.48" y2="170.63" stroke="#2a6" stroke-width="2"/>
<line x1="495.39" y1="50.47" x2="495.39" y2="116.08" stroke="#999" stroke-width="1"/>
<line x1="495.39" y1="68.43" x2="495.39" y2="99.41" stroke="#c33" stroke-width="2"/>
<line x1="502.30" y1="92.47" x2="502.30" y2="158.99" stroke="#999" stroke-width="1"/>
<line x1="502.30" y1="99.65" x2="502.30" y2="130.26" stroke="#c33" stroke-width="2"/>
<line x1="509.21" y1="130.16" x2="509.21" y2="171.31" stroke="#999" stroke-width="1"/>
<line x1="509.21" y1="130.29" x2="509.21" y2="156.99" stroke="#c33" stroke-width="2"/>
<line x1="516.13" y1="153.83" x2="516.13" y2="168.28" stroke="#999" stroke-width="1"/>
<line x1="516.13" y1="156.68" x2="516.13" y2="164.44" stroke="#c33" stroke-width="2"/>
<line x1="523.04" y1="128.56" x2="523.04" y2="173.62" stroke="#999" stroke-width="1"/>
<line x1="523.04" y1="134.85" x2="523.04" y2="164.44" stroke="#2a6" stroke-width="2"/>
<line x1="529.95" y1="121.65" x2="529.95" y2="153.38" stroke="#999" stroke-width="1"/>
<line x1="529.95" y1="134.47" x2="529.95" y2="150.59" stroke="#c33" stroke-width="2"/>
<line x1="536.86" y1="147.02" x2="536.86" y2="175.22" stroke="#999" stroke-width="1"/>
<line x1="536.86" y1="150.59" x2="536.86" y2="154.13" stroke="#c33" stroke-width="2"/>
<line x1="543.77" y1="148.01" x2="543.77" y2="168.93" stroke="#999" stroke-width="1"/>
<line x1="543.77" y1="154.10" x2="543.77" y2="165.22" stroke="#c33" stroke-width="2"/>
<line x1="550.68" y1="158.14" x2="550.68" y2="170.76" stroke="#999" stroke-width="1"/>
<line x1="550.68" y1="164.88" x2="550.68" y2="165.22" stroke="#2a6" stroke-width="2"/>
<line x1="557.59" y1="164.47" x2="557.59" y2="192.76" stroke="#999" stroke-width="1"/>
<line x1="557.59" y1="164.88" x2="557.59" y2="179.64" stroke="#c33" stroke-width="2"/>
<line x1="564.50" y1="153.69" x2="564.50" y2="187.19" stroke="#999" stroke-width="1"/>
<line x1="564.50" y1="163.69" x2="564.50" y2="178.79" stroke="#2a6" stroke-width="2"/>
<line x1="571.41" y1="145.39" x2="571.41" y2="192.22" stroke="#999" stroke-width="1"/>
<line x1="571.41" y1="163.82" x2="571.41" y2="173.35" stroke="#c33" stroke-width="2"/>
<line x1="578.32" y1="127.37" x2="578.32" y2="173.28" stroke="#999" stroke-width="1"/>
<line x1="578.32" y1="130.80" x2="578.32" y2="173.28" stroke="#2a6" stroke-width="2"/>
<line x1="585.24" y1="114.41" x2="585.24" y2="137.03" stroke="#999" stroke-width="1"/>
<line x1="585.24" y1="118.42" x2="585.24" y2="130.80" stroke="#2a6" stroke-width="2"/>
<line x1="592.15" y1="101.72" x2="592.15" y2="135.26" stroke="#999" stroke-width="1"/>
<line x1="592.15" y1="101.79" x2="592.15" y2="118.35" stroke="#2a6" stroke-width="2"/>
<line x1="599.06" y1="93.97" x2="599.06" y2="126.72" stroke="#999" stroke-width="1"/>
<line x1="599.06" y1="102.07" x2="599.06" y2="122.27" stroke="#c33" stroke-width="2"/>
<line x1="605.97" y1="107.06" x2="605.97" y2="125.16" stroke="#999" stroke-width="1"/>
<line x1="605.97" y1="107.06" x2="605.97" y2="122.57" stroke="#2a6" stroke-width="2"/>
<line x1="612.88" y1="106.76" x2="612.88" y2="146.14" stroke="#999" stroke-width="1"/>
<line x1="612.88" y1="106.79" x2="612.88" y2="143.01" stroke="#c33" stroke-width="2"/>
<line x1="619.79" y1="130.73" x2="619.79" y2="146.11" stroke="#999" stroke-width="1"/>
<line x1="619.79" y1="133.42" x2="619.79" y2="140.90" stroke="#2a6" stroke-width="2"/>
<line x1="626.70" y1="140.15" x2="626.70" y2="162.70" stroke="#999" stroke-width="1"/>
<line x1="626.70" y1="145.22" x2="626.70" y2="156.31" stroke="#c33" stroke-width="2"/>
<line x1="633.61" y1="142.53" x2="633.61" y2="159.06" stroke="#999" stroke-width="1"/>
<line x1="633.61" y1="146.99" x2="633.61" y2="156.31" stroke="#2a6" stroke-width="2"/>
<line x1="640.52" y1="146.99" x2="640.52" y2="164.95" stroke="#999" stroke-width="1"/>
<line x1="640.52" y1="146.99" x2="640.52" y2="161.41" stroke="#c33" stroke-width="2"/>
<line x1="647.43" y1="154.23" x2="647.43" y2="182.09" stroke="#999" stroke-width="1"/>
<line x1="647.43" y1="161.55" x2="647.43" y2="175.45" stroke="#c33" stroke-width="2"/>
<line x1="654.35" y1="175.25" x2="654.35" y2="193.85" stroke="#999" stroke-width="1"/>
<line x1="654.35" y1="175.42" x2="654.35" y2="193.45" stroke="#c33" stroke-width="2"/>
<line x1="661.26" y1="193.51" x2="661.26" y2="230.62" stroke="#999" stroke-width="1"/>
<line x1="661.26" y1="193.62" x2="661.26" y2="204.87" stroke="#c33" stroke-width="2"/>
<line x1="668.17" y1="192.80" x2="668.17" y2="206.91" stroke="#999" stroke-width="1"/>
<line x1="668.17" y1="203.92" x2="668.17" y2="204.74" stroke="#2a6" stroke-width="2"/>
<line x1="675.08" y1="201.16" x2="675.08" y2="233.81" stroke="#999" stroke-width="1"/>
<line x1="675.08" y1="203.61" x2="675.08" y2="218.03" stroke="#c33" stroke-width="2"/>
<line x1="681.99" y1="212.97" x2="681.99" y2="265.47" stroke="#999" stroke-width="1"/>
<line x1="681.99" y1="220.01" x2="681.99" y2="250.92" stroke="#c33" stroke-width="2"/>
<line x1="688.90" y1="232.96" x2="688.90" y2="253.81" stroke="#999" stroke-width="1"/>
<line x1="688.90" y1="233.23" x2="688.90" y2="251.46" stroke="#2a6" stroke-width="2"/>
<line x1="695.81" y1="226.30" x2="695.81" y2="243.47" stroke="#999" stroke-width="1"/>
<line x1="695.81" y1="233.23" x2="695.81" y2="238.03" stroke="#c33" stroke-width="2"/>
<line x1="702.72" y1="224.32" x2="702.72" y2="239.80" stroke="#999" stroke-width="1"/>
<line x1="702.72" y1="232.55" x2="702.72" y2="238.20" stroke="#2a6" stroke-width="2"/>
<line x1="709.63" y1="231.70" x2="709.63" y2="249.66" stroke="#999" stroke-width="1"/>
<line x1="709.63" y1="232.69" x2="709.63" y2="244.56" stroke="#c33" stroke-width="2"/>
<line x1="716.54" y1="245.27" x2="716.54" y2="306.45" stroke="#999" stroke-width="1"/>
<line x1="716.54" y1="245.27" x2="716.54" y2="297.34" stroke="#c33" stroke-width="2"/>
<line x1="723.46" y1="269.69" x2="723.46" y2="327.85" stroke="#999" stroke-width="1"/>
<line x1="723.46" y1="298.67" x2="723.46" y2="315.60" stroke="#c33" stroke-width="2"/>
<line x1="730.37" y1="291.97" x2="730.37" y2="334.89" stroke="#999" stroke-width="1"/>
<line x1="730.37" y1="309.86" x2="730.37" y2="315.53" stroke="#2a6" stroke-width="2"/>
<line x1="737.28" y1="291.86" x2="737.28" y2="328.22" stroke="#999" stroke-width="1"/>
<line x1="737.28" y1="300.71" x2="737.28" y2="309.96" stroke="#2a6" stroke-width="2"/>
<line x1="744.19" y1="298.56" x2="744.19" y2="329.21" stroke="#999" stroke-width="1"/>
<line x1="744.19" y1="300.57" x2="744.19" y2="322.37" stroke="#c33" stroke-width="2"/>
<line x1="751.10" y1="316.83" x2="751.10" y2="342.16" stroke="#999" stroke-width="1"/>
<line x1="751.10" y1="322.51" x2="751.10" y2="339.31" stroke="#c33" stroke-width="2"/>
<line x1="758.01" y1="322.47" x2="758.01" y2="340.12" stroke="#999" stroke-width="1"/>
<line x1="758.01" y1="338.80" x2="758.01" y2="339.31" stroke="#2a6" stroke-width="2"/>
<line x1="764.92" y1="335.46" x2="764.92" y2="357.50" stroke="#999" stroke-width="1"/>
<line x1="764.92" y1="338.80" x2="764.92" y2="347.06" stroke="#c33" stroke-width="2"/>
<line x1="771.83" y1="333.12" x2="771.83" y2="347.81" stroke="#999" stroke-width="1"/>
<line x1="771.83" y1="341.11" x2="771.83" y2="346.92" stroke="#2a6" stroke-width="2"/>
<line x1="778.74" y1="338.25" x2="778.74" y2="354.41" stroke="#999" stroke-width="1"/>
<line x1="778.74" y1="341.18" x2="778.74" y2="353.52" stroke="#c33" stroke-width="2"/>
<line x1="785.65" y1="334.04" x2="785.65" y2="349.44" stroke="#999" stroke-width="1"/>
<line x1="785.65" y1="337.67" x2="785.65" y2="343.29" stroke="#2a6" stroke-width="2"/>
<line x1="792.57" y1="325.64" x2="792.57" y2="345.22" stroke="#999" stroke-width="1"/>
<line x1="792.57" y1="326.15" x2="792.57" y2="337.44" stroke="#2a6" stroke-width="2"/>
<line x1="799.48" y1="325.94" x2="799.48" y2="338.22" stroke="#999" stroke-width="1"/>
<line x1="799.48" y1="326.45" x2="799.48" y2="329.82" stroke="#c33" stroke-width="2"/>
<line x1="806.39" y1="323.93" x2="806.39" y2="456.16" stroke="#999" stroke-width="1"/>
<line x1="806.39" y1="330.06" x2="806.39" y2="444.77" stroke="#c33" stroke-width="2"/>
<line x1="813.30" y1="392.29" x2="813.30" y2="446.23" stroke="#999" stroke-width="1"/>
<line x1="813.30" y1="434.50" x2="813.30" y2="444.66" stroke="#2a6" stroke-width="2"/>
<line x1="820.21" y1="416.40" x2="820.21" y2="437.79" stroke="#999" stroke-width="1"/>
<line x1="820.21" y1="432.01" x2="820.21" y2="434.70" stroke="#2a6" stroke-width="2"/>
<line x1="827.12" y1="413.14" x2="827.12" y2="435.01" stroke="#999" stroke-width="1"/>
<line x1="827.12" y1="422.12" x2="827.12" y2="431.98" stroke="#2a6" stroke-width="2"/>
<line x1="834.03" y1="391.13" x2="834.03" y2="426.20" stroke="#999" stroke-width="1"/>
<line x1="834.03" y1="412.22" x2="834.03" y2="422.12" stroke="#2a6" stroke-width="2"/>
<line x1="840.94" y1="406.81" x2="840.94" y2="444.49" stroke="#999" stroke-width="1"/>
<line x1="840.94" y1="412.66" x2="840.94" y2="434.33" stroke="#c33" stroke-width="2"/>
<line x1="847.85" y1="402.63" x2="847.85" y2="436.23" stroke="#999" stroke-width="1"/>
<line x1="847.85" y1="410.01" x2="847.85" y2="434.46" stroke="#2a6" stroke-width="2"/>
<line x1="854.76" y1="407.90" x2="854.76" y2="434.16" stroke="#999" stroke-width="1"/>
<line x1="854.76" y1="409.77" x2="854.76" y2="430.14" stroke="#c33" stroke-width="2"/>
<line x1="861.68" y1="429.22" x2="861.68" y2="470.00" stroke="#999" stroke-width="1"/>
<line x1="861.68" y1="429.73" x2="861.68" y2="455.41" stroke="#c33" stroke-width="2"/>
<line x1="868.59" y1="420.38" x2="868.59" y2="456.09" stroke="#999" stroke-width="1"/>
<line x1="868.59" y1="429.63" x2="868.59" y2="455.48" stroke="#2a6" stroke-width="2"/>
<line x1="875.50" y1="429.70" x2="875.50" y2="441.50" stroke="#999" stroke-width="1"/>
<line x1="875.50" y1="430.21" x2="875.50" y2="433.44" stroke="#c33" stroke-width="2"/>
<line x1="882.41" y1="394.81" x2="882.41" y2="436.30" stroke="#999" stroke-width="1"/>
<line x1="882.41" y1="400.76" x2="882.41" y2="433.37" stroke="#2a6" stroke-width="2"/>
<line x1="889.32" y1="336.38" x2="889.32" y2="408.17" stroke="#999" stroke-width="1"/>
<line x1="889.32" y1="341.96" x2="889.32" y2="400.76" stroke="#2a6" stroke-width="2"/>
<line x1="896.23" y1="331.72" x2="896.23" y2="391.30" stroke="#999" stroke-width="1"/>
<line x1="896.23" y1="341.48" x2="896.23" y2="372.19" stroke="#c33" stroke-width="2"/>
<line x1="903.14" y1="357.47" x2="903.14" y2="388.82" stroke="#999" stroke-width="1"/>
<line x1="903.14" y1="361.79" x2="903.14" y2="371.27" stroke="#2a6" stroke-width="2"/>
<line x1="910.05" y1="334.95" x2="910.05" y2="366.92" stroke="#999" stroke-width="1"/>
<line x1="910.05" y1="337.67" x2="910.05" y2="361.79" stroke="#2a6" stroke-width="2"/>
<line x1="916.96" y1="334.24" x2="916.96" y2="355.46" stroke="#999" stroke-width="1"/>
<line x1="916.96" y1="337.71" x2="916.96" y2="351.28" stroke="#c33" stroke-width="2"/>
<line x1="923.87" y1="339.68" x2="923.87" y2="360.36" stroke="#999" stroke-width="1"/>
<line x1="923.87" y1="351.21" x2="923.87" y2="358.28" stroke="#c33" stroke-width="2"/>
<line x1="930.79" y1="355.56" x2="930.79" y2="368.45" stroke="#999" stroke-width="1"/>
<line x1="930.79" y1="358.28" x2="930.79" y2="365.15" stroke="#c33" stroke-width="2"/>
<line x1="937.70" y1="361.75" x2="937.70" y2="367.57" stroke="#999" stroke-width="1"/>
<line x1="937.70" y1="364.30" x2="937.70" y2="367.57" stroke="#c33" stroke-width="2"/>
<line x1="944.61" y1="362.57" x2="944.61" y2="368.45" stroke="#999" stroke-width="1"/>
<line x1="944.61" y1="366.04" x2="944.61" y2="366.96" stroke="#c33" stroke-width="2"/>
<line x1="951.52" y1="358.32" x2="951.52" y2="366.75" stroke="#999" stroke-width="1"/>
<line x1="951.52" y1="361.68" x2="951.52" y2="366.68" stroke="#2a6" stroke-width="2"/>
<line x1="958.43" y1="360.87" x2="958.43" y2="370.36" stroke="#999" stroke-width="1"/>
<line x1="958.43" y1="361.62" x2="958.43" y2="369.74" stroke="#c33" stroke-width="2"/>
<line x1="965.34" y1="362.23" x2="965.34" y2="385.93" stroke="#999" stroke-width="1"/>
<line x1="965.34" y1="369.74" x2="965.34" y2="378.79" stroke="#c33" stroke-width="2"/>
<line x1="972.25" y1="365.49" x2="972.25" y2="387.53" stroke="#999" stroke-width="1"/>
<line x1="972.25" y1="367.40" x2="972.25" y2="378.69" stroke="#2a6" stroke-width="2"/>
<line x1="979.16" y1="345.19" x2="979.16" y2="370.05" stroke="#999" stroke-width="1"/>
<line x1="979.16" y1="345.94" x2="979.16" y2="367.40" stroke="#2a6" stroke-width="2"/>
<line x1="986.07" y1="338.42" x2="986.07" y2="355.09" stroke="#999" stroke-width="1"/>
<line x1="986.07" y1="346.07" x2="986.07" y2="350.29" stroke="#c33" stroke-width="2"/>
<line x1="992.98" y1="339.34" x2="992.98" y2="357.40" stroke="#999" stroke-width="1"/>
<line x1="992.98" y1="342.81" x2="992.98" y2="350.09" stroke="#2a6" stroke-width="2"/>
<line x1="999.90" y1="334.27" x2="999.90" y2="358.39" stroke="#999" stroke-width="1"/>
<line x1="999.90" y1="342.78" x2="999.90" y2="349.47" stroke="#c33" stroke-width="2"/>
<line x1="1006.81" y1="349.88" x2="1006.81" y2="370.42" stroke="#999" stroke-width="1"/>
<line x1="1006.81" y1="349.88" x2="1006.81" y2="370.29" stroke="#c33" stroke-width="2"/>
<line x1="1013.72" y1="366.17" x2="1013.72" y2="385.97" stroke="#999" stroke-width="1"/>
<line x1="1013.72" y1="370.29" x2="1013.72" y2="375.63" stroke="#c33" stroke-width="2"/>
<line x1="1020.63" y1="375.12" x2="1020.63" y2="400.66" stroke="#999" stroke-width="1"/>
<line x1="1020.63" y1="375.63" x2="1020.63" y2="389.60" stroke="#c33" stroke-width="2"/>
<line x1="1027.54" y1="377.70" x2="1027.54" y2="392.05" stroke="#999" stroke-width="1"/>
<line x1="1027.54" y1="383.82" x2="1027.54" y2="389.50" stroke="#2a6" stroke-width="2"/>
<line x1="1034.45" y1="383.21" x2="1034.45" y2="395.79" stroke="#999" stroke-width="1"/>
<line x1="1034.45" y1="384.23" x2="1034.45" y2="385.80" stroke="#c33" stroke-width="2"/>
<line x1="1041.36" y1="360.94" x2="1041.36" y2="399.53" stroke="#999" stroke-width="1"/>
<line x1="1041.36" y1="361.99" x2="1041.36" y2="385.80" stroke="#2a6" stroke-width="2"/>
<line x1="1048.27" y1="352.33" x2="1048.27" y2="385.46" stroke="#999" stroke-width="1"/>
<line x1="1048.27" y1="361.65" x2="1048.27" y2="368.38" stroke="#c33" stroke-width="2"/>
<line x1="1055.18" y1="337.33" x2="1055.18" y2="383.21" stroke="#999" stroke-width="1"/>
<line x1="1055.18" y1="339.68" x2="1055.18" y2="368.01" stroke="#2a6" stroke-width="2"/>
<line x1="1062.09" y1="314.24" x2="1062.09" y2="363.69" stroke="#999" stroke-width="1"/>
<line x1="1062.09" y1="339.44" x2="1062.09" y2="363.69" stroke="#c33" stroke-width="2"/>
<line x1="1069.01" y1="351.14" x2="1069.01" y2="366.38" stroke="#999" stroke-width="1"/>
<line x1="1069.01" y1="355.46" x2="1069.01" y2="364.13" stroke="#2a6" stroke-width="2"/>
<line x1="1075.92" y1="337.03" x2="1075.92" y2="366.48" stroke="#999" stroke-width="1"/>
<line x1="1075.92" y1="355.46" x2="1075.92" y2="357.77" stroke="#c33" stroke-width="2"/>
<line x1="1082.83" y1="356.79" x2="1082.83" y2="377.29" stroke="#999" stroke-width="1"/>
<line x1="1082.83" y1="357.43" x2="1082.83" y2="371.14" stroke="#c33" stroke-width="2"/>
<line x1="1089.74" y1="364.51" x2="1089.74" y2="380.32" stroke="#999" stroke-width="1"/>
<line x1="1089.74" y1="370.93" x2="1089.74" y2="376.17" stroke="#c33" stroke-width="2"/>
<line x1="1096.65" y1="374.23" x2="1096.65" y2="394.23" stroke="#999" stroke-width="1"/>
<line x1="1096.65" y1="376.04" x2="1096.65" y2="389.57" stroke="#c33" stroke-width="2"/>
<line x1="1103.56" y1="378.42" x2="1103.56" y2="388.69" stroke="#999" stroke-width="1"/>
<line x1="1103.56" y1="379.91" x2="1103.56" y2="386.31" stroke="#2a6" stroke-width="2"/>
<line x1="1110.47" y1="378.96" x2="1110.47" y2="388.41" stroke="#999" stroke-width="1"/>
<line x1="1110.47" y1="379.91" x2="1110.47" y2="385.76" stroke="#c33" stroke-width="2"/>
<line x1="1117.38" y1="374.84" x2="1117.38" y2="388.18" stroke="#999" stroke-width="1"/>
<line x1="1117.38" y1="375.63" x2="1117.38" y2="385.76" stroke="#2a6" stroke-width="2"/>
<line x1="1124.29" y1="370.46" x2="1124.29" y2="386.37" stroke="#999" stroke-width="1"/>
<line x1="1124.29" y1="375.32" x2="1124.29" y2="375.76" stroke="#2a6" stroke-width="2"/>
<line x1="1131.20" y1="365.73" x2="1131.20" y2="376.68" stroke="#999" stroke-width="1"/>
<line x1="1131.20" y1="373.55" x2="1131.20" y2="375.42" stroke="#2a6" stroke-width="2"/>
<line x1="1138.12" y1="370.46" x2="1138.12" y2="423.54" stroke="#999" stroke-width="1"/>
<line x1="1138.12" y1="373.55" x2="1138.12" y2="395.96" stroke="#c33" stroke-width="2"/>
<line x1="1145.03" y1="386.75" x2="1145.03" y2="398.72" stroke="#999" stroke-width="1"/>
<line x1="1145.03" y1="388.79" x2="1145.03" y2="395.96" stroke="#2a6" stroke-width="2"/>
<line x1="1151.94" y1="370.05" x2="1151.94" y2="391.51" stroke="#999" stroke-width="1"/>
<line x1="1151.94" y1="374.44" x2="1151.94" y2="388.79" stroke="#2a6" stroke-width="2"/>
<line x1="1158.85" y1="361.11" x2="1158.85" y2="380.15" stroke="#999" stroke-width="1"/>
<line x1="1158.85" y1="363.55" x2="1158.85" y2="373.86" stroke="#2a6" stroke-width="2"/>
<line x1="1165.76" y1="352.03" x2="1165.76" y2="371.78" stroke="#999" stroke-width="1"/>
<line x1="1165.76" y1="353.56" x2="1165.76" y2="363.89" stroke="#2a6" stroke-width="2"/>
<line x1="1172.67" y1="342.54" x2="1172.67" y2="355.94" stroke="#999" stroke-width="1"/>
<line x1="1172.67" y1="349.24" x2="1172.67" y2="353.45" stroke="#2a6" stroke-width="2"/>
<line x1="1179.58" y1="346.89" x2="1179.58" y2="358.62" stroke="#999" stroke-width="1"/>
<line x1="1179.58" y1="349.27" x2="1179.58" y2="356.28" stroke="#c33" stroke-width="2"/>
<line x1="1186.49" y1="343.25" x2="1186.49" y2="358.25" stroke="#999" stroke-width="1"/>
<line x1="1186.49" y1="345.09" x2="1186.49" y2="356.28" stroke="#2a6" stroke-width="2"/>
<line x1="1193.40" y1="336.79" x2="1193.40" y2="349.75" stroke="#999" stroke-width="1"/>
<line x1="1193.40" y1="343.80" x2="1193.40" y2="344.99" stroke="#2a6" stroke-width="2"/>
<line x1="1200.31" y1="322.64" x2="1200.31" y2="362.09" stroke="#999" stroke-width="1"/>
<line x1="1200.31" y1="336.14" x2="1200.31" y2="343.73" stroke="#2a6" stroke-width="2"/>
<line x1="1207.23" y1="334.72" x2="1207.23" y2="397.29" stroke="#999" stroke-width="1"/>
<line x1="1207.23" y1="335.80" x2="1207.23" y2="375.83" stroke="#c33" stroke-width="2"/>
<line x1="1214.14" y1="288.36" x2="1214.14" y2="383.01" stroke="#999" stroke-width="1"/>
<line x1="1214.14" y1="325.84" x2="1214.14" y2="375.93" stroke="#2a6" stroke-width="2"/>
<line x1="1221.05" y1="315.94" x2="1221.05" y2="348.45" stroke="#999" stroke-width="1"/>
<line x1="1221.05" y1="325.84" x2="1221.05" y2="337.16" stroke="#c33" stroke-width="2"/>
<line x1="1227.96" y1="330.46" x2="1227.96" y2="361.99" stroke="#999" stroke-width="1"/>
<line x1="1227.96" y1="336.82" x2="1227.96" y2="343.05" stroke="#c33" stroke-width="2"/>
<line x1="1234.87" y1="331.04" x2="1234.87" y2="351.45" stroke="#999" stroke-width="1"/>
<line x1="1234.87" y1="331.38" x2="1234.87" y2="342.88" stroke="#2a6" stroke-width="2"/>
<line x1="1241.78" y1="321.79" x2="1241.78" y2="336.45" stroke="#999" stroke-width="1"/>
<line x1="1241.78" y1="328.39" x2="1241.78" y2="331.14" stroke="#2a6" stroke-width="2"/>
<line x1="1248.69" y1="316.93" x2="1248.69" y2="333.18" stroke="#999" stroke-width="1"/>
<line x1="1248.69" y1="328.63" x2="1248.69" y2="328.73" stroke="#c33" stroke-width="2"/>
<line x1="1255.60" y1="326.38" x2="1255.60" y2="336.14" stroke="#999" stroke-width="1"/>
<line x1="1255.60" y1="328.83" x2="1255.60" y2="334.48" stroke="#c33" stroke-width="2"/>
<line x1="1262.51" y1="327.44" x2="1262.51" y2="333.70" stroke="#999" stroke-width="1"/>
<line x1="1262.51" y1="330.33" x2="1262.51" y2="330.36" stroke="#2a6" stroke-width="2"/>
<line x1="1269.42" y1="330.16" x2="1269.42" y2="338.83" stroke="#999" stroke-width="1"/>
<line x1="1269.42" y1="330.43" x2="1269.42" y2="336.93" stroke="#c33" stroke-width="2"/>
<line x1="1276.34" y1="334.00" x2="1276.34" y2="343.12" stroke="#999" stroke-width="1"/>
<line x1="1276.34" y1="336.79" x2="1276.34" y2="339.14" stroke="#c33" stroke-width="2"/>
<line x1="1283.25" y1="328.02" x2="1283.25" y2="351.72" stroke="#999" stroke-width="1"/>
<line x1="1283.25" y1="331.86" x2="1283.25" y2="339.24" stroke="#2a6" stroke-width="2"/>
<line x1="1290.16" y1="317.58" x2="1290.16" y2="335.19" stroke="#999" stroke-width="1"/>
<line x1="1290.16" y1="325.60" x2="1290.16" y2="331.86" stroke="#2a6" stroke-width="2"/>
<line x1="1297.07" y1="322.27" x2="1297.07" y2="331.28" stroke="#999" stroke-width="1"/>
<line x1="1297.07" y1="322.98" x2="1297.07" y2="325.60" stroke="#2a6" stroke-width="2"/>
<line x1="1303.98" y1="311.32" x2="1303.98" y2="326.93" stroke="#999" stroke-width="1"/>
<line x1="1303.98" y1="318.90" x2="1303.98" y2="322.98" stroke="#2a6" stroke-width="2"/>
<line x1="1310.89" y1="309.79" x2="1310.89" y2="325.50" stroke="#999" stroke-width="1"/>
<line x1="1310.89" y1="312.30" x2="1310.89" y2="319.07" stroke="#2a6" stroke-width="2"/>
<line x1="1317.80" y1="294.21" x2="1317.80" y2="313.77" stroke="#999" stroke-width="1"/>
<line x1="1317.80" y1="301.35" x2="1317.80" y2="311.86" stroke="#2a6" stroke-width="2"/>
<line x1="1324.71" y1="281.42" x2="1324.71" y2="311.15" stroke="#999" stroke-width="1"/>
<line x1="1324.71" y1="285.85" x2="1324.71" y2="302.34" stroke="#2a6" stroke-width="2"/>
<line x1="1331.62" y1="270.41" x2="1331.62" y2="290.64" stroke="#999" stroke-width="1"/>
<line x1="1331.62" y1="280.88" x2="1331.62" y2="285.91" stroke="#2a6" stroke-width="2"/>
<line x1="1338.53" y1="262.18" x2="1338.53" y2="281.59" stroke="#999" stroke-width="1"/>
<line x1="1338.53" y1="272.99" x2="1338.53" y2="280.88" stroke="#2a6" stroke-width="2"/>
<line x1="1345.45" y1="269.56" x2="1345.45" y2="284.86" stroke="#999" stroke-width="1"/>
<line x1="1345.45" y1="272.99" x2="1345.45" y2="277.68" stroke="#c33" stroke-width="2"/>
<line x1="1352.36" y1="275.51" x2="1352.36" y2="292.89" stroke="#999" stroke-width="1"/>
<line x1="1352.36" y1="277.07" x2="1352.36" y2="288.06" stroke="#c33" stroke-width="2"/>
<line x1="1359.27" y1="265.47" x2="1359.27" y2="302.54" stroke="#999" stroke-width="1"/>
<line x1="1359.27" y1="288.12" x2="1359.27" y2="288.53" stroke="#c33" stroke-width="2"/>
<line x1="1366.18" y1="269.49" x2="1366.18" y2="315.30" stroke="#999" stroke-width="1"/>
<line x1="1366.18" y1="287.99" x2="1366.18" y2="300.88" stroke="#c33" stroke-width="2"/>
<line x1="1373.09" y1="286.90" x2="1373.09" y2="343.05" stroke="#999" stroke-width="1"/>
<line x1="1373.09" y1="301.56" x2="1373.09" y2="326.89" stroke="#c33" stroke-width="2"/>
<line x1="1380.00" y1="312.75" x2="1380.00" y2="334.31" stroke="#999" stroke-width="1"/>
<line x1="1380.00" y1="315.91" x2="1380.00" y2="326.28" stroke="#2a6" stroke-width="2"/>
<polygon points="115.3,98.8 108.3,112.8 122.3,112.8" fill="#a20" stroke="#000" stroke-width="0.5"/>
<line x1="115.3" y1="106.8" x2="122.2" y2="152.8" stroke="#a20" stroke-dasharray="3,2" stroke-width="1"/>
<text x="115.3" y="94.8" font-family="Helvetica" font-size="10" fill="#a20" text-anchor="middle">8 H M/I c9</text>
<polygon points="205.1,201.7 198.1,187.7 212.1,187.7" fill="#0a5" stroke="#000" stroke-width="0.5"/>
<line x1="205.1" y1="193.7" x2="212.0" y2="159.9" stroke="#0a5" stroke-dasharray="3,2" stroke-width="1"/>
<text x="205.1" y="211.7" font-family="Helvetica" font-size="10" fill="#0a5" text-anchor="middle">21 L M/I c22</text>
<polygon points="225.9,112.1 218.9,126.1 232.9,126.1" fill="#a20" stroke="#000" stroke-width="0.5"/>
<line x1="225.9" y1="120.1" x2="232.8" y2="146.2" stroke="#a20" stroke-dasharray="3,2" stroke-width="1"/>
<text x="225.9" y="108.1" font-family="Helvetica" font-size="10" fill="#a20" text-anchor="middle">24 H M/I c25</text>
<polygon points="274.2,241.1 267.2,227.1 281.2,227.1" fill="#0a5" stroke="#000" stroke-width="0.5"/>
<line x1="274.2" y1="233.1" x2="281.2" y2="195.3" stroke="#0a5" stroke-dasharray="3,2" stroke-width="1"/>
<text x="274.2" y="251.1" font-family="Helvetica" font-size="10" fill="#0a5" text-anchor="middle">31 L M/E c32</text>
<polygon points="488.5,32.0 481.5,46.0 495.5,46.0" fill="#a20" stroke="#000" stroke-width="0.5"/>
<line x1="488.5" y1="40.0" x2="495.4" y2="99.4" stroke="#a20" stroke-dasharray="3,2" stroke-width="1"/>
<text x="488.5" y="28.0" font-family="Helvetica" font-size="10" fill="#a20" text-anchor="middle">62 H M/E c63</text>
<polygon points="557.6,200.8 550.6,186.8 564.6,186.8" fill="#0a5" stroke="#000" stroke-width="0.5"/>
<line x1="557.6" y1="192.8" x2="571.4" y2="173.3" stroke="#0a5" stroke-dasharray="3,2" stroke-width="1"/>
<text x="557.6" y="210.8" font-family="Helvetica" font-size="10" fill="#0a5" text-anchor="middle">72 L M/I c74</text>
<polygon points="599.1,86.0 592.1,100.0 606.1,100.0" fill="#a20" stroke="#000" stroke-width="0.5"/>
<line x1="599.1" y1="94.0" x2="612.9" y2="143.0" stroke="#a20" stroke-dasharray="3,2" stroke-width="1"/>
<text x="599.1" y="82.0" font-family="Helvetica" font-size="10" fill="#a20" text-anchor="middle">78 H M/I c80</text>
<polygon points="806.4,464.2 799.4,450.2 813.4,450.2" fill="#0a5" stroke="#000" stroke-width="0.5"/>
<line x1="806.4" y1="456.2" x2="813.3" y2="434.5" stroke="#0a5" stroke-dasharray="3,2" stroke-width="1"/>
<text x="806.4" y="474.2" font-family="Helvetica" font-size="10" fill="#0a5" text-anchor="middle">108 L M/E c109</text>
<polygon points="1062.1,306.2 1055.1,320.2 1069.1,320.2" fill="#a20" stroke="#000" stroke-width="0.5"/>
<line x1="1062.1" y1="314.2" x2="1069.0" y2="355.5" stroke="#a20" stroke-dasharray="3,2" stroke-width="1"/>
<text x="1062.1" y="302.2" font-family="Helvetica" font-size="10" fill="#a20" text-anchor="middle">145 H M/I c146</text>
<polygon points="1138.1,431.5 1131.1,417.5 1145.1,417.5" fill="#0a5" stroke="#000" stroke-width="0.5"/>
<line x1="1138.1" y1="423.5" x2="1145.0" y2="388.8" stroke="#0a5" stroke-dasharray="3,2" stroke-width="1"/>
<text x="1138.1" y="441.5" font-family="Helvetica" font-size="10" fill="#0a5" text-anchor="middle">156 L M/I c157</text>
<polygon points="1338.5,254.2 1331.5,268.2 1345.5,268.2" fill="#a20" stroke="#000" stroke-width="0.5"/>
<line x1="1338.5" y1="262.2" x2="1345.4" y2="277.7" stroke="#a20" stroke-dasharray="3,2" stroke-width="1"/>
<text x="1338.5" y="250.2" font-family="Helvetica" font-size="10" fill="#a20" text-anchor="middle">185 H M/I c186</text>
</svg>
